<svg width="688" height="608" viewBox="0 0 688 608" fill="none" xmlns="http://www.w3.org/2000/svg">
<path opacity="0.24" d="M241.942 588.949C304.186 578.44 367.357 594.494 429.883 603.187C492.409 611.88 561.308 611.584 612.081 573.999C671.816 529.754 688.561 447.184 686.991 372.715C685.234 286.511 662.746 196.433 602.608 134.788C570.54 101.926 529.831 79.1309 489.578 57.1427C439.248 29.6104 386.329 1.95703 329.049 0.0730984C278.975 -1.31473 230.366 17.1057 193.719 51.3564C165.18 78.2697 145.805 113.338 122.002 144.571C78.0456 202.246 39.6283 254.932 12.887 322.377C-11.4526 383.753 -0.343392 434.01 38.0176 487.688C76.3786 541.367 118.473 591.103 184.233 587.792" fill="#555555"/>
<path d="M485.112 164.275L483.239 177.544L440.316 479.835H231.671L274.594 177.544L276.482 164.275C277.184 159.944 279.375 155.992 282.679 153.1C285.983 150.209 290.192 148.558 294.583 148.432H471.508C473.51 148.376 475.499 148.766 477.33 149.576C479.161 150.386 480.788 151.594 482.092 153.113C483.396 154.631 484.344 156.421 484.866 158.353C485.388 160.284 485.472 162.307 485.112 164.275Z" fill="#1D1D1D"/>
<path d="M246.591 215.384C246.591 215.384 241.772 217.516 239.523 213.608L246.591 215.384Z" fill="white"/>
<path d="M440.325 480.619H231.691C231.576 480.62 231.462 480.596 231.357 480.55C231.252 480.503 231.159 480.434 231.083 480.348C231.008 480.26 230.953 480.158 230.92 480.048C230.887 479.938 230.877 479.822 230.891 479.708L275.7 164.22C276.431 159.694 278.717 155.564 282.166 152.539C285.615 149.514 290.012 147.784 294.6 147.645H471.515C473.604 147.592 475.679 147.993 477.597 148.821C479.515 149.649 481.229 150.884 482.622 152.44C484.004 154.064 485.015 155.969 485.584 158.023C486.153 160.076 486.267 162.229 485.918 164.332L484.046 177.597L441.109 479.932C441.083 480.121 440.989 480.295 440.845 480.421C440.701 480.547 440.517 480.617 440.325 480.619ZM232.603 479.021H439.621L484.334 164.156C484.65 162.282 484.553 160.361 484.05 158.528C483.547 156.696 482.65 154.994 481.421 153.543C480.185 152.146 478.658 151.036 476.947 150.29C475.236 149.545 473.382 149.182 471.515 149.228H294.6C290.402 149.354 286.378 150.935 283.219 153.7C280.06 156.464 277.962 160.24 277.284 164.38L275.412 177.645L232.603 479.021Z" fill="#141414"/>
<path d="M365.812 305.488H274.866C274.637 305.479 274.421 305.382 274.261 305.217C274.19 305.128 274.138 305.026 274.108 304.916C274.078 304.806 274.07 304.691 274.086 304.578L287.585 209.583C287.615 209.393 287.712 209.219 287.857 209.094C288.003 208.968 288.188 208.898 288.38 208.897H379.294C379.409 208.895 379.522 208.919 379.627 208.966C379.731 209.013 379.824 209.082 379.9 209.169C379.975 209.255 380.031 209.357 380.064 209.467C380.097 209.577 380.105 209.693 380.089 209.807L366.686 304.801C366.655 305.006 366.547 305.191 366.384 305.319C366.222 305.446 366.017 305.507 365.812 305.488ZM275.804 303.891H365.128L378.309 210.494H288.984L275.804 303.891Z" fill="#B4B4B4"/>
<path d="M452.321 210.468H403.67C403.459 210.468 403.256 210.385 403.107 210.238C402.957 210.091 402.873 209.891 402.873 209.683C402.873 209.474 402.957 209.275 403.107 209.127C403.256 208.98 403.459 208.897 403.67 208.897H452.337C452.548 208.897 452.751 208.98 452.901 209.127C453.05 209.275 453.134 209.474 453.134 209.683C453.134 209.787 453.113 209.891 453.072 209.987C453.031 210.083 452.971 210.17 452.895 210.244C452.819 210.317 452.729 210.374 452.631 210.413C452.532 210.451 452.427 210.47 452.321 210.468Z" fill="#B4B4B4"/>
<path d="M450.766 223.033H402.099C401.887 223.033 401.685 222.95 401.535 222.803C401.386 222.655 401.302 222.456 401.302 222.247C401.302 222.039 401.386 221.839 401.535 221.692C401.685 221.545 401.887 221.462 402.099 221.462H450.766C450.977 221.462 451.18 221.545 451.329 221.692C451.479 221.839 451.563 222.039 451.563 222.247C451.563 222.456 451.479 222.655 451.329 222.803C451.18 222.95 450.977 223.033 450.766 223.033Z" fill="#B4B4B4"/>
<path d="M449.196 235.598H400.528C400.318 235.594 400.118 235.51 399.969 235.364C399.821 235.217 399.736 235.02 399.731 234.813C399.731 234.604 399.815 234.405 399.965 234.257C400.114 234.11 400.317 234.027 400.528 234.027H449.196C449.407 234.027 449.61 234.11 449.759 234.257C449.908 234.405 449.992 234.604 449.992 234.813C449.992 235.021 449.908 235.221 449.759 235.368C449.61 235.515 449.407 235.598 449.196 235.598Z" fill="#B4B4B4"/>
<path d="M446.839 248.163H398.172C397.96 248.163 397.758 248.081 397.608 247.933C397.459 247.786 397.375 247.586 397.375 247.378C397.375 247.17 397.459 246.97 397.608 246.823C397.758 246.676 397.96 246.593 398.172 246.593H446.839C447.05 246.593 447.253 246.676 447.403 246.823C447.552 246.97 447.636 247.17 447.636 247.378C447.636 247.586 447.552 247.786 447.403 247.933C447.253 248.081 447.05 248.163 446.839 248.163Z" fill="#B4B4B4"/>
<path d="M445.268 260.729H396.602C396.391 260.729 396.188 260.646 396.038 260.499C395.889 260.352 395.805 260.152 395.805 259.944C395.805 259.735 395.889 259.535 396.038 259.388C396.188 259.241 396.391 259.158 396.602 259.158H445.268C445.479 259.158 445.682 259.241 445.832 259.388C445.982 259.535 446.066 259.735 446.066 259.944C446.066 260.152 445.982 260.352 445.832 260.499C445.682 260.646 445.479 260.729 445.268 260.729Z" fill="#B4B4B4"/>
<path d="M429.564 273.294H395.03C394.82 273.29 394.62 273.206 394.472 273.06C394.324 272.913 394.238 272.716 394.234 272.509C394.234 272.301 394.318 272.101 394.467 271.954C394.616 271.806 394.819 271.724 395.03 271.724H429.564C429.775 271.724 429.977 271.806 430.126 271.954C430.276 272.101 430.359 272.301 430.359 272.509C430.359 272.717 430.276 272.917 430.126 273.064C429.977 273.212 429.775 273.294 429.564 273.294Z" fill="#B4B4B4"/>
<path d="M436.496 304.704H393.396C392.267 304.735 391.145 304.511 390.112 304.048C389.079 303.586 388.161 302.898 387.426 302.033C386.69 301.168 386.155 300.149 385.86 299.049C385.564 297.949 385.516 296.797 385.718 295.676C386.117 293.21 387.355 290.96 389.219 289.313C391.083 287.666 393.457 286.723 395.935 286.648H439.034C440.165 286.615 441.289 286.837 442.324 287.298C443.359 287.759 444.279 288.448 445.016 289.313C445.753 290.178 446.29 291.198 446.586 292.299C446.882 293.4 446.931 294.554 446.729 295.676C446.329 298.145 445.089 300.397 443.222 302.044C441.355 303.692 438.977 304.632 436.496 304.704Z" fill="#B4B4B4"/>
<path d="M314.781 429.571H271.674C270.544 429.604 269.42 429.382 268.385 428.921C267.351 428.46 266.432 427.771 265.696 426.906C264.959 426.04 264.424 425.019 264.13 423.919C263.836 422.818 263.79 421.664 263.995 420.543C264.394 418.077 265.632 415.827 267.496 414.18C269.36 412.533 271.735 411.591 274.213 411.515H317.319C318.45 411.482 319.574 411.704 320.608 412.165C321.643 412.626 322.562 413.315 323.298 414.18C324.035 415.046 324.569 416.066 324.864 417.167C325.158 418.268 325.204 419.422 324.999 420.543C324.603 423.011 323.366 425.262 321.501 426.909C319.636 428.557 317.26 429.498 314.781 429.571Z" fill="#B4B4B4"/>
<path d="M412.948 429.571H369.841C368.711 429.604 367.587 429.382 366.552 428.921C365.518 428.46 364.599 427.771 363.863 426.906C363.126 426.04 362.591 425.019 362.297 423.919C362.003 422.818 361.957 421.664 362.162 420.543C362.558 418.075 363.795 415.824 365.66 414.176C367.525 412.529 369.901 411.588 372.38 411.515H415.486C416.617 411.482 417.741 411.704 418.775 412.165C419.81 412.626 420.729 413.315 421.465 414.18C422.202 415.046 422.736 416.066 423.031 417.167C423.325 418.268 423.371 419.422 423.166 420.543C422.77 423.011 421.533 425.262 419.668 426.909C417.803 428.557 415.427 429.498 412.948 429.571Z" fill="#B4B4B4"/>
<path d="M333.584 399.731H260.737C260.621 399.727 260.508 399.7 260.404 399.65C260.299 399.601 260.206 399.531 260.13 399.445C260.055 399.362 260 399.263 259.97 399.156C259.94 399.049 259.934 398.936 259.954 398.826L269.535 331.305C269.566 331.115 269.662 330.943 269.809 330.818C269.955 330.693 270.141 330.624 270.334 330.622H343.165C343.28 330.62 343.394 330.643 343.499 330.69C343.604 330.736 343.697 330.805 343.772 330.892C343.849 330.977 343.906 331.078 343.939 331.188C343.973 331.298 343.981 331.413 343.964 331.527L334.383 399.048C334.353 399.238 334.256 399.41 334.109 399.535C333.963 399.66 333.777 399.729 333.584 399.731ZM261.727 398.144H332.962L342.367 332.209H271.068L261.727 398.144Z" fill="#B4B4B4"/>
<path d="M431.767 399.732H358.914C358.798 399.73 358.684 399.703 358.579 399.654C358.475 399.605 358.382 399.534 358.307 399.446C358.233 399.362 358.178 399.264 358.145 399.157C358.112 399.05 358.102 398.938 358.115 398.827L367.697 331.306C367.724 331.118 367.817 330.945 367.961 330.82C368.105 330.695 368.288 330.625 368.479 330.623H441.332C441.447 330.621 441.561 330.644 441.666 330.691C441.771 330.737 441.864 330.806 441.939 330.893C442.016 330.978 442.073 331.079 442.106 331.189C442.14 331.299 442.148 331.414 442.131 331.528L432.549 399.049C432.522 399.237 432.429 399.41 432.285 399.535C432.142 399.66 431.958 399.73 431.767 399.732ZM359.904 398.145H431.128L440.55 332.21H369.246L359.904 398.145Z" fill="#B4B4B4"/>
<path d="M317.623 456.274C317.122 456.281 316.625 456.189 316.167 456.005C315.709 455.82 315.301 455.547 314.971 455.204C314.64 454.853 314.397 454.44 314.26 453.995C314.123 453.55 314.094 453.083 314.175 452.627C314.339 451.685 314.862 450.826 315.653 450.201C316.444 449.575 317.453 449.223 318.501 449.206C319 449.2 319.495 449.291 319.953 449.473C320.41 449.655 320.82 449.923 321.153 450.261C321.484 450.612 321.725 451.025 321.86 451.47C321.995 451.916 322.019 452.383 321.932 452.838C321.776 453.781 321.257 454.643 320.468 455.272C319.68 455.901 318.672 456.256 317.623 456.274ZM318.501 450.713C317.855 450.738 317.237 450.962 316.749 451.348C316.261 451.734 315.932 452.259 315.816 452.838C315.77 453.082 315.783 453.333 315.854 453.573C315.926 453.812 316.054 454.035 316.23 454.224C316.405 454.401 316.621 454.541 316.861 454.635C317.101 454.728 317.361 454.773 317.623 454.767C318.27 454.743 318.889 454.518 319.375 454.128C319.862 453.738 320.185 453.208 320.291 452.627C320.339 452.386 320.329 452.138 320.26 451.901C320.191 451.664 320.066 451.444 319.893 451.256C319.718 451.079 319.503 450.939 319.263 450.845C319.022 450.752 318.763 450.707 318.501 450.713Z" fill="#B4B4B4"/>
<path d="M335.089 454.939C336.366 453.749 336.564 451.885 335.53 450.776C334.496 449.666 332.623 449.732 331.345 450.921C330.068 452.111 329.87 453.975 330.904 455.084C331.938 456.193 333.811 456.128 335.089 454.939Z" fill="#B4B4B4"/>
<path d="M349.083 454.83C350.358 453.643 350.555 451.784 349.524 450.677C348.492 449.57 346.623 449.635 345.349 450.822C344.074 452.009 343.877 453.868 344.908 454.975C345.94 456.081 347.809 456.017 349.083 454.83Z" fill="#B4B4B4"/>
<path d="M365.364 454.934C366.642 453.744 366.839 451.88 365.805 450.771C364.772 449.662 362.898 449.727 361.621 450.916C360.343 452.106 360.146 453.97 361.179 455.079C362.213 456.188 364.087 456.123 365.364 454.934Z" fill="#B4B4B4"/>
<path d="M307.021 186.908H294.539C294.319 186.908 294.109 186.825 293.954 186.678C293.799 186.53 293.712 186.331 293.712 186.122C293.712 185.914 293.799 185.714 293.954 185.567C294.109 185.42 294.319 185.337 294.539 185.337H307.021C307.24 185.337 307.451 185.42 307.606 185.567C307.761 185.714 307.848 185.914 307.848 186.122C307.848 186.331 307.761 186.53 307.606 186.678C307.451 186.825 307.24 186.908 307.021 186.908Z" fill="#B4B4B4"/>
<path d="M306.236 192.405H293.751C293.534 192.401 293.326 192.317 293.172 192.17C293.018 192.024 292.93 191.826 292.926 191.619C292.926 191.411 293.013 191.211 293.168 191.064C293.322 190.917 293.532 190.834 293.751 190.834H306.236C306.455 190.834 306.665 190.917 306.82 191.064C306.975 191.211 307.062 191.411 307.062 191.619C307.057 191.826 306.969 192.024 306.815 192.17C306.661 192.317 306.454 192.401 306.236 192.405Z" fill="#B4B4B4"/>
<path d="M305.45 197.902H292.967C292.748 197.902 292.538 197.819 292.383 197.672C292.228 197.524 292.141 197.325 292.141 197.116C292.145 196.909 292.233 196.712 292.387 196.566C292.542 196.419 292.749 196.335 292.967 196.331H305.45C305.669 196.331 305.879 196.414 306.034 196.561C306.189 196.708 306.277 196.908 306.277 197.116C306.277 197.325 306.189 197.524 306.034 197.672C305.879 197.819 305.669 197.902 305.45 197.902Z" fill="#B4B4B4"/>
<path d="M485.112 164.242L483.242 177.484H274.864L276.75 164.242C277.451 159.92 279.64 155.976 282.939 153.091C286.239 150.205 290.443 148.558 294.828 148.432H471.526C473.525 148.376 475.512 148.766 477.341 149.574C479.17 150.382 480.795 151.588 482.097 153.103C483.399 154.618 484.345 156.405 484.867 158.332C485.389 160.259 485.473 162.279 485.112 164.242Z" fill="#BB86FC"/>
<path d="M385.589 164.133H362.829C362.618 164.133 362.417 164.05 362.268 163.903C362.12 163.756 362.036 163.556 362.036 163.348C362.036 163.14 362.12 162.94 362.268 162.793C362.417 162.645 362.618 162.562 362.829 162.562H385.589C385.799 162.562 386.001 162.645 386.149 162.793C386.298 162.94 386.381 163.14 386.381 163.348C386.381 163.556 386.298 163.756 386.149 163.903C386.001 164.05 385.799 164.133 385.589 164.133Z" fill="white"/>
<path d="M397.384 164.133H393.44C393.235 164.129 393.04 164.045 392.895 163.899C392.75 163.752 392.667 163.555 392.663 163.348C392.663 163.14 392.745 162.94 392.89 162.793C393.036 162.645 393.234 162.562 393.44 162.562H397.384C397.59 162.562 397.787 162.645 397.933 162.793C398.079 162.94 398.16 163.14 398.16 163.348C398.16 163.556 398.079 163.756 397.933 163.903C397.787 164.05 397.59 164.133 397.384 164.133Z" fill="white"/>
<path d="M272.384 268.455L287.305 283.741C287.305 283.741 314.234 254.551 314.522 250.896C315.361 244.337 317.207 237.943 319.997 231.939C320.119 231.556 320.382 231.232 320.734 231.033C321.582 230.716 322.191 231.891 322.335 232.781C322.604 234.952 322.577 237.149 322.255 239.312C324.928 235.642 327.65 232.019 330.452 228.443C330.553 228.263 330.693 228.107 330.862 227.986C331.031 227.866 331.224 227.783 331.428 227.744C331.741 227.764 332.036 227.893 332.261 228.11C334.026 229.606 335.349 231.55 336.087 233.735C336.566 234.893 336.842 236.123 336.904 237.374C337.016 244.397 330.676 255.806 324.096 258.682C324.096 258.682 293.453 310.802 287.945 310.198C282.438 309.594 260.729 285.267 260.729 285.267L272.384 268.455Z" fill="#E7E7E7"/>
<path d="M287.97 310.989H287.842C282.201 310.353 262.368 288.28 260.114 285.767C260.003 285.627 259.942 285.453 259.942 285.274C259.942 285.095 260.003 284.922 260.114 284.781L271.813 267.972C271.881 267.877 271.97 267.798 272.072 267.741C272.174 267.683 272.287 267.648 272.404 267.638C272.522 267.627 272.641 267.643 272.751 267.684C272.862 267.726 272.962 267.792 273.043 267.877L287.347 282.555C297.687 271.28 313.556 253.198 313.78 250.749C314.615 244.113 316.458 237.641 319.246 231.555C319.345 231.268 319.501 231.003 319.704 230.777C319.907 230.55 320.153 230.366 320.428 230.235C320.653 230.148 320.896 230.112 321.136 230.132C321.377 230.151 321.611 230.224 321.819 230.346C322.188 230.624 322.492 230.979 322.71 231.385C322.928 231.791 323.055 232.24 323.081 232.7C323.228 233.977 323.287 235.263 323.257 236.548C325.383 233.654 327.556 230.776 329.761 227.961C329.934 227.684 330.168 227.45 330.445 227.277C330.721 227.103 331.034 226.994 331.36 226.959C331.861 226.98 332.34 227.171 332.718 227.5C334.591 229.06 336.009 231.092 336.825 233.384C337.33 234.631 337.622 235.953 337.688 237.296C337.8 244.341 331.711 255.966 324.647 259.257C319.246 268.465 293.899 310.989 287.97 310.989ZM261.713 285.179C270.391 294.864 284.246 309.033 288.002 309.399C291.294 309.399 308.442 283.477 323.257 258.224C323.342 258.078 323.471 257.961 323.625 257.89C330.097 255.059 336.058 243.895 335.946 237.312C335.894 236.148 335.64 235.002 335.195 233.924C334.496 231.883 333.26 230.065 331.615 228.661C331.408 228.486 331.328 228.454 331.296 228.454C331.164 228.567 331.046 228.695 330.944 228.836C328.163 232.398 325.415 236.055 322.762 239.713C322.657 239.858 322.506 239.964 322.333 240.014C322.16 240.063 321.975 240.053 321.809 239.985C321.642 239.917 321.504 239.795 321.416 239.639C321.328 239.482 321.295 239.301 321.323 239.125C321.64 237.018 321.667 234.878 321.403 232.763C321.379 232.35 321.203 231.959 320.908 231.666C320.785 231.811 320.692 231.978 320.636 232.159C317.886 238.088 316.065 244.4 315.234 250.877C314.899 254.614 292.349 279.295 287.826 284.272C287.675 284.429 287.469 284.52 287.251 284.527C287.033 284.512 286.826 284.429 286.66 284.288L272.452 269.69L261.713 285.179Z" fill="#141414"/>
<path d="M167.629 488.472C167.629 488.472 162.41 502.316 164.723 503.654C167.035 504.992 213.124 503.654 210.345 500.978C207.567 498.303 195.299 489.374 195.299 489.374" fill="#E7E7E7"/>
<path d="M175.27 504.964C169.387 504.964 164.963 504.761 164.29 504.371C161.789 502.919 164.835 493.615 166.854 488.198C166.933 488.005 167.086 487.849 167.279 487.762C167.473 487.675 167.694 487.663 167.896 487.73C168.093 487.804 168.252 487.95 168.339 488.137C168.426 488.324 168.434 488.536 168.361 488.729C165.796 495.613 164.274 502.295 165.155 503.044C168.361 504.433 204.349 502.794 209.254 501.14C205.872 498.095 194.827 490.072 194.827 489.994C194.743 489.932 194.672 489.855 194.618 489.767C194.564 489.679 194.529 489.581 194.514 489.479C194.484 489.275 194.539 489.066 194.667 488.901C194.794 488.735 194.984 488.626 195.194 488.596C195.405 488.567 195.619 488.62 195.789 488.745C196.286 489.104 208.132 497.768 210.905 500.468C211.106 500.65 211.229 500.899 211.249 501.165C211.27 501.431 211.187 501.695 211.017 501.905C209.302 503.95 188.559 504.964 175.27 504.964Z" fill="#141414"/>
<path d="M213.483 217.506C211.304 217.409 209.126 217.038 206.611 216.812C204.096 216.586 201.244 215.73 201.196 213.373C201.196 211.339 203.567 209.66 203.038 207.707C202.852 207.18 202.57 206.693 202.205 206.271C198.853 201.738 197.372 196.074 198.071 190.466C198.769 184.857 201.594 179.738 205.954 176.181C205.297 176.407 204.592 175.745 204.528 175.051C204.524 174.342 204.794 173.658 205.281 173.146C207.048 171.19 209.341 169.793 211.881 169.127C219.829 166.657 228.331 166.657 236.28 169.127C242.367 170.919 249.688 175.81 248.887 183.219C248.789 184.563 248.236 185.832 247.32 186.813C246.404 187.795 245.182 188.429 243.857 188.611C242.495 196.553 238.362 201.977 233.172 207.723C229.683 211.67 225.281 214.687 220.356 216.505C218.155 217.303 215.818 217.643 213.483 217.506Z" fill="#141414"/>
<path d="M214.499 218.321H213.505C212.208 218.321 210.942 218.111 209.58 217.95C208.635 217.837 207.657 217.725 206.6 217.628C202.803 217.306 200.512 215.727 200.464 213.406C200.524 212.296 200.903 211.228 201.553 210.329C202.082 209.442 202.53 208.717 202.338 207.944C202.193 207.561 201.981 207.206 201.713 206.897C198.308 202.389 196.701 196.765 197.208 191.127C197.715 185.49 200.299 180.246 204.453 176.427C204.086 176.064 203.854 175.587 203.796 175.073C203.778 174.615 203.85 174.159 204.01 173.73C204.169 173.301 204.413 172.908 204.725 172.575C206.582 170.541 208.978 169.082 211.631 168.37C219.732 165.862 228.396 165.862 236.497 168.37C243.642 170.465 250.484 175.895 249.667 183.307C249.542 184.723 248.981 186.065 248.062 187.145C247.143 188.225 245.911 188.99 244.54 189.333C242.937 197.486 238.355 203.126 233.757 208.218C230.189 212.256 225.68 215.34 220.635 217.193C218.67 217.923 216.594 218.305 214.499 218.321ZM205.895 175.395C206.05 175.393 206.203 175.433 206.338 175.509C206.473 175.585 206.585 175.696 206.664 175.83C206.762 175.993 206.801 176.184 206.775 176.372C206.749 176.56 206.659 176.733 206.52 176.862C202.329 180.287 199.616 185.207 198.944 190.595C198.272 195.984 199.695 201.425 202.915 205.785C203.348 206.282 203.675 206.863 203.876 207.493C203.981 208.13 203.951 208.782 203.788 209.407C203.625 210.032 203.333 210.615 202.931 211.118C202.456 211.772 202.158 212.538 202.066 213.342C202.066 215.485 205.975 215.92 206.744 216.001C207.802 216.001 208.811 216.21 209.772 216.323C211.086 216.484 212.336 216.629 213.585 216.677C215.8 216.814 218.018 216.496 220.106 215.743C224.901 213.986 229.184 211.057 232.571 207.219C238.275 200.919 241.816 195.843 243.066 188.544C243.095 188.361 243.186 188.194 243.323 188.071C243.46 187.948 243.635 187.876 243.819 187.867C244.947 187.688 245.983 187.131 246.756 186.285C247.53 185.44 247.997 184.356 248.08 183.21C248.882 175.814 240.887 171.415 236.048 169.997C228.255 167.587 219.921 167.587 212.127 169.997C209.755 170.605 207.614 171.906 205.975 173.736C205.619 174.085 205.407 174.557 205.382 175.057C205.396 175.138 205.426 175.215 205.47 175.285C205.514 175.354 205.571 175.413 205.639 175.46L205.895 175.395Z" fill="#141414"/>
<path d="M181.29 264.016C181.29 264.016 164.472 298.637 165.775 309.246C167.079 319.854 201.828 315.675 201.828 315.675L200 263.084L181.29 264.016Z" fill="#E7E7E7"/>
<path d="M187.48 317.272C186.43 317.272 185.349 317.272 184.3 317.272C172.123 316.891 165.621 314.259 165.001 309.472C163.618 298.898 179.897 265.828 180.58 264.433C180.646 264.306 180.743 264.199 180.863 264.121C180.983 264.043 181.121 263.998 181.264 263.989L199.974 263.085C200.079 263.079 200.183 263.095 200.282 263.13C200.38 263.166 200.47 263.22 200.547 263.291C200.627 263.36 200.691 263.445 200.735 263.541C200.779 263.637 200.801 263.741 200.801 263.846L202.613 315.655C202.619 315.854 202.551 316.048 202.422 316.2C202.293 316.352 202.112 316.452 201.914 316.479C197.119 316.986 192.301 317.25 187.48 317.272ZM181.788 265.495C179.881 269.411 165.319 299.722 166.559 309.218C167.64 317.018 191.088 316.067 201.024 314.973L199.227 264.702L181.788 265.495Z" fill="#141414"/>
<path d="M248.948 481.588L249.85 504.171C249.85 504.171 291.318 504.477 288.898 501.396C286.478 498.315 267.705 484.733 267.705 484.733L264.685 468.054L248.948 481.588Z" fill="#E7E7E7"/>
<path d="M255.174 504.964H249.852C249.648 504.964 249.452 504.884 249.305 504.74C249.158 504.596 249.071 504.399 249.063 504.192L248.163 481.655C248.158 481.534 248.18 481.414 248.226 481.303C248.273 481.191 248.343 481.092 248.431 481.011L264.223 467.457C264.329 467.368 264.456 467.307 264.591 467.282C264.727 467.257 264.866 467.267 264.997 467.312C265.124 467.363 265.237 467.446 265.325 467.553C265.414 467.66 265.474 467.787 265.502 467.924L268.471 484.247C270.839 485.969 287.184 497.865 289.521 500.843C289.659 501.014 289.747 501.221 289.775 501.44C289.803 501.659 289.769 501.882 289.679 502.083C288.479 504.497 269.45 504.964 255.174 504.964ZM250.61 503.355C267.239 503.451 284.957 502.807 287.926 501.536C285.273 498.702 273.398 489.865 267.223 485.438C267.14 485.381 267.069 485.307 267.015 485.222C266.961 485.136 266.924 485.04 266.907 484.939L264.128 469.663L249.758 482.074L250.61 503.355Z" fill="#141414"/>
<path d="M256.314 325.125L272.507 487.665L245.693 488.27L215.233 373.441L198.355 489.258L167.273 487.665C167.273 487.665 172.687 423.015 175.506 398.427C178.324 373.839 182.687 331.276 182.687 331.276L256.314 325.125Z" fill="#686868"/>
<path d="M246.066 200.258C246.066 200.258 251.62 209.335 250.322 211.122C249.025 212.909 245.021 211.53 245.021 211.53" fill="#E7E7E7"/>
<path d="M247.905 212.811C246.811 212.792 245.728 212.608 244.692 212.266C244.515 212.184 244.375 212.041 244.299 211.865C244.223 211.69 244.216 211.493 244.279 211.312C244.343 211.132 244.472 210.98 244.643 210.886C244.814 210.792 245.014 210.762 245.206 210.801C246.363 211.175 248.949 211.643 249.671 210.661C250.394 209.68 248.146 205.255 245.319 200.737C245.248 200.65 245.196 200.55 245.168 200.442C245.14 200.334 245.136 200.222 245.157 200.113C245.177 200.004 245.221 199.9 245.286 199.809C245.351 199.718 245.436 199.641 245.534 199.584C245.632 199.527 245.741 199.49 245.855 199.478C245.969 199.465 246.084 199.476 246.193 199.51C246.302 199.544 246.402 199.6 246.487 199.675C246.571 199.749 246.639 199.841 246.684 199.942C248.467 202.778 252.45 209.602 250.988 211.58C250.611 212.008 250.135 212.342 249.599 212.556C249.063 212.77 248.482 212.857 247.905 212.811Z" fill="#141414"/>
<path d="M245.627 188.028C249.313 191.217 247.951 197.754 247.759 201.995C247.47 207.958 247.054 213.922 246.509 219.885C246.156 223.648 236.3 223.361 234.602 222.165L235.579 237.169L215.179 228.479L216.509 211.243C216.509 211.243 223.015 211.53 227.166 203.972C231.316 196.414 231.605 184.552 231.605 184.552C231.605 184.552 242.038 184.871 245.627 188.028Z" fill="#E7E7E7"/>
<path d="M235.578 237.935C235.473 237.959 235.363 237.959 235.258 237.935L214.891 229.253C214.737 229.185 214.607 229.073 214.519 228.931C214.43 228.789 214.387 228.623 214.394 228.456L215.723 211.235C215.74 211.029 215.836 210.838 215.991 210.701C216.146 210.564 216.349 210.493 216.556 210.502C216.796 210.502 222.625 210.645 226.467 203.651C230.471 196.355 230.807 184.725 230.807 184.534C230.808 184.429 230.832 184.325 230.876 184.229C230.92 184.133 230.984 184.047 231.063 183.976C231.137 183.901 231.228 183.843 231.327 183.807C231.427 183.771 231.534 183.758 231.639 183.769C232.072 183.769 242.383 184.136 246.146 187.449C249.509 190.397 249.06 195.574 248.708 199.748C248.708 200.545 248.58 201.341 248.548 202.026C248.26 207.969 247.844 213.991 247.299 219.933C247.202 220.566 246.93 221.16 246.515 221.649C246.1 222.138 245.556 222.504 244.945 222.705C241.912 223.799 238.626 223.998 235.482 223.279L236.411 237.043C236.417 237.15 236.402 237.258 236.366 237.359C236.329 237.46 236.273 237.553 236.2 237.632C236.126 237.711 236.038 237.774 235.939 237.818C235.841 237.862 235.734 237.886 235.626 237.887L235.578 237.935ZM216.044 227.946L234.682 235.912L233.817 222.211C233.8 222.061 233.829 221.909 233.9 221.775C233.972 221.641 234.082 221.532 234.217 221.462C234.344 221.382 234.491 221.338 234.642 221.338C234.792 221.338 234.939 221.382 235.066 221.462C238.075 222.393 241.306 222.326 244.273 221.271C245.17 220.873 245.65 220.363 245.698 219.678C246.258 213.768 246.675 207.762 246.947 201.851C246.947 201.118 247.043 200.258 247.107 199.493C247.443 195.686 247.844 190.954 245.089 188.533C242.303 186.079 234.826 185.442 232.376 185.347C232.232 188.198 231.479 197.725 227.877 204.305C224.274 210.884 219.214 211.792 217.261 211.952L216.044 227.946Z" fill="#141414"/>
<path d="M276.435 269.549C276.435 269.549 252.348 244.156 242.825 234.605C233.974 225.758 208.239 217.708 196.523 230.389C196.523 230.389 177.318 257.203 173.557 272.791L184.76 279.674C182.307 298.145 180.865 316.735 180.439 335.363C201.693 352.132 256.029 324.982 256.029 324.982L251.115 286.653L259.902 295.437L276.435 269.549Z" fill="#1FBCFF"/>
<path d="M243.72 216.75C243.179 216.747 242.64 216.677 242.121 216.544C241.375 216.314 240.693 215.95 240.123 215.477C239.552 215.004 239.105 214.432 238.812 213.799C238.768 213.717 238.743 213.629 238.739 213.538C238.735 213.448 238.751 213.358 238.788 213.273C238.824 213.188 238.879 213.111 238.951 213.044C239.022 212.978 239.108 212.924 239.204 212.887C239.299 212.849 239.403 212.827 239.508 212.824C239.613 212.82 239.718 212.834 239.816 212.866C239.915 212.897 240.006 212.944 240.083 213.006C240.16 213.067 240.223 213.141 240.267 213.223C240.474 213.675 240.788 214.086 241.19 214.429C241.592 214.771 242.072 215.038 242.601 215.213C243.811 215.463 245.086 215.322 246.182 214.815C246.37 214.731 246.588 214.712 246.791 214.763C246.993 214.815 247.165 214.931 247.27 215.089C247.323 215.166 247.357 215.252 247.37 215.34C247.384 215.429 247.376 215.519 247.348 215.605C247.319 215.691 247.271 215.771 247.205 215.841C247.139 215.91 247.058 215.967 246.966 216.009C245.969 216.477 244.856 216.731 243.72 216.75Z" fill="#141414"/>
<path d="M234.812 203.731C234.7 202.213 234.169 200.756 233.278 199.522C232.736 198.478 232.033 197.526 231.196 196.699C230.777 196.281 230.27 195.963 229.711 195.768C229.152 195.572 228.557 195.505 227.968 195.57C227.457 195.681 226.974 195.897 226.552 196.205C226.129 196.514 225.776 196.907 225.515 197.36C225.015 198.276 224.718 199.288 224.644 200.328C224.463 202.593 224.88 204.866 225.851 206.92C226.822 208.974 228.314 210.739 230.18 212.038L229.857 211.667" fill="#E7E7E7"/>
<path d="M230.215 212.822C230.052 212.824 229.893 212.773 229.762 212.677C227.772 211.293 226.18 209.412 225.145 207.221C224.11 205.031 223.668 202.607 223.862 200.193C223.95 199.057 224.286 197.954 224.848 196.962C225.16 196.407 225.589 195.925 226.105 195.551C226.621 195.178 227.213 194.921 227.838 194.798C228.548 194.708 229.269 194.781 229.947 195.01C230.625 195.24 231.241 195.62 231.75 196.123C232.641 196.987 233.394 197.984 233.981 199.078C234.949 200.445 235.51 202.058 235.597 203.73C235.597 203.944 235.512 204.149 235.361 204.301C235.209 204.452 235.003 204.537 234.789 204.537C234.575 204.537 234.369 204.452 234.218 204.301C234.066 204.149 233.981 203.944 233.981 203.73C233.87 202.357 233.378 201.042 232.558 199.934C232.054 198.965 231.405 198.077 230.635 197.302C230.301 196.972 229.9 196.719 229.459 196.56C229.018 196.401 228.548 196.34 228.081 196.381C227.684 196.468 227.31 196.638 226.984 196.88C226.658 197.122 226.387 197.431 226.19 197.786C225.746 198.591 225.486 199.485 225.43 200.403C225.274 202.387 225.602 204.379 226.388 206.208C227.174 208.036 228.393 209.647 229.94 210.9C230.146 210.922 230.336 211.02 230.473 211.175L230.797 211.546C230.926 211.694 230.998 211.883 230.998 212.079C230.998 212.276 230.926 212.465 230.797 212.612C230.718 212.684 230.626 212.739 230.526 212.775C230.427 212.811 230.321 212.827 230.215 212.822Z" fill="#141414"/>
<path d="M252.061 289.784C251.844 289.783 251.637 289.695 251.484 289.537C245.362 283.053 239.586 276.234 234.181 269.112C234.057 268.936 234.005 268.717 234.035 268.503C234.064 268.288 234.174 268.094 234.341 267.96C234.511 267.83 234.725 267.773 234.935 267.804C235.146 267.835 235.336 267.95 235.463 268.125C240.828 275.197 246.561 281.966 252.638 288.403C252.713 288.478 252.772 288.567 252.813 288.666C252.853 288.765 252.874 288.871 252.874 288.978C252.874 289.085 252.853 289.191 252.813 289.29C252.772 289.389 252.713 289.479 252.638 289.554C252.564 289.632 252.473 289.693 252.374 289.732C252.274 289.772 252.168 289.79 252.061 289.784Z" fill="#141414"/>
<path d="M214.42 370.673C214.238 370.681 214.06 370.619 213.921 370.499C213.515 370.166 204.231 362.14 204.185 349.476C204.185 349.269 204.265 349.07 204.408 348.922C204.55 348.774 204.745 348.689 204.949 348.685C205.051 348.685 205.152 348.705 205.245 348.745C205.339 348.785 205.424 348.844 205.495 348.917C205.567 348.991 205.623 349.078 205.66 349.174C205.698 349.27 205.716 349.373 205.714 349.476C205.714 361.396 214.81 369.217 214.904 369.28C215.061 369.418 215.159 369.613 215.176 369.823C215.194 370.033 215.13 370.241 214.998 370.404C214.924 370.486 214.835 370.552 214.736 370.598C214.637 370.644 214.529 370.67 214.42 370.673Z" fill="#141414"/>
<path d="M243.745 195.98C243.987 194.824 243.812 193.809 243.354 193.714C242.897 193.618 242.33 194.478 242.088 195.634C241.846 196.79 242.021 197.805 242.479 197.901C242.936 197.996 243.503 197.137 243.745 195.98Z" fill="#141414"/>
<path d="M184.598 274.864H184.464C184.245 274.825 184.051 274.706 183.923 274.533C183.794 274.36 183.742 274.146 183.776 273.936C183.96 272.768 188.674 245.211 193.974 236.01C194.026 235.917 194.098 235.835 194.184 235.769C194.27 235.704 194.37 235.655 194.476 235.627C194.583 235.598 194.694 235.591 194.804 235.604C194.913 235.618 195.019 235.653 195.114 235.706C195.211 235.754 195.296 235.821 195.365 235.902C195.434 235.983 195.485 236.076 195.515 236.177C195.545 236.277 195.553 236.382 195.539 236.486C195.525 236.589 195.489 236.689 195.433 236.778C190.284 245.74 185.47 273.904 185.369 274.192C185.342 274.372 185.251 274.537 185.11 274.66C184.969 274.783 184.788 274.855 184.598 274.864Z" fill="#141414"/>
<path d="M485.296 398.552C485.498 395.529 484.858 392.509 483.45 389.83C482.288 387.894 480.505 386.358 479.55 384.31C477.959 380.757 479.057 376.581 478.675 372.692C478.33 369.43 476.9 366.379 474.616 364.035C472.595 361.987 469.985 360.563 468.043 358.419C464.86 354.898 463.968 349.953 462.17 345.617C459.59 339.403 455.136 334.159 449.437 330.623C452.891 337.616 445.012 346.513 448.593 353.442C449.724 355.65 451.872 357.25 452.716 359.587C454.705 365.203 448.036 371.3 450.169 376.885C451.236 379.669 454.212 381.285 455.597 383.926C457.459 387.478 455.994 391.815 456.138 395.831C456.345 401.384 459.703 406.345 463.698 410.233C466.181 412.617 468.95 414.698 471.656 416.858C474.839 419.45 476.224 422.155 479.041 418.01C482.966 412.275 485.14 405.512 485.296 398.552Z" fill="#02DAC5"/>
<path d="M488.779 401.477C487.722 397.199 486.975 392.538 488.779 388.5C490.779 383.935 495.804 380.694 496.389 375.73C496.779 372.538 495.105 369.202 495.755 366.01C496.406 362.817 499.007 360.631 501.267 358.268C506.32 352.815 509.326 345.833 509.788 338.476C513.178 342.424 515.921 346.867 517.918 351.644C519.642 356.512 519.674 362.227 516.731 366.504C515.891 367.499 515.201 368.606 514.682 369.793C513.69 372.985 516.438 375.89 517.853 378.891C518.695 380.599 519.047 382.499 518.872 384.389C518.698 386.279 518.002 388.086 516.861 389.617C513.967 393.145 508.422 394.517 506.991 398.811C506.641 400.416 506.477 402.054 506.503 403.695C506.196 406.537 505.033 409.225 503.162 411.414C501.291 413.604 498.797 415.195 495.999 415.986C492.601 416.8 492.666 415.475 492.048 412.65C491.186 408.883 489.739 405.228 488.779 401.477Z" fill="#02DAC5"/>
<path d="M478.341 370.889C475.996 362.715 475.067 354.161 472.595 346.019C470.491 339.657 467.923 333.461 464.913 327.481L474.972 331.751C478.2 333.132 481.694 334.75 483.221 337.925C485.866 343.464 481.112 350.622 483.898 356.034C485.104 357.81 486.435 359.497 487.881 361.081C490.841 365.271 490.384 371.048 488.763 375.92C488.054 378.015 485.016 388.871 482.293 385.856C481.191 384.649 481.096 380.158 480.64 378.507C479.931 375.952 479.081 373.444 478.341 370.889Z" fill="#02DAC5"/>
<path d="M484.451 479.834C482.38 466.438 475.908 419.198 475.908 418.785L477.526 418.578C477.526 419.055 483.998 466.248 486.117 479.595L484.451 479.834Z" fill="#141414"/>
<path d="M486.143 492.4H484.547C484.675 476.484 491.315 415.682 495.146 411.512L496.327 412.594C493.773 415.348 486.303 470.595 486.143 492.4Z" fill="#141414"/>
<path d="M489.827 490.044H488.192C489.827 455.627 482.272 383.348 482.19 382.63L483.826 382.454C483.908 383.124 491.397 455.516 489.827 490.044Z" fill="#141414"/>
<path d="M466.484 441.354H504.18L501.551 484.59C501.092 492.084 495.596 497.897 488.975 497.897H481.689C475.069 497.897 469.589 492.084 469.129 484.59L466.484 441.354Z" fill="#B4B4B4"/>
<path d="M488.963 498.682H481.689C474.683 498.682 468.817 492.509 468.327 484.625L465.702 441.447C465.693 441.335 465.707 441.222 465.744 441.115C465.781 441.009 465.839 440.911 465.914 440.828C465.99 440.746 466.082 440.68 466.184 440.635C466.286 440.59 466.397 440.567 466.508 440.567H504.143C504.369 440.571 504.584 440.662 504.744 440.823C504.892 440.996 504.971 441.218 504.965 441.447L502.325 484.625C501.85 492.493 495.983 498.682 488.963 498.682ZM467.378 442.183L469.955 484.497C470.382 491.517 475.537 497.002 481.689 497.002H488.963C495.114 497.002 500.269 491.517 500.696 484.497L503.273 442.151L467.378 442.183Z" fill="#141414"/>
<path d="M504.615 292.142H426.433L444.06 160.992H522.243L504.615 292.142Z" fill="#1D1D1D"/>
<path d="M504.628 292.927H426.44C426.328 292.928 426.216 292.904 426.114 292.857C426.012 292.811 425.921 292.742 425.849 292.656C425.771 292.574 425.713 292.476 425.68 292.368C425.647 292.26 425.639 292.146 425.657 292.034L443.238 160.893C443.268 160.702 443.365 160.529 443.512 160.404C443.658 160.278 443.844 160.208 444.037 160.207H522.225C522.34 160.208 522.453 160.233 522.557 160.279C522.662 160.326 522.755 160.394 522.833 160.478C522.976 160.658 523.045 160.886 523.024 161.116L505.443 292.242C505.413 292.435 505.313 292.61 505.164 292.736C505.014 292.862 504.824 292.93 504.628 292.927ZM427.351 291.333H503.925L521.346 161.801H444.772L427.351 291.333Z" fill="#141414"/>
<path d="M491.334 272.507H446.513C445.77 272.525 445.032 272.376 444.352 272.073C443.672 271.769 443.067 271.317 442.581 270.75C442.094 270.182 441.739 269.513 441.539 268.791C441.339 268.069 441.3 267.311 441.425 266.571L442.031 261.954C442.284 260.334 443.09 258.854 444.31 257.77C445.531 256.686 447.089 256.066 448.715 256.019H493.519C494.264 255.998 495.003 256.144 495.685 256.447C496.366 256.75 496.972 257.202 497.459 257.77C497.946 258.338 498.302 259.008 498.5 259.732C498.699 260.455 498.736 261.215 498.608 261.954L498.002 266.571C497.756 268.191 496.953 269.673 495.735 270.758C494.516 271.843 492.959 272.462 491.334 272.507Z" fill="#BB86FC"/>
<path d="M494.463 248.947H449.658C448.914 248.968 448.174 248.821 447.493 248.518C446.812 248.216 446.206 247.764 445.719 247.196C445.232 246.628 444.876 245.957 444.677 245.234C444.479 244.51 444.442 243.751 444.57 243.011L445.176 238.394C445.422 236.771 446.227 235.288 447.449 234.202C448.671 233.117 450.232 232.5 451.859 232.458H496.664C497.408 232.441 498.146 232.589 498.826 232.893C499.506 233.197 500.11 233.649 500.597 234.216C501.083 234.783 501.439 235.452 501.639 236.175C501.838 236.897 501.877 237.655 501.752 238.394L501.146 243.011C500.894 244.631 500.088 246.112 498.867 247.196C497.647 248.28 496.089 248.899 494.463 248.947Z" fill="#1D1D1D"/>
<path d="M494.459 249.732H449.662C448.811 249.748 447.968 249.577 447.189 249.233C446.41 248.889 445.714 248.379 445.149 247.738C444.59 247.081 444.178 246.309 443.942 245.477C443.705 244.644 443.649 243.77 443.777 242.914L444.399 238.298C444.678 236.487 445.578 234.833 446.941 233.622C448.305 232.412 450.046 231.722 451.863 231.672H496.659C497.51 231.657 498.353 231.827 499.132 232.171C499.911 232.515 500.607 233.025 501.173 233.666C501.73 234.325 502.14 235.096 502.377 235.929C502.613 236.761 502.67 237.634 502.544 238.491L501.922 243.106C501.643 244.917 500.743 246.571 499.38 247.782C498.016 248.993 496.275 249.683 494.459 249.732ZM451.863 233.248C450.43 233.287 449.057 233.832 447.982 234.787C446.907 235.742 446.197 237.047 445.978 238.475L445.356 243.09C445.258 243.725 445.295 244.373 445.466 244.991C445.636 245.61 445.936 246.185 446.345 246.677C446.762 247.144 447.274 247.516 447.847 247.766C448.419 248.015 449.038 248.138 449.662 248.124H494.459C495.893 248.084 497.268 247.537 498.344 246.579C499.419 245.621 500.127 244.312 500.343 242.881L500.965 238.266C501.065 237.63 501.026 236.981 500.853 236.361C500.679 235.742 500.375 235.168 499.961 234.679C499.544 234.216 499.034 233.848 498.465 233.601C497.895 233.354 497.279 233.234 496.659 233.248H451.863Z" fill="#B4B4B4"/>
<path d="M497.606 224.601H452.811C452.067 224.622 451.327 224.475 450.645 224.172C449.964 223.869 449.357 223.418 448.869 222.85C448.381 222.283 448.024 221.613 447.823 220.889C447.622 220.166 447.583 219.406 447.708 218.666L448.33 214.049C448.573 212.427 449.374 210.944 450.593 209.858C451.812 208.773 453.371 208.155 454.996 208.113H499.791C500.535 208.093 501.275 208.24 501.957 208.542C502.639 208.845 503.245 209.297 503.733 209.864C504.221 210.432 504.579 211.102 504.779 211.825C504.98 212.549 505.019 213.308 504.894 214.049L504.272 218.666C504.029 220.287 503.228 221.771 502.009 222.856C500.79 223.941 499.231 224.559 497.606 224.601Z" fill="#1D1D1D"/>
<path d="M497.602 225.387H452.817C451.958 225.409 451.105 225.239 450.32 224.889C449.534 224.54 448.835 224.019 448.272 223.366C447.71 222.712 447.298 221.941 447.067 221.108C446.835 220.275 446.79 219.401 446.934 218.549L447.54 213.942C447.822 212.136 448.722 210.486 450.084 209.279C451.447 208.071 453.186 207.381 455.001 207.328H499.786C500.645 207.306 501.497 207.476 502.283 207.826C503.069 208.175 503.768 208.695 504.33 209.349C504.893 210.003 505.304 210.774 505.536 211.607C505.767 212.44 505.813 213.314 505.669 214.166L505.063 218.773C504.781 220.579 503.881 222.229 502.518 223.436C501.156 224.644 499.416 225.334 497.602 225.387ZM455.001 208.933C453.568 208.976 452.195 209.523 451.12 210.479C450.045 211.435 449.337 212.74 449.118 214.166L448.512 218.773C448.415 219.404 448.453 220.048 448.624 220.663C448.794 221.277 449.093 221.848 449.501 222.337C449.918 222.804 450.43 223.174 451.002 223.424C451.574 223.673 452.193 223.795 452.817 223.782H497.602C499.035 223.739 500.408 223.192 501.483 222.236C502.557 221.28 503.266 219.975 503.485 218.549L504.075 213.942C504.187 213.316 504.159 212.674 503.992 212.061C503.825 211.449 503.525 210.881 503.112 210.401C502.699 209.921 502.185 209.539 501.606 209.285C501.028 209.031 500.4 208.911 499.77 208.933H455.001Z" fill="#B4B4B4"/>
<path d="M501.544 200.257H456.723C455.98 200.275 455.242 200.126 454.562 199.823C453.882 199.519 453.277 199.067 452.791 198.5C452.304 197.932 451.949 197.263 451.749 196.541C451.549 195.819 451.51 195.061 451.635 194.321L452.241 189.704C452.491 188.083 453.296 186.601 454.517 185.516C455.738 184.432 457.298 183.813 458.925 183.769H503.729C504.474 183.748 505.213 183.894 505.895 184.197C506.576 184.5 507.182 184.952 507.669 185.52C508.156 186.088 508.512 186.758 508.71 187.482C508.909 188.205 508.946 188.965 508.818 189.704L508.212 194.321C507.966 195.941 507.163 197.423 505.945 198.508C504.726 199.593 503.169 200.212 501.544 200.257Z" fill="#1D1D1D"/>
<path d="M500.867 201.04H456.053C455.184 201.072 454.319 200.91 453.519 200.565C452.72 200.221 452.006 199.703 451.428 199.048C450.872 198.389 450.462 197.619 450.226 196.787C449.989 195.956 449.931 195.084 450.057 194.228L450.679 189.618C450.954 187.806 451.852 186.15 453.216 184.937C454.58 183.725 456.324 183.033 458.142 182.983H502.94C503.79 182.965 504.635 183.134 505.414 183.478C506.193 183.822 506.889 184.333 507.453 184.975C508.012 185.632 508.424 186.402 508.66 187.234C508.897 188.066 508.953 188.939 508.825 189.794L508.219 194.405C507.944 196.197 507.061 197.837 505.72 199.047C504.38 200.257 502.665 200.961 500.867 201.04ZM458.206 184.573C456.772 184.616 455.399 185.164 454.324 186.12C453.249 187.077 452.54 188.382 452.321 189.81L451.715 194.421C451.603 195.045 451.631 195.687 451.797 196.299C451.963 196.911 452.262 197.478 452.673 197.958C453.084 198.439 453.597 198.82 454.173 199.076C454.75 199.331 455.376 199.453 456.005 199.434H500.867C502.296 199.391 503.666 198.845 504.738 197.891C505.81 196.938 506.516 195.636 506.735 194.212L507.357 189.602C507.456 188.968 507.418 188.32 507.248 187.703C507.077 187.085 506.777 186.511 506.369 186.019C505.951 185.552 505.439 185.181 504.867 184.931C504.294 184.682 503.675 184.56 503.051 184.573H458.206Z" fill="#B4B4B4"/>
<path d="M499.452 174.342H464.929C464.717 174.342 464.513 174.259 464.363 174.112C464.212 173.965 464.128 173.765 464.128 173.557C464.132 173.35 464.218 173.152 464.367 173.006C464.517 172.86 464.718 172.776 464.929 172.771H499.452C499.664 172.771 499.868 172.854 500.018 173.002C500.169 173.149 500.253 173.349 500.253 173.557C500.253 173.66 500.232 173.762 500.192 173.857C500.152 173.953 500.093 174.039 500.018 174.112C499.944 174.185 499.856 174.243 499.758 174.282C499.661 174.322 499.557 174.342 499.452 174.342Z" fill="#B4B4B4"/>
</svg>
