<svg width="737" height="663" viewBox="0 0 737 663" fill="none" xmlns="http://www.w3.org/2000/svg">
<g clip-path="url(#clip0_537_3892)">
<path opacity="0.1" d="M141.414 164.484C195.013 109.713 236.948 34.8542 299.637 9.52917C362.326 -15.1949 446.025 10.3018 527.152 57.6038C608.278 104.391 687.261 172.983 719.849 262.779C752.437 352.576 739.058 464.177 678.599 528.821C618.14 593.378 510.772 610.29 417.811 631.666C324.421 652.355 246.21 676.907 186.952 653.471C127.693 630.035 87.0441 558.438 52.3981 490.017C17.1518 421.339 -12.4346 355.237 5.31723 304.93C23.069 254.538 87.7302 219.855 141.414 164.484Z" fill="#7D7D7D"/>
<path d="M586.324 366.397H230.087V383.138H277.94V538.264H294.148V383.224H522.005V538.35H538.214V383.224H586.324V366.397Z" fill="#1D1D1D"/>
<path d="M397.915 329.054H378.877V348.799C378.877 360.045 380.849 366.397 390.883 366.397H397.915" fill="#7CC7D1"/>
<path d="M397.915 329.054H378.877V348.799C378.877 360.045 380.849 366.397 390.883 366.397H397.915" stroke="#141414" stroke-linecap="round" stroke-linejoin="round"/>
<path d="M409.492 350.086C410.779 350 411.979 349.485 412.922 348.541C413.78 347.597 414.295 346.395 414.295 345.107C414.295 343.819 413.78 342.617 412.922 341.673C412.065 340.729 410.779 340.214 409.492 340.128V336.351C411.808 336.351 414.037 337.295 415.667 338.926C417.296 340.557 418.239 342.789 418.239 345.107C418.239 347.425 417.296 349.657 415.667 351.288C414.037 352.919 411.808 353.863 409.492 353.863" fill="#231F1F"/>
<path d="M409.492 350.086C410.779 350 411.979 349.485 412.922 348.541C413.78 347.597 414.295 346.395 414.295 345.107C414.295 343.819 413.78 342.617 412.922 341.673C412.065 340.729 410.779 340.214 409.492 340.128V336.351C411.808 336.351 414.037 337.295 415.667 338.926C417.296 340.557 418.239 342.789 418.239 345.107C418.239 347.425 417.296 349.657 415.667 351.288C414.037 352.919 411.808 353.863 409.492 353.863" fill="#7CC7D1"/>
<path d="M409.492 350.086C410.779 350 411.979 349.485 412.922 348.541C413.78 347.597 414.295 346.395 414.295 345.107C414.295 343.819 413.78 342.617 412.922 341.673C412.065 340.729 410.779 340.214 409.492 340.128V336.351C411.808 336.351 414.037 337.295 415.667 338.926C417.296 340.557 418.239 342.789 418.239 345.107C418.239 347.425 417.296 349.657 415.667 351.288C414.037 352.919 411.808 353.863 409.492 353.863" stroke="#141414" stroke-linecap="round" stroke-linejoin="round"/>
<path d="M390.625 329.054H409.663V348.799C409.663 360.045 407.691 366.397 397.657 366.397H390.625" fill="#7CC7D1"/>
<path d="M390.625 329.054H409.663V348.799C409.663 360.045 407.691 366.397 397.657 366.397H390.625" stroke="#141414" stroke-linecap="round" stroke-linejoin="round"/>
<path d="M251.527 226.38C251.527 226.38 248.268 221.572 244.752 211.185C241.236 200.797 242.608 163.711 242.608 163.711C242.608 162.423 242.008 161.136 241.15 160.191C240.035 159.247 238.491 155.727 237.72 152.723L235.318 143.709L231.974 136.841C231.974 136.841 228.544 131.261 230.001 130.317C231.459 129.372 234.547 135.553 234.547 135.553C234.547 135.553 238.063 141.906 238.663 141.82C239.263 141.734 237.034 136.669 236.176 133.75C235.318 130.832 232.831 123.706 234.89 123.449C236.948 123.191 237.72 127.827 238.749 131.003C239.692 134.18 241.493 139.588 242.265 139.502C243.037 139.502 240.635 131.862 239.949 129.458C239.263 127.054 236.605 121.045 238.491 120.272C240.378 119.5 242.522 125.595 243.208 127.655C243.894 129.716 245.952 137.614 246.638 137.528C247.325 137.442 246.381 129.372 245.952 126.883C245.524 124.479 244.409 120.53 246.124 120.444C247.839 120.358 248.182 123.792 249.468 128.342L252.47 138.901C252.47 138.901 253.585 145.082 254.7 144.911C255.814 144.739 258.387 138.901 259.502 137.098C260.617 135.296 263.104 134.008 263.618 135.21C264.047 136.412 261.389 140.275 261.046 141.992C260.617 143.709 259.845 146.713 259.159 149.976C258.473 153.238 256.329 155.985 255.386 157.53C254.442 159.075 253.328 160.191 253.585 161.737C253.585 161.737 258.301 200.025 260.274 206.12C262.161 212.215 269.964 219.512 269.964 219.512" fill="#E7E7E7"/>
<path d="M337.885 514.398L334.712 526.417L343.116 528.048L355.122 526.331L354.693 515.686" fill="#E7E7E7"/>
<path d="M324.763 237.196C323.734 235.393 323.82 232.045 323.82 232.045L322.791 231.788C337.627 224.491 335.912 192.899 335.912 192.899L300.837 185.773L298.436 196.676C298.436 196.676 298.179 198.651 298.093 201.655C297.321 201.655 293.205 201.655 294.062 206.463C294.834 211.699 298.436 212.3 298.436 212.3C298.436 212.3 298.607 211.699 298.693 212.472C299.465 218.395 301.266 224.662 305.125 228.697C305.125 230.414 305.039 234.02 304.096 234.878C302.809 235.994 298.179 235.307 298.179 235.307C298.179 235.307 283.686 250.674 314.73 256.083C345.774 261.491 332.396 240.888 332.396 240.888C332.396 240.888 325.707 238.999 324.763 237.196Z" fill="#E7E7E7"/>
<path d="M312.157 208.695C312.672 208.695 313.015 208.266 313.015 207.837C313.015 207.322 312.586 206.979 312.157 206.979C311.643 206.979 311.3 207.408 311.3 207.837C311.3 208.352 311.729 208.695 312.157 208.695Z" fill="#231F1F" stroke="#141414" stroke-linecap="round" stroke-linejoin="round"/>
<path d="M325.792 209.296C326.307 209.296 326.65 208.867 326.65 208.438C326.65 207.922 326.221 207.579 325.792 207.579C325.278 207.579 324.935 208.008 324.935 208.438C324.849 208.867 325.278 209.296 325.792 209.296Z" fill="#231F1F" stroke="#141414" stroke-linecap="round" stroke-linejoin="round"/>
<path d="M309.499 191.011C309.499 191.011 326.565 196.762 337.37 194.444C348.09 192.127 349.891 176.417 342.344 171.437C334.884 166.458 325.622 172.468 325.622 172.468C325.622 172.468 320.819 161.651 309.414 165.256C298.008 168.862 299.38 177.447 299.38 177.447C299.38 177.447 288.231 178.133 288.231 189.465C288.231 200.797 300.581 204.403 304.954 200.969C309.414 197.535 309.499 191.011 309.499 191.011Z" fill="#141414" stroke="#141414" stroke-miterlimit="10"/>
<path d="M355.122 298.749C355.122 298.749 359.066 303.385 360.181 306.389C361.296 309.394 347.232 337.466 346.975 338.84L352.72 357.468C354.35 354.635 358.981 340.213 358.981 340.213C358.895 339.355 378.19 311.712 377.247 304.758C376.647 300.552 375.189 296.517 373.045 292.911" fill="#E7E7E7"/>
<path d="M332.997 525.129C332.997 525.129 332.739 525.215 332.739 530.451C332.739 535.602 333.854 538.349 333.854 538.349H361.468C361.468 538.349 374.417 538.349 375.446 538.349C376.476 538.349 381.707 537.92 382.736 534.314C383.765 530.709 381.535 530.795 371.244 528.047C360.953 525.3 359.238 524.27 357.009 524.957C352.635 526.245 332.997 525.129 332.997 525.129Z" fill="#141414" stroke="#141414" stroke-linejoin="round"/>
<path d="M321.59 527.447L320.133 519.635L301.952 520.493L300.494 527.962" fill="#E7E7E7"/>
<path d="M299.123 538.178H323.821C323.821 538.178 326.565 534.229 325.193 531.052C323.821 527.876 318.59 525.215 312.158 525.215C305.726 525.215 299.123 527.275 297.836 530.537C296.636 533.885 299.123 538.178 299.123 538.178Z" fill="#141414" stroke="#141414" stroke-linejoin="round"/>
<path d="M278.283 342.446C278.283 342.446 279.655 353.778 282.485 377.472C285.315 401.08 285.83 402.797 289.946 430.44C294.063 457.997 293.548 516.201 294.148 519.206C294.749 522.211 325.964 521.352 325.879 518.347C325.793 515.6 320.476 393.783 319.533 372.578C319.447 370.518 319.361 369.402 319.361 369.402C319.361 369.402 335.741 421.34 336.941 434.131C338.142 446.836 330.424 512.252 330.424 512.252C330.424 512.252 329.48 516.03 344.66 517.489C359.839 518.948 361.554 517.231 361.554 517.231C361.554 517.231 372.016 444.089 370.215 427.092C368.414 410.094 347.833 339.355 347.833 339.355L278.283 342.446Z" fill="#686868"/>
<path d="M567.801 217.966L487.96 161.736L484.873 166.115L564.713 222.345L567.801 217.966Z" fill="#505050"/>
<path d="M486.931 163.882L485.13 162.595L479.47 170.664L481.271 171.952L486.931 163.882Z" fill="#231F1F"/>
<path d="M515.917 302.526L573.288 220.799L568.915 217.709L511.543 299.436L515.917 302.526Z" fill="#505050"/>
<path d="M486.074 175.816L471.667 165.686L461.29 180.451L475.697 190.581L486.074 175.816Z" fill="#505050"/>
<path d="M477.326 225.693L427.844 190.924L461.461 180.279L475.868 190.409L477.326 225.693Z" fill="#505050"/>
<path d="M471.495 213.76C476.469 219.77 478.613 225.264 476.469 228.183C472.953 233.248 458.631 229.299 444.653 219.426C430.674 209.554 422.098 197.449 425.7 192.384C428.102 188.95 435.648 189.637 444.653 193.672" fill="#505050"/>
<path d="M449.627 196.677C448.512 197.364 447.568 198.308 446.797 199.338C445.939 200.54 445.424 201.913 445.167 203.373C444.91 204.832 444.996 206.292 445.424 207.751C445.853 209.125 446.539 210.498 447.568 211.528C448.512 212.644 449.798 213.503 451.084 214.018C452.457 214.619 453.914 214.876 455.372 214.791C456.83 214.705 458.288 214.275 459.574 213.589C460.861 212.902 461.976 211.872 462.833 210.67C463.691 209.468 464.291 208.094 464.548 206.635C464.548 206.635 460.261 203.201 457.516 201.141C455.029 199.51 452.371 197.964 449.627 196.677Z" fill="#1FBCFF"/>
<path d="M567.457 232.475L559.996 228.269L565.056 212.73L576.461 221.916L567.457 232.475Z" fill="#505050"/>
<path d="M492.762 164.054L483.758 157.187L482.3 168.433L492.762 164.054Z" fill="#505050"/>
<path d="M539.843 311.025H579.721C579.721 311.025 583.751 315.919 583.751 325.104C583.751 334.29 579.721 338.926 579.721 338.926H539.672" fill="#BB86FC"/>
<path d="M431.961 338.926C431.961 338.926 436.506 334.204 436.506 325.104C436.506 315.919 432.475 311.025 432.475 311.025H539.501C539.501 311.025 543.617 315.919 543.617 325.104C543.617 334.29 539.501 338.926 539.501 338.926H431.961Z" fill="#BB86FC"/>
<path d="M427.587 313.515H537.786C537.786 313.515 540.959 317.378 540.959 325.019C540.959 332.659 537.786 336.78 537.786 336.78H427.587C427.33 336.78 426.987 336.866 426.816 337.123C426.644 337.295 426.472 337.638 426.472 337.896C426.472 338.153 426.558 338.497 426.816 338.668C426.987 338.84 427.33 339.012 427.587 339.012H539.587C539.587 339.012 543.617 334.29 543.617 325.19C543.617 316.005 539.587 311.111 539.587 311.111H427.587C427.244 311.111 426.987 311.283 426.73 311.541C426.558 311.798 426.387 312.056 426.387 312.399C426.387 312.742 426.472 313 426.73 313.258C426.987 313.343 427.244 313.515 427.587 313.515Z" fill="#BB86FC"/>
<path d="M470.38 338.926H430.502C430.502 338.926 426.472 343.819 426.472 353.005C426.472 362.19 430.502 366.826 430.502 366.826H470.551" fill="#505050"/>
<path d="M578.177 366.826C578.177 366.826 573.632 362.105 573.632 353.005C573.632 343.819 577.662 338.926 577.662 338.926H470.637C470.637 338.926 466.521 343.819 466.521 353.005C466.521 362.19 470.637 366.826 470.637 366.826H578.177Z" fill="#505050"/>
<path d="M582.55 341.415H472.438C472.438 341.415 469.265 345.279 469.265 352.833C469.265 360.388 472.438 364.594 472.438 364.594H582.55C582.808 364.594 583.151 364.68 583.322 364.938C583.494 365.109 583.665 365.453 583.665 365.71C583.665 365.968 583.579 366.311 583.322 366.483C583.151 366.655 582.808 366.826 582.55 366.826H470.551C470.551 366.826 466.521 362.105 466.521 353.005C466.521 343.819 470.551 338.926 470.551 338.926H582.55C582.893 338.926 583.151 339.097 583.322 339.269C583.494 339.527 583.665 339.784 583.665 340.042C583.665 340.385 583.579 340.729 583.322 340.9C583.151 341.158 582.893 341.33 582.55 341.415Z" fill="#505050"/>
<path d="M479.127 348.369V360.13L483.329 355.924L487.188 359.787V348.369" fill="#1FBCFF"/>
<path d="M534.955 286.902H569.258C569.258 286.902 572.774 291.109 572.774 299.007C572.774 306.905 569.258 310.94 569.258 310.94H534.869" fill="#C4C4C4"/>
<path d="M442.251 310.94C442.251 310.94 446.196 306.905 446.196 299.007C446.196 291.109 442.68 286.902 442.68 286.902H534.698C534.698 286.902 538.214 291.109 538.214 299.007C538.214 306.905 534.698 310.94 534.698 310.94H442.251Z" fill="#C4C4C4"/>
<path d="M438.392 289.049H533.154C533.154 289.049 535.898 292.397 535.898 298.921C535.898 305.446 533.154 308.965 533.154 308.965H438.392C438.135 308.965 437.963 309.137 437.792 309.309C437.62 309.48 437.535 309.738 437.535 309.995C437.535 310.253 437.62 310.51 437.792 310.682C437.963 310.854 438.135 310.94 438.392 311.026H534.784C534.784 311.026 538.3 306.991 538.3 299.093C538.3 291.195 534.784 286.988 534.784 286.988H438.392C438.135 286.988 437.792 287.074 437.62 287.332C437.449 287.503 437.277 287.847 437.277 288.104C437.277 288.362 437.363 288.705 437.62 288.877C437.878 288.963 438.135 289.049 438.392 289.049Z" fill="#C4C4C4"/>
<path d="M206.247 468.041C206.247 468.041 197.757 467.783 189.267 479.544C180.777 491.306 167.313 497.229 160.281 486.927C153.334 476.626 160.109 466.925 174.774 462.804C189.524 458.598 206.247 468.041 206.247 468.041Z" fill="#02DAC5"/>
<path d="M205.046 456.279C205.046 456.279 215.68 450.441 225.885 464.692C236.176 478.943 252.727 477.827 256.329 471.732C259.931 465.636 254.528 453.789 236.776 448.724C218.939 443.659 205.046 456.279 205.046 456.279Z" fill="#02DAC5"/>
<path d="M204.102 447.179C198.185 444.776 191.668 444.518 185.579 446.407C175.031 449.411 155.993 446.664 155.478 438.337C154.963 430.01 165.512 423.743 180.605 425.975C195.613 428.121 204.102 447.179 204.102 447.179Z" fill="#02DAC5"/>
<path d="M205.99 418.764C205.99 418.764 198.786 403.226 191.411 398.676C184.036 394.126 168.085 390.95 164.397 401.08C161.824 408.205 171.172 417.047 184.893 416.532C198.614 416.103 205.99 418.764 205.99 418.764Z" fill="#02DAC5"/>
<path d="M208.905 408.291C208.905 408.291 215.166 394.727 221.597 390.778C228.029 386.829 242.008 384.082 245.266 392.838C247.582 399.019 239.349 406.831 227.343 406.402C215.337 405.887 208.905 408.291 208.905 408.291Z" fill="#02DAC5"/>
<path d="M205.046 437.135C205.046 437.135 215.251 431.126 226.657 431.04C238.063 430.954 246.21 432.242 248.01 425.203C249.726 418.163 240.464 413.871 226.571 416.017C212.678 418.077 205.046 437.135 205.046 437.135Z" fill="#02DAC5"/>
<path d="M208.819 393.009C208.819 393.009 201.959 389.49 195.956 380.304C189.867 371.118 186.951 352.06 194.755 349.141C202.559 346.137 211.735 354.378 213.965 369.487C216.28 384.51 208.819 393.009 208.819 393.009Z" fill="#02DAC5"/>
<path d="M476.555 168.69C477.755 167.746 478.527 166.286 478.441 164.054C478.441 161.221 473.553 158.646 475.783 154.955C477.927 151.521 487.017 151.95 486.074 158.646" stroke="#141414" stroke-linecap="round" stroke-linejoin="round"/>
<path d="M562.312 220.285L486.245 166.802" stroke="#141414" stroke-linecap="round" stroke-linejoin="round"/>
<path d="M491.991 164.312L564.113 215.134" stroke="#141414" stroke-linecap="round" stroke-linejoin="round"/>
<path d="M484.358 167.402L481.1 172.124" stroke="#141414" stroke-linecap="round" stroke-linejoin="round"/>
<path d="M479.299 170.665L482.472 166.115" stroke="#141414" stroke-linecap="round" stroke-linejoin="round"/>
<path d="M520.377 286.644L561.026 228.783" stroke="#141414" stroke-linecap="round" stroke-linejoin="round"/>
<path d="M565.742 231.359L526.723 286.903" stroke="#141414" stroke-linecap="round" stroke-linejoin="round"/>
<path d="M486.074 175.644L471.667 165.428L461.29 180.193L475.697 190.324L486.074 175.644Z" stroke="#141414" stroke-linecap="round" stroke-linejoin="round"/>
<path d="M427.844 190.668L461.461 180.022L475.868 190.152L477.24 225.436" stroke="#141414" stroke-linecap="round" stroke-linejoin="round"/>
<path d="M427.844 190.668C431.274 189.294 437.534 190.41 444.652 193.586" stroke="#141414" stroke-linecap="round" stroke-linejoin="round"/>
<path d="M477.241 225.349C477.241 226.294 476.983 227.238 476.469 228.011C472.953 233.076 458.631 229.127 444.653 219.254C430.674 209.382 422.098 197.277 425.7 192.212C426.215 191.525 426.901 190.924 427.758 190.581" stroke="#141414" stroke-linecap="round" stroke-linejoin="round"/>
<path d="M471.495 213.589C475.268 218.053 477.327 222.259 477.327 225.35" stroke="#141414" stroke-linecap="round" stroke-linejoin="round"/>
<path d="M444.652 193.586C449.197 195.646 453.485 198.136 457.516 200.969C462.661 204.574 467.378 208.781 471.494 213.503" stroke="#141414" stroke-linecap="round" stroke-linejoin="round"/>
<path d="M567.457 232.218L559.996 228.011L565.056 212.473L576.461 221.658L567.457 232.218Z" stroke="#141414" stroke-linecap="round" stroke-linejoin="round"/>
<path d="M482.643 165.685L482.3 168.261L492.762 163.882L483.758 157.015L482.643 165.685Z" stroke="#141414" stroke-linecap="round" stroke-linejoin="round"/>
<path d="M534.955 286.902H569.258C569.258 286.902 572.774 291.109 572.774 299.007C572.774 306.905 569.258 310.94 569.258 310.94H534.869" stroke="#141414" stroke-linejoin="round"/>
<path d="M438.392 289.049H533.154C533.154 289.049 535.898 292.397 535.898 298.921C535.898 305.446 533.154 308.965 533.154 308.965H438.392C438.135 308.965 437.963 309.137 437.792 309.309C437.62 309.48 437.535 309.738 437.535 309.995C437.535 310.253 437.62 310.51 437.792 310.682C437.963 310.854 438.135 310.94 438.392 311.026H534.784C534.784 311.026 538.3 306.991 538.3 299.093C538.3 291.195 534.784 286.988 534.784 286.988H438.392C438.135 286.988 437.792 287.074 437.62 287.332C437.449 287.503 437.277 287.847 437.277 288.104C437.277 288.362 437.363 288.705 437.62 288.877C437.878 288.963 438.135 289.049 438.392 289.049Z" stroke="#231F1F" stroke-linecap="round" stroke-linejoin="round"/>
<path d="M427.587 313.515H537.786C537.786 313.515 540.959 317.378 540.959 325.019C540.959 332.659 537.786 336.78 537.786 336.78H427.587C427.33 336.78 426.987 336.866 426.816 337.123C426.644 337.295 426.472 337.638 426.472 337.896C426.472 338.153 426.558 338.497 426.816 338.668C426.987 338.84 427.33 339.012 427.587 339.012H539.587C539.587 339.012 543.617 334.29 543.617 325.19C543.617 316.005 539.587 311.111 539.587 311.111H427.587C427.244 311.111 426.987 311.283 426.73 311.541C426.558 311.798 426.387 312.056 426.387 312.399C426.387 312.742 426.472 313 426.73 313.258C426.987 313.343 427.244 313.515 427.587 313.515Z" stroke="#231F1F" stroke-linecap="round" stroke-linejoin="round"/>
<path d="M443.795 289.049C445.339 292.139 446.025 295.573 446.025 299.093C446.111 302.613 445.167 306.047 443.452 309.137" stroke="#231F1F" stroke-miterlimit="10"/>
<path d="M433.847 313.515C435.562 317.12 436.419 321.155 436.419 325.19C436.505 329.311 435.476 333.345 433.418 336.865" stroke="#231F1F" stroke-miterlimit="10"/>
<path d="M470.379 338.926H430.502C430.502 338.926 426.472 343.819 426.472 353.005C426.472 362.19 430.502 366.826 430.502 366.826H470.551" stroke="#141414" stroke-linejoin="round"/>
<path d="M582.55 341.501H472.438C472.438 341.501 469.265 345.364 469.265 352.919C469.265 360.474 472.438 364.68 472.438 364.68H582.55C582.808 364.68 583.151 364.766 583.322 365.024C583.494 365.195 583.665 365.539 583.665 365.796C583.665 366.054 583.579 366.397 583.322 366.569C583.151 366.74 582.808 366.912 582.55 366.912H470.551C470.551 366.912 466.521 362.191 466.521 353.091C466.521 343.905 470.551 339.012 470.551 339.012H582.55C582.893 339.012 583.151 339.183 583.322 339.355C583.494 339.613 583.665 339.87 583.665 340.128C583.665 340.471 583.579 340.815 583.322 340.986C583.151 341.244 582.893 341.415 582.55 341.501Z" stroke="#141414" stroke-linecap="round" stroke-linejoin="round"/>
<path d="M576.29 341.415C574.575 345.021 573.632 349.055 573.717 353.09C573.632 357.211 574.661 361.16 576.719 364.765" stroke="#141414" stroke-miterlimit="10"/>
<path d="M298.35 201.57C298.35 201.57 293.376 201.141 294.148 206.377C295.005 211.614 298.521 212.215 298.521 212.215" stroke="#141414" stroke-linecap="round" stroke-linejoin="round"/>
<path d="M337.456 516.115L334.712 526.417L343.116 528.048L355.122 526.331L354.779 517.66" stroke="#141414" stroke-linejoin="round"/>
<path d="M301.952 520.922L300.58 528.048" stroke="#141414" stroke-linejoin="round"/>
<path d="M321.591 527.447L320.219 519.892" stroke="#141414" stroke-linejoin="round"/>
<path d="M277.94 383.566V538.693H294.149V519.205" stroke="#141414" stroke-linecap="round" stroke-linejoin="round"/>
<path d="M522.006 383.996V538.607H538.214V383.996" stroke="#141414" stroke-linecap="round" stroke-linejoin="round"/>
<path d="M353.063 357.039C354.95 353.004 359.152 340.213 359.152 340.213C359.066 339.355 378.362 311.712 377.419 304.758C376.818 300.552 375.36 296.517 373.216 292.911" stroke="#231F1F" stroke-miterlimit="10"/>
<path d="M320.047 208.18C320.047 208.18 321.505 214.79 320.648 215.992C319.79 217.194 317.046 216.421 317.046 216.421" stroke="#141414" stroke-linecap="round" stroke-linejoin="round"/>
<path d="M323.82 222.688C323.82 222.86 320.218 224.405 316.445 223.718C312.757 223.031 310.356 221.229 310.614 221.314" stroke="#141414" stroke-miterlimit="10" stroke-linecap="round"/>
<path d="M355.121 298.749C355.121 298.749 359.066 303.385 360.181 306.389C361.124 308.793 351.777 328.195 348.261 335.835" stroke="#141414" stroke-miterlimit="10"/>
<path d="M320.047 383.566H323.563" stroke="#141414" stroke-linecap="round" stroke-linejoin="round"/>
<path d="M281.284 366.826H230.173V383.566H283.343" stroke="#141414" stroke-linecap="round" stroke-linejoin="round"/>
<path d="M360.267 383.566H586.238V366.826H355.722" stroke="#141414" stroke-linecap="round" stroke-linejoin="round"/>
<path d="M323.648 231.96C323.648 231.96 323.648 235.394 324.592 237.111C325.106 238.141 327.508 239.085 329.48 239.257" stroke="#141414" stroke-linecap="round" stroke-linejoin="round"/>
<path d="M305.039 228.697C305.039 228.697 305.296 233.762 304.01 234.878C303.238 235.479 301.437 235.565 299.979 235.479" stroke="#141414" stroke-miterlimit="10"/>
<path d="M298.693 212.473C299.98 222.345 304.182 233.248 316.188 233.248C338.228 233.248 335.998 192.899 335.998 192.899" stroke="#141414" stroke-linecap="round" stroke-linejoin="round"/>
<path d="M223.569 538.349H196.298C186.093 538.349 185.407 489.588 185.407 489.588H234.546C234.461 489.588 233.774 538.349 223.569 538.349Z" fill="#BB86FC" stroke="#141414" stroke-linecap="round" stroke-linejoin="round"/>
<path d="M572.174 538.35H169.199" stroke="#141414" stroke-linejoin="round"/>
<path d="M251.527 226.38C251.527 226.38 248.268 221.572 244.752 211.185C241.236 200.797 242.608 163.711 242.608 163.711C242.608 162.423 242.008 161.136 241.15 160.191C240.035 159.247 238.491 155.727 237.72 152.723L235.318 143.709L231.974 136.841C231.974 136.841 228.544 131.261 230.001 130.317C231.459 129.372 234.547 135.553 234.547 135.553C234.547 135.553 238.063 141.906 238.663 141.82C239.349 141.82 237.034 136.669 236.176 133.75C235.318 130.832 232.831 123.706 234.89 123.449C236.948 123.191 237.72 127.827 238.749 131.003C239.692 134.18 241.493 139.588 242.265 139.502C243.037 139.502 240.635 131.862 239.949 129.458C239.263 127.054 236.605 121.045 238.491 120.272C240.378 119.5 242.522 125.595 243.208 127.655C243.894 129.716 245.952 137.614 246.638 137.528C247.325 137.442 246.381 129.372 245.952 126.883C245.524 124.479 244.409 120.53 246.124 120.444C247.839 120.358 248.182 123.792 249.468 128.342L252.47 138.901C252.47 138.901 253.585 145.082 254.7 144.911C255.814 144.739 258.387 138.901 259.502 137.098C260.617 135.296 263.104 134.008 263.618 135.21C264.047 136.412 261.389 140.275 261.046 141.992C260.617 143.709 259.845 146.713 259.159 149.976C258.473 153.238 256.329 155.985 255.386 157.53C254.442 159.075 253.328 160.191 253.585 161.737C253.585 161.737 258.301 200.025 260.274 206.12C262.161 212.215 268.421 217.881 268.421 217.881" stroke="#141414" stroke-miterlimit="10"/>
<path d="M443.28 326.649H534.183" stroke="#141414" stroke-miterlimit="10" stroke-linecap="round"/>
<path d="M474.067 348.541H543.703" stroke="#141414" stroke-linecap="round" stroke-linejoin="round"/>
<path d="M455.887 296.86H496.364" stroke="#141414" stroke-miterlimit="10" stroke-linecap="round"/>
<path d="M320.219 520.235C323.563 519.806 325.879 519.119 325.879 518.261C325.793 515.514 320.476 393.696 319.533 372.492C319.447 370.431 319.361 369.315 319.361 369.315C319.361 369.315 335.741 421.253 336.942 434.044C338.142 446.75 330.424 512.166 330.424 512.166C330.424 512.166 329.481 515.943 344.66 517.402C359.839 518.862 361.554 517.145 361.554 517.145C361.554 517.145 372.016 444.003 370.216 427.005C368.586 411.295 350.834 349.742 348.176 340.385" stroke="#141414" stroke-linejoin="round"/>
<path d="M278.626 345.021C279.141 349.57 280.513 360.301 282.571 377.471C285.401 401.165 285.915 402.796 290.032 430.439C294.148 457.996 293.634 516.2 294.234 519.205C294.663 521.437 311.3 521.523 320.304 520.235" stroke="#141414" stroke-linejoin="round"/>
<path d="M402.031 325.018C398.772 322.271 398.772 320.554 398.858 319.095C398.944 316.348 400.573 315.317 400.659 311.798C400.659 310.424 400.402 309.136 399.802 307.935" stroke="#141414" stroke-linecap="round" stroke-linejoin="round"/>
<path d="M389.682 325.018C388.739 324.246 387.967 323.301 387.452 322.271C386.938 321.155 386.681 320.039 386.681 318.837C386.766 316.09 388.224 314.545 388.224 311.025C388.224 309.652 387.881 308.364 387.367 307.162" stroke="#141414" stroke-linecap="round" stroke-linejoin="round"/>
<path d="M395.428 321.757C394.399 321.07 393.627 320.04 393.113 318.924C392.598 317.808 392.427 316.606 392.512 315.318C392.598 312.571 393.97 311.283 393.97 307.678C393.97 306.304 393.713 305.016 393.113 303.814" stroke="#141414" stroke-linecap="round" stroke-linejoin="round"/>
<path d="M205.56 467.783C205.56 467.783 175.717 468.47 169.199 475.252" stroke="#141414" stroke-miterlimit="10" stroke-linecap="round"/>
<path d="M240.464 457.739C231.117 450.785 207.19 454.048 204.789 456.108" stroke="#141414" stroke-miterlimit="10" stroke-linecap="round"/>
<path d="M203.76 446.321C203.76 446.321 186.265 434.303 172.201 434.989" stroke="#141414" stroke-miterlimit="10" stroke-linecap="round"/>
<path d="M231.717 422.455C223.141 422.627 205.561 433.615 205.39 436.448" stroke="#141414" stroke-miterlimit="10" stroke-linecap="round"/>
<path d="M206.332 418.764C206.332 418.764 189.352 406.059 175.202 406.23" stroke="#141414" stroke-miterlimit="10" stroke-linecap="round"/>
<path d="M208.476 394.211C208.476 394.211 210.191 373.007 202.645 361.16" stroke="#141414" stroke-miterlimit="10" stroke-linecap="round"/>
<path d="M234.289 395.413C225.714 395.585 208.133 406.573 207.962 409.406" stroke="#141414" stroke-miterlimit="10" stroke-linecap="round"/>
<path d="M210.706 489.588C207.533 478.342 205.389 466.839 204.446 455.163C202.645 435.161 208.562 418.85 208.562 392.924" stroke="#141414" stroke-linecap="round" stroke-linejoin="round"/>
<path d="M348.175 332.573C348.775 335.75 349.719 340.557 348.518 340.986C346.546 341.673 338.399 340.643 319.532 341.158C300.751 341.759 273.395 347.511 273.395 345.021C273.395 344.334 273.652 341.33 274.081 336.78" fill="#3272D8"/>
<path d="M272.366 218.31C271.337 216.679 270.393 214.962 269.45 213.417C269.45 213.417 269.107 212.902 268.764 213.245C268.335 213.588 265.334 216.335 257.187 220.027L246.896 224.749C246.124 225.092 246.124 225.264 246.124 225.607C246.124 225.95 246.21 226.294 246.381 226.551C246.81 227.324 247.153 228.182 247.668 229.041" fill="#3272D8"/>
<path d="M347.918 331.113C348.175 332.487 348.432 333.775 348.69 334.976L347.918 331.113Z" fill="#3272D8"/>
<path d="M362.239 266.127C355.379 255.997 350.576 249.902 344.573 246.64V246.554C343.287 245.438 329.394 237.626 329.137 237.969C328.88 238.313 328.965 238.313 328.622 239.257C327.765 241.317 323.134 245.18 317.131 245.438C311.128 245.695 302.809 238.742 301.351 235.737C300.923 234.879 300.837 234.793 300.58 234.621C300.237 234.535 288.402 230.071 284.371 229.556H284.286C276.224 226.036 273.051 218.911 269.707 213.503C269.707 213.503 269.364 212.988 269.021 213.331C268.592 213.674 265.591 216.421 257.444 220.113L247.153 224.834C246.381 225.178 246.381 225.35 246.381 225.693C246.381 226.036 246.467 226.38 246.638 226.637C249.468 232.647 253.327 238.141 260.188 247.67C267.306 257.542 274.338 263.895 278.111 269.99C277.854 275.914 277.682 281.494 277.682 285.958C277.682 304.673 273.823 342.703 273.823 345.107C273.823 347.511 301.094 341.759 319.961 341.244C338.827 340.643 346.974 341.759 348.947 341.072C350.919 340.385 348.432 334.118 347.918 328.023C347.403 321.928 340.971 309.909 344.23 287.246C344.316 286.902 344.316 286.559 344.402 286.13C347.232 289.478 350.748 293.942 352.291 297.376C352.291 297.376 353.749 300.209 354.435 300.209C355.121 300.209 359.409 297.633 368.071 294.972C375.789 292.568 375.875 292.311 375.875 291.881C375.532 291.366 369.271 276.515 362.239 266.127Z" fill="#1FBCFF"/>
</g>
<defs>
<clipPath id="clip0_537_3892">
<rect width="737" height="663" fill="white"/>
</clipPath>
</defs>
</svg>
