<svg width="629" height="557" viewBox="0 0 629 557" fill="none" xmlns="http://www.w3.org/2000/svg">
<path opacity="0.24" d="M221.455 539.076C278.429 529.457 336.25 544.151 393.482 552.108C450.713 560.065 513.779 559.794 560.252 525.392C614.929 484.893 630.256 409.315 628.819 341.152C627.21 262.249 606.627 179.798 551.581 123.374C522.228 93.2952 484.966 72.43 448.122 52.3038C402.054 27.103 353.616 1.7913 301.186 0.0669083C255.352 -1.20339 210.859 15.6571 177.316 47.0074C151.193 71.6417 133.458 103.74 111.671 132.328C71.4369 185.119 36.2727 233.344 11.7957 295.077C-10.4829 351.256 -0.314315 397.257 34.7984 446.39C69.9112 495.523 108.441 541.047 168.633 538.017" fill="#555555"/>
<path d="M444.033 150.363L442.319 162.509L403.031 439.201H212.053L251.342 162.509L253.07 150.363C253.712 146.399 255.718 142.782 258.742 140.135C261.766 137.489 265.619 135.978 269.638 135.862H431.582C433.414 135.811 435.235 136.168 436.911 136.91C438.587 137.651 440.076 138.757 441.27 140.147C442.463 141.536 443.331 143.175 443.809 144.943C444.287 146.71 444.364 148.562 444.033 150.363V150.363Z" fill="#1D1D1D"/>
<path d="M225.711 197.144C225.711 197.144 221.3 199.096 219.242 195.52Z" fill="white"/>
<path d="M403.04 439.92H212.073C211.967 439.921 211.863 439.899 211.767 439.856C211.671 439.813 211.585 439.75 211.516 439.671C211.448 439.591 211.397 439.498 211.367 439.397C211.336 439.296 211.327 439.191 211.34 439.086L252.355 150.314C253.024 146.171 255.116 142.391 258.274 139.622C261.431 136.853 265.455 135.27 269.654 135.143H431.589C433.501 135.094 435.401 135.462 437.156 136.22C438.912 136.977 440.481 138.108 441.755 139.532C443.02 141.018 443.946 142.762 444.467 144.641C444.988 146.521 445.092 148.492 444.773 150.416L443.059 162.559L403.758 439.291C403.733 439.464 403.648 439.623 403.516 439.738C403.384 439.854 403.215 439.918 403.04 439.92ZM212.907 438.457H402.396L443.323 150.255C443.612 148.54 443.523 146.782 443.063 145.104C442.602 143.427 441.781 141.87 440.657 140.541C439.525 139.262 438.127 138.246 436.561 137.564C434.994 136.882 433.298 136.55 431.589 136.591H269.654C265.812 136.707 262.129 138.154 259.237 140.685C256.346 143.215 254.425 146.671 253.805 150.46L252.091 162.603L212.907 438.457Z" fill="#141414"/>
<path d="M334.836 279.619H251.591C251.382 279.611 251.184 279.521 251.038 279.37C250.973 279.289 250.925 279.195 250.897 279.095C250.87 278.994 250.863 278.889 250.878 278.785L263.234 191.835C263.261 191.661 263.349 191.502 263.483 191.387C263.616 191.272 263.785 191.208 263.961 191.207H347.177C347.282 191.206 347.386 191.227 347.481 191.27C347.577 191.313 347.662 191.376 347.731 191.456C347.8 191.535 347.852 191.628 347.882 191.729C347.912 191.83 347.919 191.936 347.905 192.04L335.636 278.99C335.607 279.178 335.509 279.347 335.36 279.464C335.211 279.58 335.024 279.636 334.836 279.619V279.619ZM252.449 278.157H334.21L346.275 192.669H264.514L252.449 278.157Z" fill="#B4B4B4"/>
<path d="M414.02 192.645H369.488C369.295 192.645 369.109 192.569 368.972 192.434C368.836 192.299 368.759 192.116 368.759 191.926C368.759 191.735 368.836 191.552 368.972 191.418C369.109 191.283 369.295 191.207 369.488 191.207H414.034C414.228 191.207 414.413 191.283 414.55 191.418C414.687 191.552 414.764 191.735 414.764 191.926C414.764 192.021 414.744 192.116 414.707 192.204C414.669 192.292 414.614 192.372 414.545 192.439C414.476 192.506 414.394 192.559 414.303 192.594C414.213 192.629 414.117 192.646 414.02 192.645V192.645Z" fill="#B4B4B4"/>
<path d="M412.596 204.146H368.05C367.857 204.146 367.671 204.07 367.534 203.936C367.398 203.801 367.321 203.618 367.321 203.427C367.321 203.237 367.398 203.054 367.534 202.919C367.671 202.784 367.857 202.708 368.05 202.708H412.596C412.79 202.708 412.975 202.784 413.112 202.919C413.249 203.054 413.326 203.237 413.326 203.427C413.326 203.618 413.249 203.801 413.112 203.936C412.975 204.07 412.79 204.146 412.596 204.146Z" fill="#B4B4B4"/>
<path d="M411.159 215.647H366.613C366.421 215.643 366.237 215.567 366.102 215.433C365.966 215.298 365.888 215.118 365.884 214.928C365.884 214.738 365.961 214.555 366.097 214.42C366.234 214.285 366.42 214.209 366.613 214.209H411.159C411.353 214.209 411.538 214.285 411.675 214.42C411.812 214.555 411.889 214.738 411.889 214.928C411.889 215.119 411.812 215.302 411.675 215.437C411.538 215.571 411.353 215.647 411.159 215.647Z" fill="#B4B4B4"/>
<path d="M409.003 227.149H364.456C364.263 227.149 364.077 227.073 363.941 226.938C363.804 226.803 363.727 226.62 363.727 226.43C363.727 226.239 363.804 226.056 363.941 225.921C364.077 225.787 364.263 225.711 364.456 225.711H409.003C409.196 225.711 409.382 225.787 409.518 225.921C409.655 226.056 409.732 226.239 409.732 226.43C409.732 226.62 409.655 226.803 409.518 226.938C409.382 227.073 409.196 227.149 409.003 227.149Z" fill="#B4B4B4"/>
<path d="M407.564 238.65H363.019C362.826 238.65 362.64 238.574 362.503 238.439C362.366 238.304 362.289 238.121 362.289 237.931C362.289 237.74 362.366 237.557 362.503 237.422C362.64 237.288 362.826 237.212 363.019 237.212H407.564C407.758 237.212 407.943 237.288 408.08 237.422C408.217 237.557 408.294 237.74 408.294 237.931C408.294 238.121 408.217 238.304 408.08 238.439C407.943 238.574 407.758 238.65 407.564 238.65Z" fill="#B4B4B4"/>
<path d="M393.19 250.151H361.58C361.388 250.147 361.205 250.07 361.069 249.936C360.933 249.802 360.855 249.621 360.852 249.432C360.852 249.241 360.928 249.058 361.065 248.923C361.201 248.789 361.386 248.713 361.58 248.713H393.19C393.383 248.713 393.568 248.789 393.704 248.923C393.841 249.058 393.918 249.241 393.918 249.432C393.918 249.622 393.841 249.805 393.704 249.94C393.568 250.075 393.383 250.151 393.19 250.151Z" fill="#B4B4B4"/>
<path d="M399.535 278.902H360.085C359.051 278.929 358.024 278.724 357.078 278.301C356.133 277.878 355.293 277.248 354.62 276.456C353.947 275.665 353.457 274.732 353.187 273.725C352.916 272.718 352.872 271.664 353.057 270.638V270.638C353.422 268.38 354.555 266.321 356.261 264.813C357.967 263.306 360.14 262.443 362.408 262.374H401.859C402.894 262.344 403.923 262.547 404.87 262.969C405.817 263.391 406.659 264.021 407.334 264.813C408.009 265.605 408.5 266.539 408.771 267.547C409.042 268.555 409.086 269.611 408.901 270.638C408.535 272.898 407.401 274.959 405.691 276.467C403.982 277.975 401.806 278.836 399.535 278.902V278.902Z" fill="#B4B4B4"/>
<path d="M288.126 393.194H248.67C247.635 393.224 246.606 393.021 245.659 392.599C244.712 392.177 243.871 391.546 243.197 390.754C242.523 389.962 242.034 389.027 241.764 388.02C241.495 387.012 241.453 385.956 241.641 384.93V384.93C242.006 382.673 243.139 380.614 244.845 379.106C246.552 377.598 248.725 376.736 250.993 376.667H290.45C291.485 376.636 292.513 376.839 293.46 377.261C294.407 377.684 295.248 378.314 295.922 379.106C296.596 379.898 297.086 380.833 297.355 381.84C297.624 382.848 297.667 383.904 297.479 384.93C297.116 387.189 295.984 389.249 294.277 390.757C292.57 392.266 290.395 393.127 288.126 393.194V393.194Z" fill="#B4B4B4"/>
<path d="M377.981 393.194H338.525C337.49 393.225 336.461 393.021 335.514 392.599C334.567 392.177 333.726 391.547 333.052 390.754C332.378 389.962 331.889 389.028 331.619 388.02C331.35 387.013 331.308 385.957 331.496 384.931V384.931C331.858 382.672 332.99 380.611 334.697 379.103C336.404 377.595 338.579 376.734 340.848 376.667H380.305C381.34 376.637 382.368 376.84 383.315 377.262C384.262 377.684 385.103 378.314 385.777 379.107C386.451 379.899 386.941 380.833 387.21 381.841C387.479 382.849 387.522 383.904 387.334 384.931C386.971 387.189 385.839 389.25 384.132 390.758C382.425 392.266 380.25 393.128 377.981 393.194V393.194Z" fill="#B4B4B4"/>
<path d="M305.337 365.881H238.658C238.553 365.877 238.449 365.852 238.353 365.807C238.258 365.762 238.173 365.699 238.103 365.62C238.034 365.544 237.984 365.453 237.956 365.355C237.929 365.257 237.924 365.153 237.942 365.053L246.712 303.249C246.74 303.076 246.828 302.918 246.962 302.804C247.096 302.689 247.266 302.626 247.443 302.625H314.107C314.212 302.623 314.316 302.644 314.412 302.687C314.508 302.729 314.594 302.792 314.662 302.872C314.733 302.95 314.785 303.042 314.816 303.143C314.846 303.243 314.854 303.349 314.838 303.453L306.068 365.256C306.04 365.43 305.952 365.588 305.818 365.702C305.684 365.816 305.514 365.88 305.337 365.881ZM239.565 364.429H304.767L313.376 304.077H248.115L239.565 364.429Z" fill="#B4B4B4"/>
<path d="M395.206 365.882H328.522C328.416 365.88 328.312 365.855 328.216 365.81C328.121 365.765 328.036 365.7 327.967 365.62C327.899 365.543 327.849 365.453 327.818 365.355C327.788 365.258 327.779 365.155 327.792 365.054L336.562 303.25C336.586 303.078 336.672 302.92 336.803 302.805C336.935 302.691 337.103 302.627 337.278 302.625H403.962C404.067 302.623 404.171 302.644 404.267 302.687C404.363 302.73 404.449 302.793 404.517 302.872C404.588 302.95 404.64 303.043 404.671 303.143C404.701 303.243 404.708 303.349 404.693 303.453L395.923 365.257C395.898 365.429 395.812 365.587 395.681 365.701C395.549 365.816 395.381 365.88 395.206 365.882ZM329.429 364.429H394.622L403.246 304.078H337.98L329.429 364.429Z" fill="#B4B4B4"/>
<path d="M290.728 417.636C290.269 417.642 289.814 417.558 289.395 417.389C288.976 417.22 288.602 416.97 288.3 416.656C287.998 416.335 287.776 415.957 287.65 415.55C287.524 415.143 287.498 414.715 287.572 414.298C287.722 413.436 288.201 412.65 288.925 412.077C289.649 411.504 290.572 411.182 291.532 411.167C291.989 411.161 292.442 411.244 292.861 411.411C293.279 411.577 293.654 411.823 293.959 412.132C294.262 412.453 294.483 412.831 294.606 413.239C294.729 413.647 294.752 414.074 294.672 414.491C294.529 415.354 294.055 416.143 293.333 416.719C292.611 417.295 291.688 417.619 290.728 417.636V417.636ZM291.532 412.546C290.94 412.569 290.375 412.773 289.928 413.127C289.481 413.48 289.18 413.961 289.074 414.491C289.032 414.715 289.044 414.944 289.109 415.163C289.175 415.383 289.292 415.586 289.453 415.76C289.614 415.921 289.811 416.05 290.031 416.135C290.251 416.221 290.488 416.262 290.728 416.256C291.321 416.235 291.887 416.029 292.332 415.672C292.777 415.315 293.073 414.83 293.17 414.298V414.298C293.215 414.077 293.205 413.85 293.142 413.633C293.079 413.416 292.964 413.215 292.806 413.043C292.646 412.881 292.449 412.753 292.229 412.667C292.009 412.581 291.771 412.54 291.532 412.546V412.546Z" fill="#B4B4B4"/>
<path d="M306.714 416.414C307.883 415.325 308.064 413.619 307.118 412.603C306.172 411.588 304.457 411.648 303.288 412.736C302.118 413.825 301.937 415.531 302.884 416.547C303.83 417.562 305.545 417.502 306.714 416.414Z" fill="#B4B4B4"/>
<path d="M319.524 416.314C320.691 415.228 320.871 413.526 319.927 412.513C318.983 411.5 317.272 411.559 316.106 412.645C314.939 413.732 314.759 415.434 315.703 416.447C316.647 417.46 318.358 417.4 319.524 416.314Z" fill="#B4B4B4"/>
<path d="M334.427 416.409C335.596 415.32 335.777 413.614 334.83 412.599C333.884 411.584 332.169 411.643 331 412.732C329.831 413.821 329.65 415.527 330.596 416.542C331.542 417.558 333.257 417.498 334.427 416.409Z" fill="#B4B4B4"/>
<path d="M281.024 171.08H269.598C269.397 171.08 269.205 171.004 269.063 170.869C268.921 170.734 268.841 170.552 268.841 170.361C268.841 170.17 268.921 169.987 269.063 169.853C269.205 169.718 269.397 169.642 269.598 169.642H281.024C281.224 169.642 281.417 169.718 281.559 169.853C281.7 169.987 281.78 170.17 281.78 170.361C281.78 170.552 281.7 170.734 281.559 170.869C281.417 171.004 281.224 171.08 281.024 171.08Z" fill="#B4B4B4"/>
<path d="M280.305 176.111H268.878C268.679 176.108 268.489 176.031 268.348 175.897C268.207 175.763 268.126 175.582 268.122 175.393C268.122 175.202 268.202 175.019 268.343 174.884C268.485 174.75 268.677 174.674 268.878 174.674H280.305C280.506 174.674 280.698 174.75 280.84 174.884C280.981 175.019 281.061 175.202 281.061 175.393C281.057 175.582 280.976 175.763 280.835 175.897C280.694 176.031 280.504 176.108 280.305 176.111Z" fill="#B4B4B4"/>
<path d="M279.586 181.143H268.16C267.959 181.143 267.767 181.067 267.625 180.933C267.483 180.798 267.403 180.615 267.403 180.424C267.407 180.235 267.488 180.054 267.629 179.92C267.77 179.786 267.961 179.709 268.16 179.706H279.586C279.786 179.706 279.979 179.781 280.121 179.916C280.263 180.051 280.342 180.234 280.342 180.424C280.342 180.615 280.263 180.798 280.121 180.933C279.979 181.067 279.786 181.143 279.586 181.143Z" fill="#B4B4B4"/>
<path d="M444.034 150.334L442.323 162.454H251.589L253.316 150.334C253.957 146.377 255.96 142.768 258.98 140.126C262.001 137.485 265.849 135.977 269.862 135.862H431.599C433.429 135.811 435.247 136.168 436.921 136.907C438.595 137.647 440.082 138.751 441.274 140.138C442.466 141.525 443.332 143.16 443.81 144.924C444.287 146.688 444.364 148.536 444.034 150.334Z" fill="#BB86FC"/>
<path d="M352.939 150.234H332.106C331.913 150.234 331.729 150.158 331.593 150.023C331.457 149.889 331.38 149.706 331.38 149.515C331.38 149.325 331.457 149.142 331.593 149.007C331.729 148.872 331.913 148.796 332.106 148.796H352.939C353.131 148.796 353.316 148.872 353.452 149.007C353.588 149.142 353.664 149.325 353.664 149.515C353.664 149.706 353.588 149.889 353.452 150.023C353.316 150.158 353.131 150.234 352.939 150.234Z" fill="white"/>
<path d="M363.735 150.234H360.124C359.937 150.23 359.758 150.153 359.626 150.019C359.493 149.885 359.417 149.705 359.414 149.515C359.414 149.325 359.488 149.142 359.622 149.007C359.755 148.872 359.936 148.796 360.124 148.796H363.735C363.923 148.796 364.104 148.872 364.237 149.007C364.37 149.142 364.445 149.325 364.445 149.515C364.445 149.706 364.37 149.889 364.237 150.023C364.104 150.158 363.923 150.234 363.735 150.234Z" fill="white"/>
<path d="M249.319 245.722L262.976 259.714C262.976 259.714 287.625 232.996 287.889 229.65C288.656 223.646 290.347 217.795 292.9 212.299C293.011 211.948 293.252 211.652 293.575 211.47C294.351 211.179 294.908 212.255 295.04 213.07C295.287 215.056 295.262 217.067 294.967 219.047C297.414 215.688 299.905 212.371 302.47 209.099C302.563 208.934 302.691 208.791 302.845 208.681C303 208.57 303.177 208.494 303.364 208.459C303.65 208.477 303.92 208.595 304.126 208.794C305.742 210.163 306.952 211.943 307.628 213.942C308.066 215.002 308.319 216.129 308.375 217.273C308.478 223.702 302.675 234.145 296.652 236.777C296.652 236.777 268.604 284.483 263.563 283.931C258.522 283.378 238.65 261.11 238.65 261.11L249.319 245.722Z" fill="#E7E7E7"/>
<path d="M263.586 284.654H263.469C258.305 284.072 240.151 263.868 238.089 261.568C237.987 261.44 237.931 261.281 237.931 261.117C237.931 260.953 237.987 260.794 238.089 260.666L248.797 245.28C248.859 245.193 248.94 245.121 249.034 245.068C249.127 245.015 249.231 244.983 249.338 244.974C249.446 244.964 249.554 244.979 249.655 245.017C249.757 245.054 249.848 245.114 249.923 245.192L263.015 258.628C272.479 248.307 287.005 231.757 287.21 229.516C287.974 223.441 289.661 217.517 292.213 211.946C292.304 211.684 292.446 211.442 292.632 211.234C292.818 211.027 293.043 210.858 293.295 210.738C293.501 210.658 293.723 210.626 293.943 210.644C294.164 210.661 294.377 210.729 294.568 210.84C294.906 211.095 295.184 211.419 295.384 211.791C295.583 212.163 295.699 212.574 295.724 212.994C295.858 214.164 295.912 215.341 295.885 216.517C297.83 213.868 299.82 211.233 301.838 208.657C301.996 208.404 302.21 208.189 302.463 208.031C302.717 207.872 303.003 207.772 303.301 207.74C303.76 207.759 304.199 207.934 304.544 208.235C306.259 209.663 307.557 211.523 308.304 213.62C308.766 214.762 309.033 215.972 309.094 217.201C309.196 223.65 303.623 234.29 297.157 237.303C292.213 245.731 269.013 284.654 263.586 284.654ZM239.552 261.029C247.495 269.894 260.177 282.864 263.615 283.198C266.628 283.198 282.324 259.472 295.885 236.357C295.963 236.223 296.08 236.117 296.221 236.051C302.145 233.46 307.602 223.242 307.499 217.216C307.452 216.15 307.219 215.101 306.812 214.115C306.172 212.247 305.04 210.583 303.535 209.297C303.345 209.137 303.272 209.108 303.243 209.108C303.122 209.212 303.014 209.329 302.921 209.457C300.375 212.718 297.859 216.066 295.431 219.414C295.335 219.547 295.197 219.644 295.038 219.689C294.88 219.734 294.711 219.725 294.559 219.662C294.406 219.6 294.28 219.489 294.199 219.346C294.119 219.203 294.089 219.037 294.115 218.875C294.405 216.947 294.429 214.988 294.188 213.053C294.166 212.674 294.004 212.316 293.734 212.048C293.621 212.18 293.537 212.334 293.486 212.5C290.968 217.926 289.301 223.704 288.541 229.632C288.234 233.053 267.594 255.644 263.454 260.2C263.316 260.343 263.127 260.427 262.927 260.433C262.728 260.419 262.538 260.343 262.386 260.214L249.382 246.852L239.552 261.029Z" fill="#141414"/>
<path d="M153.436 447.107C153.436 447.107 148.659 459.779 150.775 461.004C152.892 462.228 195.078 461.004 192.535 458.555C189.992 456.106 178.762 447.933 178.762 447.933" fill="#E7E7E7"/>
<path d="M160.429 462.203C155.044 462.203 150.994 462.017 150.378 461.66C148.089 460.331 150.877 451.815 152.725 446.857C152.798 446.68 152.937 446.537 153.115 446.457C153.292 446.377 153.494 446.367 153.679 446.428C153.859 446.495 154.005 446.629 154.085 446.8C154.164 446.971 154.172 447.166 154.105 447.342C151.757 453.644 150.363 459.759 151.17 460.445C154.105 461.717 187.045 460.217 191.535 458.702C188.439 455.916 178.329 448.571 178.329 448.5C178.252 448.444 178.187 448.373 178.138 448.292C178.089 448.212 178.057 448.122 178.043 448.029C178.016 447.842 178.066 447.651 178.183 447.5C178.299 447.348 178.473 447.248 178.666 447.221C178.858 447.194 179.054 447.243 179.21 447.357C179.664 447.685 190.508 455.616 193.046 458.088C193.23 458.254 193.342 458.482 193.361 458.725C193.38 458.969 193.304 459.211 193.149 459.402C191.579 461.274 172.592 462.203 160.429 462.203Z" fill="#141414"/>
<path d="M195.406 199.087C193.412 198.998 191.418 198.658 189.115 198.452C186.813 198.245 184.203 197.462 184.159 195.304C184.159 193.443 186.329 191.906 185.845 190.118C185.675 189.636 185.416 189.19 185.083 188.803C182.015 184.654 180.659 179.47 181.298 174.337C181.938 169.203 184.524 164.518 188.514 161.262C187.913 161.469 187.268 160.863 187.209 160.228C187.205 159.578 187.452 158.953 187.898 158.484C189.515 156.693 191.614 155.415 193.94 154.805C201.215 152.544 208.997 152.544 216.272 154.805C221.844 156.445 228.545 160.922 227.812 167.704C227.722 168.934 227.216 170.095 226.378 170.994C225.54 171.892 224.42 172.473 223.208 172.639C221.961 179.908 218.178 184.873 213.427 190.133C210.234 193.746 206.205 196.507 201.697 198.171C199.683 198.901 197.543 199.213 195.406 199.087V199.087Z" fill="#141414"/>
<path d="M196.336 199.833H195.427C194.239 199.833 193.08 199.641 191.834 199.493C190.968 199.39 190.074 199.287 189.106 199.198C185.63 198.903 183.533 197.458 183.489 195.334C183.545 194.318 183.891 193.34 184.486 192.517C184.97 191.706 185.381 191.042 185.205 190.334C185.072 189.983 184.878 189.659 184.633 189.376C181.516 185.25 180.045 180.102 180.509 174.942C180.973 169.781 183.339 164.982 187.141 161.486C186.805 161.154 186.593 160.717 186.54 160.247C186.523 159.828 186.589 159.41 186.735 159.018C186.881 158.625 187.104 158.266 187.39 157.961C189.09 156.099 191.283 154.763 193.711 154.112C201.126 151.816 209.056 151.816 216.471 154.112C223.012 156.029 229.274 160.999 228.526 167.784C228.412 169.08 227.898 170.308 227.057 171.297C226.216 172.285 225.089 172.986 223.833 173.3C222.367 180.762 218.172 185.925 213.963 190.585C210.698 194.281 206.571 197.104 201.953 198.8C200.154 199.469 198.253 199.818 196.336 199.833V199.833ZM188.461 160.542C188.603 160.54 188.742 160.576 188.866 160.646C188.989 160.716 189.092 160.817 189.165 160.94C189.254 161.089 189.29 161.264 189.266 161.436C189.242 161.608 189.16 161.766 189.033 161.884C185.197 165.019 182.713 169.523 182.098 174.455C181.484 179.387 182.786 184.368 185.733 188.358C186.13 188.813 186.429 189.345 186.613 189.921C186.709 190.505 186.681 191.102 186.532 191.673C186.383 192.245 186.116 192.779 185.748 193.24C185.313 193.838 185.04 194.539 184.956 195.275C184.956 197.237 188.534 197.635 189.238 197.709C190.206 197.709 191.13 197.9 192.01 198.004C193.212 198.151 194.356 198.284 195.5 198.328C197.527 198.453 199.557 198.162 201.469 197.473C205.857 195.865 209.778 193.184 212.878 189.671C218.099 183.904 221.34 179.258 222.484 172.577C222.511 172.41 222.594 172.257 222.719 172.144C222.845 172.031 223.005 171.965 223.173 171.957C224.206 171.794 225.154 171.284 225.862 170.51C226.57 169.736 226.997 168.744 227.074 167.695C227.807 160.925 220.489 156.899 216.061 155.601C208.927 153.395 201.299 153.395 194.165 155.601C191.994 156.158 190.034 157.348 188.534 159.023C188.208 159.343 188.014 159.775 187.991 160.232C188.004 160.306 188.031 160.377 188.072 160.441C188.112 160.504 188.164 160.559 188.226 160.601L188.461 160.542Z" fill="#141414"/>
<path d="M165.938 241.659C165.938 241.659 150.544 273.348 151.737 283.058C152.93 292.768 184.737 288.943 184.737 288.943L183.064 240.806L165.938 241.659Z" fill="#E7E7E7"/>
<path d="M171.604 290.405C170.644 290.405 169.654 290.405 168.694 290.405C157.548 290.056 151.597 287.647 151.029 283.265C149.763 273.587 164.664 243.317 165.289 242.04C165.349 241.924 165.439 241.826 165.548 241.755C165.658 241.683 165.784 241.642 165.915 241.634L183.041 240.807C183.137 240.802 183.232 240.816 183.322 240.848C183.412 240.88 183.495 240.93 183.565 240.995C183.638 241.058 183.697 241.136 183.737 241.224C183.777 241.312 183.798 241.407 183.798 241.503L185.457 288.924C185.462 289.107 185.399 289.285 185.281 289.424C185.163 289.563 184.998 289.654 184.816 289.679C180.427 290.143 176.018 290.385 171.604 290.405V290.405ZM166.395 243.012C164.649 246.597 151.32 274.341 152.455 283.033C153.445 290.172 174.907 289.302 184.001 288.3L182.357 242.287L166.395 243.012Z" fill="#141414"/>
<path d="M227.868 440.806L228.693 461.477C228.693 461.477 266.649 461.757 264.435 458.937C262.22 456.117 245.036 443.685 245.036 443.685L242.272 428.418L227.868 440.806Z" fill="#E7E7E7"/>
<path d="M233.567 462.203H228.696C228.509 462.203 228.33 462.129 228.195 461.998C228.06 461.866 227.981 461.686 227.973 461.496L227.149 440.868C227.145 440.757 227.165 440.647 227.208 440.545C227.25 440.443 227.314 440.352 227.395 440.278L241.85 427.872C241.947 427.79 242.063 427.735 242.187 427.712C242.311 427.688 242.439 427.698 242.558 427.739C242.675 427.786 242.778 427.862 242.859 427.959C242.94 428.057 242.995 428.174 243.02 428.299L245.738 443.24C247.906 444.816 262.866 455.705 265.006 458.431C265.132 458.587 265.212 458.776 265.238 458.977C265.264 459.178 265.233 459.382 265.15 459.565C264.052 461.775 246.634 462.203 233.567 462.203ZM229.39 460.729C244.61 460.818 260.828 460.228 263.546 459.064C261.117 456.471 250.248 448.382 244.596 444.33C244.52 444.278 244.455 444.21 244.406 444.132C244.356 444.053 244.322 443.965 244.307 443.873L241.763 429.891L228.609 441.251L229.39 460.729Z" fill="#141414"/>
<path d="M234.611 297.593L249.433 446.368L224.889 446.923L197.008 341.817L181.559 447.827L153.11 446.368C153.11 446.368 158.065 387.194 160.645 364.688C163.225 342.182 167.218 303.223 167.218 303.223L234.611 297.593Z" fill="#686868"/>
<path d="M225.23 183.3C225.23 183.3 230.314 191.608 229.126 193.244C227.938 194.88 224.274 193.617 224.274 193.617" fill="#E7E7E7"/>
<path d="M226.912 194.79C225.912 194.772 224.92 194.604 223.972 194.291C223.81 194.216 223.682 194.085 223.612 193.924C223.542 193.763 223.536 193.583 223.594 193.418C223.652 193.253 223.77 193.114 223.927 193.028C224.083 192.942 224.267 192.914 224.443 192.95C225.501 193.293 227.868 193.721 228.529 192.822C229.191 191.924 227.133 187.874 224.546 183.738C224.48 183.659 224.433 183.567 224.408 183.468C224.382 183.37 224.378 183.267 224.397 183.167C224.416 183.067 224.456 182.972 224.516 182.889C224.575 182.805 224.652 182.735 224.742 182.683C224.832 182.63 224.932 182.597 225.036 182.586C225.14 182.574 225.246 182.584 225.345 182.615C225.445 182.646 225.537 182.698 225.614 182.766C225.692 182.834 225.754 182.918 225.795 183.011C227.427 185.606 231.073 191.852 229.735 193.663C229.39 194.055 228.954 194.361 228.463 194.556C227.973 194.752 227.441 194.832 226.912 194.79V194.79Z" fill="#141414"/>
<path d="M224.828 172.105C228.202 175.024 226.955 181.007 226.779 184.89C226.515 190.348 226.134 195.806 225.635 201.264C225.312 204.709 216.291 204.446 214.736 203.351L215.631 217.085L196.958 209.131L198.176 193.354C198.176 193.354 204.131 193.617 207.93 186.699C211.729 179.782 211.993 168.923 211.993 168.923C211.993 168.923 221.543 169.215 224.828 172.105Z" fill="#E7E7E7"/>
<path d="M215.63 217.787C215.534 217.809 215.434 217.809 215.337 217.787L196.694 209.84C196.554 209.778 196.435 209.675 196.354 209.545C196.273 209.415 196.233 209.264 196.24 209.111L197.457 193.348C197.472 193.159 197.559 192.984 197.702 192.859C197.844 192.734 198.029 192.669 198.219 192.677C198.438 192.677 203.773 192.808 207.291 186.406C210.955 179.728 211.263 169.083 211.263 168.908C211.264 168.811 211.286 168.716 211.326 168.628C211.367 168.541 211.425 168.462 211.497 168.398C211.565 168.328 211.648 168.276 211.739 168.243C211.831 168.21 211.928 168.198 212.025 168.208C212.42 168.208 221.859 168.543 225.303 171.576C228.381 174.274 227.971 179.013 227.648 182.834C227.648 183.563 227.531 184.292 227.502 184.919C227.238 190.358 226.857 195.87 226.358 201.309C226.269 201.889 226.021 202.432 225.641 202.88C225.261 203.328 224.763 203.662 224.204 203.847C221.428 204.848 218.42 205.03 215.542 204.372L216.392 216.97C216.398 217.069 216.384 217.167 216.351 217.26C216.318 217.352 216.266 217.437 216.199 217.509C216.132 217.581 216.051 217.639 215.961 217.68C215.87 217.72 215.773 217.742 215.674 217.743L215.63 217.787ZM197.75 208.644L214.809 215.935L214.018 203.395C214.002 203.257 214.029 203.118 214.094 202.995C214.16 202.873 214.261 202.773 214.384 202.709C214.5 202.635 214.635 202.596 214.773 202.596C214.911 202.596 215.045 202.635 215.161 202.709C217.915 203.561 220.873 203.5 223.588 202.534C224.409 202.17 224.849 201.703 224.893 201.076C225.406 195.666 225.787 190.169 226.036 184.759C226.036 184.088 226.124 183.3 226.183 182.601C226.49 179.115 226.857 174.785 224.336 172.568C221.786 170.322 214.941 169.739 212.699 169.652C212.567 172.262 211.878 180.982 208.581 187.004C205.283 193.027 200.652 193.858 198.864 194.004L197.75 208.644Z" fill="#141414"/>
<path d="M253.027 246.723C253.027 246.723 230.979 223.481 222.263 214.739C214.162 206.641 190.606 199.273 179.882 210.88C179.882 210.88 162.303 235.424 158.86 249.691L169.115 255.991C166.87 272.898 165.55 289.914 165.16 306.964C184.614 322.313 234.349 297.463 234.349 297.463L229.851 262.379L237.894 270.419L253.027 246.723Z" fill="#1FBCFF"/>
<path d="M223.084 198.395C222.588 198.392 222.095 198.329 221.62 198.206C220.937 197.996 220.313 197.663 219.791 197.23C219.268 196.797 218.86 196.273 218.591 195.694C218.551 195.619 218.528 195.538 218.524 195.455C218.52 195.373 218.535 195.29 218.569 195.213C218.602 195.135 218.653 195.064 218.718 195.003C218.783 194.942 218.862 194.893 218.949 194.859C219.037 194.824 219.131 194.805 219.228 194.801C219.324 194.798 219.42 194.811 219.51 194.84C219.601 194.868 219.684 194.912 219.754 194.968C219.825 195.024 219.882 195.091 219.923 195.166C220.112 195.581 220.399 195.957 220.767 196.27C221.135 196.584 221.575 196.828 222.059 196.988C223.167 197.217 224.334 197.088 225.337 196.624C225.509 196.547 225.708 196.53 225.894 196.577C226.08 196.624 226.237 196.73 226.332 196.875C226.381 196.945 226.412 197.023 226.425 197.105C226.437 197.186 226.43 197.268 226.404 197.347C226.378 197.426 226.333 197.499 226.273 197.563C226.213 197.626 226.139 197.679 226.054 197.717C225.142 198.145 224.123 198.377 223.084 198.395V198.395Z" fill="#141414"/>
<path d="M214.929 186.479C214.827 185.09 214.341 183.756 213.526 182.626C213.029 181.671 212.386 180.799 211.62 180.042C211.236 179.66 210.772 179.369 210.26 179.19C209.749 179.011 209.204 178.949 208.665 179.009C208.197 179.11 207.756 179.308 207.369 179.59C206.982 179.873 206.659 180.233 206.42 180.648C205.962 181.485 205.69 182.412 205.622 183.364C205.457 185.437 205.838 187.517 206.727 189.398C207.616 191.278 208.982 192.893 210.689 194.082L210.394 193.743" fill="#E7E7E7"/>
<path d="M210.721 194.8C210.572 194.801 210.427 194.755 210.307 194.667C208.485 193.4 207.028 191.678 206.081 189.673C205.133 187.668 204.728 185.45 204.906 183.24C204.986 182.2 205.295 181.191 205.809 180.283C206.094 179.775 206.486 179.334 206.959 178.992C207.432 178.65 207.973 178.415 208.546 178.302C209.196 178.22 209.856 178.286 210.476 178.496C211.096 178.706 211.661 179.055 212.126 179.515C212.942 180.306 213.631 181.219 214.168 182.22C215.054 183.471 215.567 184.947 215.648 186.477C215.648 186.673 215.57 186.861 215.431 187C215.292 187.139 215.104 187.217 214.908 187.217C214.712 187.217 214.524 187.139 214.385 187C214.246 186.861 214.168 186.673 214.168 186.477C214.067 185.221 213.616 184.017 212.866 183.003C212.404 182.116 211.811 181.304 211.105 180.594C210.8 180.292 210.433 180.061 210.029 179.915C209.626 179.77 209.195 179.714 208.768 179.751C208.404 179.83 208.062 179.986 207.764 180.208C207.465 180.43 207.217 180.712 207.037 181.037C206.63 181.774 206.393 182.592 206.341 183.432C206.198 185.248 206.499 187.072 207.218 188.746C207.937 190.42 209.053 191.894 210.469 193.041C210.658 193.061 210.832 193.15 210.957 193.292L211.253 193.632C211.372 193.767 211.437 193.941 211.437 194.12C211.437 194.3 211.372 194.473 211.253 194.608C211.182 194.673 211.098 194.724 211.006 194.757C210.915 194.79 210.818 194.805 210.721 194.8V194.8Z" fill="#141414"/>
<path d="M230.718 265.245C230.52 265.244 230.33 265.163 230.19 265.019C224.586 259.084 219.299 252.842 214.352 246.323C214.238 246.162 214.191 245.962 214.218 245.766C214.245 245.569 214.346 245.391 214.498 245.269C214.654 245.149 214.85 245.098 215.042 245.126C215.235 245.154 215.409 245.26 215.526 245.42C220.436 251.893 225.684 258.089 231.246 263.98C231.315 264.049 231.369 264.131 231.406 264.221C231.443 264.312 231.462 264.409 231.462 264.507C231.462 264.605 231.443 264.702 231.406 264.793C231.369 264.883 231.315 264.965 231.246 265.034C231.178 265.106 231.095 265.161 231.004 265.198C230.913 265.234 230.816 265.25 230.718 265.245V265.245Z" fill="#141414"/>
<path d="M196.264 339.284C196.097 339.292 195.934 339.235 195.807 339.125C195.436 338.82 186.938 331.474 186.895 319.882C186.895 319.693 186.968 319.51 187.099 319.375C187.23 319.24 187.408 319.162 187.595 319.158C187.688 319.158 187.78 319.177 187.866 319.213C187.952 319.25 188.03 319.303 188.095 319.371C188.16 319.438 188.211 319.518 188.246 319.606C188.28 319.694 188.297 319.788 188.295 319.882C188.295 330.793 196.621 337.951 196.707 338.009C196.851 338.135 196.94 338.313 196.956 338.506C196.972 338.698 196.913 338.889 196.792 339.038C196.725 339.113 196.644 339.173 196.553 339.216C196.462 339.258 196.364 339.281 196.264 339.284V339.284Z" fill="#141414"/>
<path d="M223.105 179.385C223.326 178.326 223.166 177.398 222.748 177.31C222.329 177.223 221.81 178.01 221.589 179.068C221.367 180.126 221.527 181.055 221.946 181.142C222.365 181.23 222.884 180.443 223.105 179.385Z" fill="#141414"/>
<path d="M168.967 251.588H168.844C168.644 251.552 168.466 251.444 168.349 251.285C168.231 251.127 168.183 250.931 168.214 250.739C168.383 249.669 172.697 224.447 177.549 216.024C177.597 215.939 177.662 215.865 177.741 215.804C177.82 215.744 177.911 215.699 178.009 215.673C178.106 215.647 178.208 215.641 178.308 215.653C178.409 215.666 178.505 215.697 178.593 215.746C178.681 215.79 178.76 215.852 178.823 215.926C178.886 216 178.932 216.085 178.96 216.177C178.987 216.269 178.994 216.365 178.981 216.46C178.968 216.554 178.935 216.645 178.884 216.728C174.171 224.93 169.765 250.709 169.673 250.973C169.648 251.138 169.564 251.289 169.435 251.401C169.307 251.514 169.141 251.58 168.967 251.588V251.588Z" fill="#141414"/>
<path d="M444.202 364.801C444.387 362.034 443.802 359.27 442.512 356.819C441.449 355.046 439.817 353.64 438.943 351.765C437.486 348.514 438.492 344.691 438.142 341.132C437.826 338.145 436.517 335.354 434.427 333.208C432.577 331.333 430.188 330.029 428.41 328.067C425.497 324.844 424.681 320.318 423.035 316.349C420.673 310.662 416.597 305.862 411.38 302.625C414.541 309.026 407.33 317.169 410.608 323.512C411.642 325.533 413.609 326.997 414.381 329.136C416.202 334.277 410.098 339.858 412.05 344.969C413.026 347.518 415.75 348.997 417.018 351.414C418.722 354.666 417.382 358.635 417.513 362.311C417.702 367.394 420.776 371.934 424.433 375.493C426.706 377.676 429.241 379.58 431.717 381.557C434.631 383.93 435.898 386.405 438.477 382.612C442.07 377.362 444.06 371.172 444.202 364.801Z" fill="#02DAC5"/>
<path d="M447.391 367.48C446.424 363.564 445.739 359.298 447.391 355.602C449.222 351.423 453.821 348.457 454.357 343.913C454.714 340.991 453.181 337.938 453.776 335.016C454.371 332.094 456.753 330.092 458.822 327.93C463.447 322.939 466.198 316.548 466.621 309.813C469.724 313.427 472.235 317.494 474.062 321.867C475.64 326.323 475.67 331.553 472.976 335.469C472.207 336.379 471.576 337.392 471.101 338.479C470.193 341.401 472.708 344.06 474.003 346.806C474.773 348.37 475.096 350.109 474.936 351.839C474.776 353.568 474.14 355.223 473.095 356.624C470.446 359.853 465.37 361.11 464.061 365.04C463.74 366.509 463.59 368.008 463.614 369.51C463.333 372.112 462.268 374.572 460.556 376.576C458.843 378.58 456.56 380.037 453.999 380.76C450.889 381.505 450.948 380.293 450.383 377.707C449.594 374.259 448.269 370.913 447.391 367.48Z" fill="#02DAC5"/>
<path d="M437.837 339.481C435.69 332 434.84 324.17 432.578 316.717C430.652 310.894 428.301 305.223 425.546 299.75L434.753 303.657C437.707 304.921 440.906 306.403 442.304 309.308C444.725 314.378 440.373 320.93 442.924 325.884C444.027 327.51 445.245 329.054 446.569 330.503C449.278 334.339 448.86 339.627 447.376 344.086C446.728 346.004 443.947 355.941 441.454 353.18C440.445 352.076 440.359 347.965 439.941 346.454C439.292 344.115 438.514 341.82 437.837 339.481Z" fill="#02DAC5"/>
<path d="M443.43 439.201C441.534 426.94 435.61 383.7 435.61 383.322L437.091 383.133C437.091 383.569 443.015 426.766 444.955 438.983L443.43 439.201Z" fill="#141414"/>
<path d="M444.979 450.703H443.518C443.634 436.134 449.712 380.481 453.219 376.664L454.3 377.655C451.962 380.175 445.125 430.744 444.979 450.703Z" fill="#141414"/>
<path d="M448.351 448.547H446.854C448.351 417.045 441.435 350.886 441.36 350.229L442.857 350.068C442.932 350.681 449.788 416.942 448.351 448.547Z" fill="#141414"/>
<path d="M426.984 403.979H461.488L459.081 443.554C458.661 450.413 453.63 455.734 447.57 455.734H440.901C434.841 455.734 429.825 450.413 429.405 443.554L426.984 403.979Z" fill="#B4B4B4"/>
<path d="M447.559 456.453H440.901C434.489 456.453 429.119 450.803 428.671 443.586L426.268 404.065C426.26 403.962 426.273 403.859 426.307 403.761C426.34 403.664 426.393 403.574 426.463 403.499C426.532 403.423 426.616 403.363 426.71 403.322C426.803 403.281 426.904 403.259 427.006 403.26H461.454C461.661 403.263 461.858 403.347 462.004 403.494C462.14 403.652 462.212 403.856 462.207 404.065L459.79 443.586C459.355 450.788 453.986 456.453 447.559 456.453ZM427.802 404.738L430.161 443.469C430.552 449.895 435.271 454.916 440.901 454.916H447.559C453.189 454.916 457.908 449.895 458.299 443.469L460.658 404.709L427.802 404.738Z" fill="#141414"/>
<path d="M461.886 267.403H390.324L406.459 147.359H478.021L461.886 267.403Z" fill="#1D1D1D"/>
<path d="M461.897 268.122H390.33C390.227 268.123 390.125 268.101 390.032 268.058C389.938 268.015 389.855 267.952 389.789 267.874C389.718 267.799 389.665 267.708 389.634 267.61C389.604 267.511 389.597 267.407 389.613 267.305L405.706 147.268C405.733 147.094 405.822 146.935 405.956 146.821C406.09 146.706 406.26 146.642 406.437 146.641H478.004C478.109 146.642 478.213 146.664 478.308 146.707C478.404 146.749 478.49 146.811 478.56 146.889C478.692 147.053 478.755 147.263 478.736 147.472L462.643 267.494C462.615 267.671 462.524 267.831 462.387 267.947C462.251 268.062 462.077 268.124 461.897 268.122ZM391.164 266.663H461.254L477.2 148.1H407.11L391.164 266.663Z" fill="#141414"/>
<path d="M449.73 249.43H408.704C408.024 249.447 407.348 249.311 406.726 249.033C406.104 248.755 405.55 248.341 405.105 247.822C404.66 247.303 404.334 246.69 404.151 246.029C403.968 245.368 403.933 244.674 404.047 243.997L404.602 239.771C404.833 238.288 405.571 236.933 406.688 235.941C407.805 234.949 409.231 234.382 410.719 234.338H451.73C452.411 234.319 453.088 234.453 453.712 234.73C454.336 235.008 454.89 235.421 455.336 235.941C455.782 236.461 456.107 237.075 456.289 237.737C456.471 238.399 456.505 239.094 456.388 239.771L455.833 243.997C455.608 245.48 454.873 246.837 453.758 247.83C452.643 248.823 451.217 249.389 449.73 249.43V249.43Z" fill="#BB86FC"/>
<path d="M452.594 227.865H411.583C410.901 227.884 410.224 227.75 409.601 227.473C408.977 227.195 408.422 226.782 407.977 226.262C407.531 225.742 407.206 225.129 407.024 224.466C406.842 223.804 406.808 223.109 406.925 222.432L407.48 218.206C407.706 216.72 408.442 215.362 409.56 214.369C410.679 213.376 412.108 212.811 413.597 212.773H454.608C455.289 212.757 455.965 212.892 456.587 213.17C457.209 213.449 457.763 213.862 458.208 214.381C458.653 214.901 458.979 215.513 459.162 216.174C459.345 216.835 459.38 217.529 459.266 218.206L458.711 222.432C458.48 223.915 457.742 225.27 456.625 226.262C455.508 227.254 454.082 227.821 452.594 227.865Z" fill="#1D1D1D"/>
<path d="M452.59 228.585H411.586C410.808 228.599 410.036 228.443 409.323 228.128C408.61 227.813 407.972 227.346 407.455 226.76C406.944 226.158 406.567 225.452 406.35 224.69C406.133 223.928 406.082 223.128 406.2 222.344L406.769 218.119C407.024 216.462 407.848 214.948 409.096 213.839C410.344 212.731 411.938 212.1 413.6 212.054H454.604C455.382 212.04 456.155 212.196 456.868 212.511C457.581 212.826 458.218 213.293 458.735 213.879C459.245 214.482 459.621 215.189 459.837 215.95C460.054 216.712 460.106 217.512 459.991 218.296L459.421 222.52C459.166 224.178 458.342 225.692 457.094 226.8C455.846 227.908 454.252 228.54 452.59 228.585V228.585ZM413.6 213.497C412.289 213.533 411.032 214.031 410.048 214.905C409.064 215.779 408.415 216.974 408.214 218.281L407.645 222.506C407.555 223.086 407.589 223.68 407.745 224.246C407.901 224.812 408.176 225.338 408.55 225.788C408.932 226.216 409.401 226.556 409.925 226.785C410.449 227.014 411.015 227.126 411.586 227.113H452.59C453.903 227.077 455.161 226.576 456.146 225.699C457.13 224.822 457.778 223.624 457.976 222.314L458.545 218.09C458.636 217.508 458.601 216.913 458.442 216.347C458.284 215.78 458.005 215.255 457.626 214.807C457.245 214.383 456.778 214.046 456.256 213.82C455.735 213.594 455.171 213.484 454.604 213.497H413.6Z" fill="#B4B4B4"/>
<path d="M455.47 205.582H414.468C413.787 205.601 413.11 205.467 412.486 205.19C411.862 204.912 411.306 204.499 410.86 203.98C410.413 203.46 410.086 202.847 409.902 202.185C409.719 201.522 409.683 200.827 409.798 200.149L410.367 195.924C410.589 194.439 411.323 193.081 412.438 192.088C413.554 191.094 414.981 190.529 416.468 190.49H457.47C458.151 190.472 458.829 190.606 459.453 190.883C460.077 191.16 460.632 191.574 461.079 192.093C461.525 192.613 461.852 193.226 462.036 193.888C462.22 194.55 462.255 195.246 462.141 195.924L461.571 200.149C461.349 201.634 460.616 202.991 459.5 203.985C458.385 204.978 456.958 205.544 455.47 205.582V205.582Z" fill="#1D1D1D"/>
<path d="M455.466 206.301H414.474C413.688 206.321 412.907 206.165 412.188 205.845C411.469 205.525 410.829 205.049 410.314 204.451C409.799 203.852 409.422 203.147 409.211 202.384C408.999 201.622 408.957 200.822 409.089 200.042L409.643 195.825C409.902 194.172 410.726 192.662 411.973 191.557C413.22 190.451 414.812 189.819 416.473 189.771H457.466C458.252 189.751 459.032 189.907 459.751 190.227C460.471 190.547 461.111 191.023 461.625 191.621C462.14 192.22 462.517 192.925 462.729 193.688C462.941 194.45 462.982 195.25 462.851 196.03L462.296 200.247C462.038 201.9 461.214 203.41 459.967 204.515C458.719 205.621 457.127 206.253 455.466 206.301V206.301ZM416.473 191.241C415.161 191.28 413.904 191.781 412.921 192.655C411.937 193.53 411.289 194.724 411.088 196.03L410.534 200.247C410.445 200.825 410.48 201.414 410.636 201.977C410.792 202.539 411.065 203.062 411.438 203.509C411.82 203.936 412.289 204.276 412.813 204.504C413.337 204.732 413.903 204.844 414.474 204.832H455.466C456.778 204.792 458.035 204.291 459.019 203.417C460.002 202.542 460.651 201.348 460.851 200.042L461.391 195.825C461.494 195.253 461.468 194.664 461.316 194.104C461.163 193.543 460.888 193.024 460.51 192.584C460.132 192.144 459.661 191.795 459.132 191.563C458.603 191.33 458.028 191.22 457.451 191.241H416.473Z" fill="#B4B4B4"/>
<path d="M459.075 183.299H418.05C417.369 183.315 416.693 183.18 416.071 182.901C415.449 182.623 414.895 182.21 414.45 181.69C414.005 181.171 413.679 180.559 413.496 179.898C413.313 179.236 413.278 178.543 413.392 177.866L413.947 173.64C414.175 172.156 414.913 170.799 416.03 169.806C417.148 168.814 418.576 168.248 420.064 168.207H461.075C461.757 168.188 462.434 168.322 463.057 168.599C463.681 168.876 464.236 169.29 464.681 169.81C465.127 170.33 465.453 170.943 465.634 171.606C465.816 172.268 465.85 172.963 465.733 173.64L465.178 177.866C464.953 179.349 464.219 180.705 463.103 181.698C461.988 182.691 460.562 183.258 459.075 183.299Z" fill="#1D1D1D"/>
<path d="M458.455 184.016H417.436C416.641 184.045 415.849 183.896 415.117 183.581C414.385 183.266 413.732 182.792 413.203 182.192C412.694 181.589 412.319 180.884 412.102 180.123C411.886 179.362 411.833 178.564 411.948 177.781L412.517 173.561C412.769 171.903 413.591 170.386 414.84 169.277C416.088 168.167 417.684 167.533 419.349 167.487H460.353C461.132 167.472 461.904 167.626 462.618 167.941C463.331 168.256 463.968 168.723 464.484 169.311C464.995 169.912 465.372 170.618 465.589 171.379C465.805 172.14 465.857 172.939 465.739 173.722L465.185 177.943C464.933 179.583 464.125 181.084 462.898 182.191C461.671 183.299 460.101 183.943 458.455 184.016V184.016ZM419.407 168.943C418.095 168.983 416.837 169.484 415.854 170.359C414.87 171.235 414.221 172.43 414.02 173.737L413.466 177.957C413.363 178.529 413.389 179.116 413.541 179.676C413.692 180.236 413.966 180.755 414.343 181.195C414.719 181.635 415.188 181.984 415.716 182.218C416.244 182.451 416.816 182.563 417.393 182.545H458.455C459.764 182.506 461.017 182.006 461.998 181.133C462.98 180.261 463.627 179.069 463.827 177.766L464.396 173.546C464.486 172.966 464.452 172.373 464.296 171.808C464.14 171.242 463.866 170.717 463.491 170.267C463.109 169.839 462.641 169.5 462.117 169.271C461.593 169.043 461.026 168.931 460.455 168.943H419.407Z" fill="#B4B4B4"/>
<path d="M457.16 159.579H425.561C425.367 159.579 425.18 159.503 425.042 159.368C424.905 159.233 424.828 159.051 424.828 158.86C424.831 158.67 424.91 158.49 425.047 158.356C425.183 158.222 425.368 158.145 425.561 158.141H457.16C457.355 158.141 457.541 158.217 457.679 158.352C457.816 158.486 457.894 158.669 457.894 158.86C457.894 158.954 457.875 159.048 457.838 159.135C457.801 159.222 457.747 159.301 457.679 159.368C457.611 159.435 457.53 159.488 457.441 159.524C457.352 159.56 457.257 159.579 457.16 159.579Z" fill="#B4B4B4"/>
</svg>
