<svg width="645" height="579" viewBox="0 0 645 579" fill="none" xmlns="http://www.w3.org/2000/svg">
<g clip-path="url(#clip0_545_1731)">
<path opacity="0.1" d="M123.761 143.644C170.669 95.8126 207.37 30.438 262.233 8.3216C317.096 -13.27 390.347 8.99634 461.347 50.3053C532.346 91.1644 601.469 151.066 629.989 229.486C658.509 307.905 646.801 405.367 593.889 461.82C540.977 518.199 447.012 532.968 365.655 551.635C283.923 569.703 215.475 591.145 163.614 570.678C111.753 550.211 76.178 487.685 45.8569 427.934C15.0103 367.957 -10.8827 310.229 4.65311 266.296C20.1889 222.288 76.7784 192 123.761 143.644Z" fill="#7D7D7D"/>
<path d="M513.133 319.976H201.366V334.595H243.245V470.067H257.43V334.67H456.844V470.142H471.029V334.67H513.133V319.976Z" fill="#1D1D1D"/>
<path d="M348.243 287.363H331.582V304.607C331.582 314.428 333.308 319.976 342.089 319.976H348.243" fill="#7CC7D1"/>
<path d="M348.243 287.363H331.582V304.607C331.582 314.428 333.308 319.976 342.089 319.976H348.243" stroke="#141414" stroke-linecap="round" stroke-linejoin="round"/>
<path d="M358.375 305.731C359.501 305.656 360.552 305.206 361.377 304.382C362.128 303.557 362.578 302.507 362.578 301.383C362.578 300.258 362.128 299.209 361.377 298.384C360.627 297.559 359.501 297.11 358.375 297.035V293.736C360.401 293.736 362.353 294.561 363.779 295.985C365.205 297.409 366.03 299.359 366.03 301.383C366.03 303.407 365.205 305.356 363.779 306.781C362.353 308.205 360.401 309.03 358.375 309.03" fill="#231F1F"/>
<path d="M358.375 305.731C359.501 305.656 360.552 305.206 361.377 304.382C362.128 303.557 362.578 302.507 362.578 301.383C362.578 300.258 362.128 299.209 361.377 298.384C360.627 297.559 359.501 297.11 358.375 297.035V293.736C360.401 293.736 362.353 294.561 363.779 295.985C365.205 297.409 366.03 299.359 366.03 301.383C366.03 303.407 365.205 305.356 363.779 306.781C362.353 308.205 360.401 309.03 358.375 309.03" fill="#7CC7D1"/>
<path d="M358.375 305.731C359.501 305.656 360.552 305.206 361.377 304.382C362.128 303.557 362.578 302.507 362.578 301.383C362.578 300.258 362.128 299.209 361.377 298.384C360.627 297.559 359.501 297.11 358.375 297.035V293.736C360.401 293.736 362.353 294.561 363.779 295.985C365.205 297.409 366.03 299.359 366.03 301.383C366.03 303.407 365.205 305.356 363.779 306.781C362.353 308.205 360.401 309.03 358.375 309.03" stroke="#141414" stroke-linecap="round" stroke-linejoin="round"/>
<path d="M341.863 287.363H358.525V304.607C358.525 314.428 356.799 319.976 348.018 319.976H341.863" fill="#7CC7D1"/>
<path d="M341.863 287.363H358.525V304.607C358.525 314.428 356.799 319.976 348.018 319.976H341.863" stroke="#141414" stroke-linecap="round" stroke-linejoin="round"/>
<path d="M220.129 197.698C220.129 197.698 217.277 193.5 214.199 184.428C211.122 175.357 212.323 142.97 212.323 142.97C212.323 141.845 211.798 140.72 211.047 139.896C210.072 139.071 208.721 135.997 208.045 133.373L205.944 125.501L203.017 119.504C203.017 119.504 200.015 114.631 201.29 113.806C202.566 112.981 205.268 118.379 205.268 118.379C205.268 118.379 208.345 123.927 208.871 123.852C209.396 123.777 207.445 119.354 206.694 116.805C205.944 114.256 203.767 108.033 205.568 107.808C207.37 107.583 208.045 111.632 208.946 114.406C209.771 117.18 211.347 121.903 212.023 121.828C212.698 121.828 210.597 115.155 209.996 113.056C209.396 110.957 207.069 105.709 208.721 105.034C210.372 104.36 212.248 109.683 212.848 111.482C213.449 113.281 215.25 120.178 215.851 120.103C216.451 120.029 215.625 112.981 215.25 110.807C214.875 108.708 213.899 105.259 215.4 105.184C216.901 105.109 217.202 108.108 218.327 112.082L220.954 121.303C220.954 121.303 221.93 126.701 222.906 126.551C223.881 126.401 226.133 121.303 227.108 119.729C228.084 118.154 230.261 117.03 230.711 118.079C231.086 119.129 228.76 122.503 228.459 124.002C228.084 125.501 227.409 128.125 226.808 130.974C226.208 133.823 224.332 136.222 223.506 137.572C222.68 138.921 221.705 139.896 221.93 141.245C221.93 141.245 226.058 174.682 227.784 180.005C229.435 185.328 236.265 191.701 236.265 191.701" fill="#E7E7E7"/>
<path d="M295.706 449.226L292.929 459.721L300.284 461.146L310.792 459.646L310.416 450.35" fill="#E7E7E7"/>
<path d="M284.224 207.144C283.323 205.57 283.398 202.646 283.398 202.646L282.497 202.421C295.481 196.049 293.98 168.459 293.98 168.459L263.284 162.237L261.182 171.758C261.182 171.758 260.957 173.482 260.882 176.106C260.207 176.106 256.604 176.106 257.355 180.305C258.03 184.878 261.182 185.403 261.182 185.403C261.182 185.403 261.333 184.878 261.408 185.553C262.083 190.726 263.659 196.199 267.037 199.722C267.037 201.222 266.961 204.37 266.136 205.12C265.01 206.095 260.957 205.495 260.957 205.495C260.957 205.495 248.273 218.915 275.442 223.638C302.611 228.361 290.903 210.368 290.903 210.368C290.903 210.368 285.049 208.719 284.224 207.144Z" fill="#E7E7E7"/>
<path d="M273.19 182.254C273.641 182.254 273.941 181.879 273.941 181.505C273.941 181.055 273.566 180.755 273.19 180.755C272.74 180.755 272.44 181.13 272.44 181.505C272.44 181.954 272.815 182.254 273.19 182.254Z" fill="#231F1F" stroke="#141414" stroke-linecap="round" stroke-linejoin="round"/>
<path d="M285.124 182.779C285.574 182.779 285.874 182.404 285.874 182.029C285.874 181.58 285.499 181.28 285.124 181.28C284.674 181.28 284.373 181.655 284.373 182.029C284.298 182.404 284.674 182.779 285.124 182.779Z" fill="#231F1F" stroke="#141414" stroke-linecap="round" stroke-linejoin="round"/>
<path d="M270.864 166.81C270.864 166.81 285.799 171.833 295.256 169.809C304.637 167.785 306.214 154.065 299.609 149.717C293.079 145.368 284.974 150.616 284.974 150.616C284.974 150.616 280.771 141.17 270.789 144.319C260.807 147.468 262.008 154.965 262.008 154.965C262.008 154.965 252.251 155.565 252.251 165.461C252.251 175.357 263.059 178.506 266.886 175.507C270.789 172.508 270.864 166.81 270.864 166.81Z" fill="#141414" stroke="#141414" stroke-miterlimit="10"/>
<path d="M310.792 260.899C310.792 260.899 314.244 264.947 315.22 267.571C316.195 270.195 303.887 294.711 303.662 295.91L308.69 312.179C310.116 309.705 314.169 297.11 314.169 297.11C314.094 296.36 330.981 272.219 330.155 266.147C329.63 262.473 328.354 258.95 326.478 255.801" fill="#E7E7E7"/>
<path d="M291.428 458.597C291.428 458.597 291.203 458.672 291.203 463.245C291.203 467.743 292.179 470.142 292.179 470.142H316.346C316.346 470.142 327.679 470.142 328.579 470.142C329.48 470.142 334.058 469.768 334.959 466.619C335.859 463.47 333.908 463.545 324.902 461.146C315.895 458.747 314.394 457.847 312.443 458.447C308.615 459.572 291.428 458.597 291.428 458.597Z" fill="#141414" stroke="#141414" stroke-linejoin="round"/>
<path d="M281.446 460.621L280.17 453.799L264.259 454.549L262.983 461.071" fill="#E7E7E7"/>
<path d="M261.783 469.992H283.398C283.398 469.992 285.799 466.544 284.598 463.77C283.398 460.996 278.819 458.672 273.19 458.672C267.562 458.672 261.783 460.471 260.657 463.32C259.606 466.244 261.783 469.992 261.783 469.992Z" fill="#141414" stroke="#141414" stroke-linejoin="round"/>
<path d="M243.545 299.059C243.545 299.059 244.746 308.955 247.222 329.647C249.699 350.264 250.15 351.763 253.752 375.904C257.355 399.97 256.904 450.8 257.43 453.424C257.955 456.048 285.274 455.298 285.199 452.674C285.124 450.275 280.471 343.891 279.645 325.374C279.57 323.574 279.495 322.6 279.495 322.6C279.495 322.6 293.83 367.957 294.881 379.128C295.931 390.223 289.177 447.351 289.177 447.351C289.177 447.351 288.351 450.65 301.635 451.924C314.92 453.199 316.421 451.699 316.421 451.699C316.421 451.699 325.577 387.824 324.001 372.98C322.425 358.136 304.412 296.36 304.412 296.36L243.545 299.059Z" fill="#686868"/>
<path d="M496.922 190.351L427.048 141.245L424.346 145.069L494.22 194.175L496.922 190.351Z" fill="#505050"/>
<path d="M426.147 143.119L424.571 141.995L419.618 149.042L421.194 150.166L426.147 143.119Z" fill="#231F1F"/>
<path d="M451.515 264.197L501.725 192.825L497.898 190.126L447.688 261.498L451.515 264.197Z" fill="#505050"/>
<path d="M425.397 153.54L412.788 144.694L403.707 157.589L416.315 166.435L425.397 153.54Z" fill="#505050"/>
<path d="M417.741 197.099L374.436 166.735L403.857 157.439L416.465 166.286L417.741 197.099Z" fill="#505050"/>
<path d="M412.638 186.677C416.991 191.925 418.867 196.724 416.991 199.273C413.914 203.696 401.38 200.247 389.147 191.626C376.913 183.004 369.408 172.433 372.56 168.01C374.662 165.011 381.266 165.611 389.147 169.134" fill="#505050"/>
<path d="M393.5 171.758C392.524 172.358 391.698 173.183 391.023 174.082C390.272 175.132 389.822 176.332 389.597 177.606C389.372 178.881 389.447 180.155 389.822 181.43C390.197 182.629 390.798 183.829 391.698 184.728C392.524 185.703 393.65 186.453 394.775 186.902C395.976 187.427 397.252 187.652 398.528 187.577C399.804 187.502 401.08 187.127 402.206 186.528C403.331 185.928 404.307 185.028 405.058 183.979C405.808 182.929 406.334 181.729 406.559 180.455C406.559 180.455 402.806 177.456 400.404 175.657C398.228 174.232 395.901 172.883 393.5 171.758Z" fill="#1FBCFF"/>
<path d="M496.621 203.021L490.092 199.348L494.52 185.778L504.502 193.8L496.621 203.021Z" fill="#505050"/>
<path d="M431.251 143.269L423.371 137.271L422.095 147.093L431.251 143.269Z" fill="#505050"/>
<path d="M472.455 271.62H507.354C507.354 271.62 510.882 275.893 510.882 283.915C510.882 291.937 507.354 295.985 507.354 295.985H472.305" fill="#BB86FC"/>
<path d="M378.039 295.985C378.039 295.985 382.016 291.862 382.016 283.915C382.016 275.893 378.489 271.62 378.489 271.62H472.154C472.154 271.62 475.757 275.893 475.757 283.915C475.757 291.937 472.154 295.985 472.154 295.985H378.039Z" fill="#BB86FC"/>
<path d="M374.211 273.794H470.653C470.653 273.794 473.43 277.167 473.43 283.84C473.43 290.512 470.653 294.111 470.653 294.111H374.211C373.986 294.111 373.686 294.186 373.535 294.411C373.385 294.56 373.235 294.86 373.235 295.085C373.235 295.31 373.31 295.61 373.535 295.76C373.686 295.91 373.986 296.06 374.211 296.06H472.229C472.229 296.06 475.757 291.936 475.757 283.99C475.757 275.968 472.229 271.694 472.229 271.694H374.211C373.911 271.694 373.686 271.844 373.46 272.069C373.31 272.294 373.16 272.519 373.16 272.819C373.16 273.119 373.235 273.344 373.46 273.569C373.686 273.644 373.911 273.794 374.211 273.794Z" fill="#BB86FC"/>
<path d="M411.662 295.985H376.763C376.763 295.985 373.235 300.258 373.235 308.28C373.235 316.302 376.763 320.35 376.763 320.35H411.812" fill="#505050"/>
<path d="M506.003 320.35C506.003 320.35 502.025 316.227 502.025 308.28C502.025 300.258 505.552 295.985 505.552 295.985H411.887C411.887 295.985 408.285 300.258 408.285 308.28C408.285 316.302 411.887 320.35 411.887 320.35H506.003Z" fill="#505050"/>
<path d="M509.83 298.159H413.463C413.463 298.159 410.686 301.533 410.686 308.13C410.686 314.728 413.463 318.401 413.463 318.401H509.83C510.056 318.401 510.356 318.476 510.506 318.701C510.656 318.851 510.806 319.151 510.806 319.376C510.806 319.601 510.731 319.901 510.506 320.05C510.356 320.2 510.056 320.35 509.83 320.35H411.812C411.812 320.35 408.285 316.227 408.285 308.28C408.285 300.258 411.812 295.985 411.812 295.985H509.83C510.131 295.985 510.356 296.135 510.506 296.285C510.656 296.51 510.806 296.735 510.806 296.959C510.806 297.259 510.731 297.559 510.506 297.709C510.356 297.934 510.131 298.084 509.83 298.159Z" fill="#505050"/>
<path d="M419.317 304.232V314.503L422.995 310.829L426.372 314.203V304.232" fill="#1FBCFF"/>
<path d="M468.177 250.553H498.198C498.198 250.553 501.275 254.226 501.275 261.124C501.275 268.021 498.198 271.545 498.198 271.545H468.102" fill="#C4C4C4"/>
<path d="M387.045 271.545C387.045 271.545 390.497 268.021 390.497 261.124C390.497 254.226 387.42 250.553 387.42 250.553H467.951C467.951 250.553 471.029 254.226 471.029 261.124C471.029 268.021 467.951 271.545 467.951 271.545H387.045Z" fill="#C4C4C4"/>
<path d="M383.668 252.427H466.6C466.6 252.427 469.002 255.351 469.002 261.048C469.002 266.746 466.6 269.82 466.6 269.82H383.668C383.442 269.82 383.292 269.97 383.142 270.12C382.992 270.27 382.917 270.495 382.917 270.72C382.917 270.945 382.992 271.169 383.142 271.319C383.292 271.469 383.442 271.544 383.668 271.619H468.026C468.026 271.619 471.104 268.096 471.104 261.198C471.104 254.301 468.026 250.627 468.026 250.627H383.668C383.442 250.627 383.142 250.702 382.992 250.927C382.842 251.077 382.692 251.377 382.692 251.602C382.692 251.827 382.767 252.127 382.992 252.277C383.217 252.352 383.442 252.427 383.668 252.427Z" fill="#C4C4C4"/>
<path d="M180.501 408.741C180.501 408.741 173.071 408.516 165.641 418.787C158.211 429.058 146.427 434.231 140.273 425.235C134.194 416.238 140.123 407.766 152.957 404.168C165.866 400.494 180.501 408.741 180.501 408.741Z" fill="#02DAC5"/>
<path d="M179.45 398.47C179.45 398.47 188.757 393.372 197.688 405.817C206.694 418.263 221.179 417.288 224.331 411.965C227.484 406.642 222.755 396.296 207.22 391.873C191.609 387.45 179.45 398.47 179.45 398.47Z" fill="#02DAC5"/>
<path d="M178.625 390.523C173.446 388.424 167.742 388.199 162.413 389.849C153.182 392.473 136.52 390.074 136.07 382.801C135.62 375.529 144.851 370.056 158.06 372.006C171.194 373.88 178.625 390.523 178.625 390.523Z" fill="#02DAC5"/>
<path d="M180.276 365.708C180.276 365.708 173.971 352.138 167.517 348.165C161.062 344.191 147.102 341.417 143.875 350.264C141.624 356.486 149.804 364.208 161.813 363.758C173.821 363.384 180.276 365.708 180.276 365.708Z" fill="#02DAC5"/>
<path d="M182.828 356.561C182.828 356.561 188.306 344.716 193.935 341.267C199.564 337.819 211.798 335.419 214.65 343.066C216.676 348.464 209.471 355.287 198.964 354.912C188.457 354.462 182.828 356.561 182.828 356.561Z" fill="#02DAC5"/>
<path d="M179.45 381.752C179.45 381.752 188.381 376.504 198.363 376.429C208.345 376.354 215.475 377.478 217.051 371.331C218.553 365.183 210.447 361.435 198.288 363.309C186.13 365.108 179.45 381.752 179.45 381.752Z" fill="#02DAC5"/>
<path d="M182.753 343.216C182.753 343.216 176.748 340.143 171.495 332.121C166.166 324.099 163.614 307.455 170.444 304.906C177.274 302.282 185.304 309.48 187.256 322.674C189.282 335.794 182.753 343.216 182.753 343.216Z" fill="#02DAC5"/>
<path d="M417.066 147.318C418.117 146.493 418.792 145.219 418.717 143.27C418.717 140.796 414.439 138.546 416.39 135.323C418.267 132.324 426.222 132.699 425.397 138.546" stroke="#141414" stroke-linecap="round" stroke-linejoin="round"/>
<path d="M492.118 192.375L425.547 145.668" stroke="#141414" stroke-linecap="round" stroke-linejoin="round"/>
<path d="M430.575 143.494L493.694 187.877" stroke="#141414" stroke-linecap="round" stroke-linejoin="round"/>
<path d="M423.896 146.193L421.044 150.317" stroke="#141414" stroke-linecap="round" stroke-linejoin="round"/>
<path d="M419.468 149.042L422.245 145.069" stroke="#141414" stroke-linecap="round" stroke-linejoin="round"/>
<path d="M455.418 250.328L490.993 199.797" stroke="#141414" stroke-linecap="round" stroke-linejoin="round"/>
<path d="M495.121 202.046L460.972 250.553" stroke="#141414" stroke-linecap="round" stroke-linejoin="round"/>
<path d="M425.397 153.39L412.788 144.469L403.707 157.364L416.315 166.21L425.397 153.39Z" stroke="#141414" stroke-linecap="round" stroke-linejoin="round"/>
<path d="M374.436 166.51L403.857 157.214L416.465 166.06L417.666 196.873" stroke="#141414" stroke-linecap="round" stroke-linejoin="round"/>
<path d="M374.436 166.51C377.438 165.311 382.917 166.285 389.146 169.059" stroke="#141414" stroke-linecap="round" stroke-linejoin="round"/>
<path d="M417.667 196.799C417.667 197.623 417.441 198.448 416.991 199.123C413.914 203.546 401.38 200.097 389.147 191.476C376.913 182.854 369.408 172.283 372.56 167.86C373.01 167.26 373.611 166.735 374.361 166.436" stroke="#141414" stroke-linecap="round" stroke-linejoin="round"/>
<path d="M412.638 186.527C415.94 190.426 417.741 194.099 417.741 196.798" stroke="#141414" stroke-linecap="round" stroke-linejoin="round"/>
<path d="M389.146 169.06C393.124 170.859 396.877 173.033 400.404 175.507C404.907 178.656 409.035 182.329 412.638 186.453" stroke="#141414" stroke-linecap="round" stroke-linejoin="round"/>
<path d="M496.621 202.796L490.092 199.122L494.52 185.553L504.502 193.575L496.621 202.796Z" stroke="#141414" stroke-linecap="round" stroke-linejoin="round"/>
<path d="M422.395 144.694L422.095 146.943L431.251 143.119L423.371 137.122L422.395 144.694Z" stroke="#141414" stroke-linecap="round" stroke-linejoin="round"/>
<path d="M468.177 250.553H498.198C498.198 250.553 501.275 254.226 501.275 261.124C501.275 268.021 498.198 271.545 498.198 271.545H468.102" stroke="#141414" stroke-linejoin="round"/>
<path d="M383.668 252.427H466.6C466.6 252.427 469.002 255.351 469.002 261.048C469.002 266.746 466.6 269.82 466.6 269.82H383.668C383.442 269.82 383.292 269.97 383.142 270.12C382.992 270.27 382.917 270.495 382.917 270.72C382.917 270.945 382.992 271.169 383.142 271.319C383.292 271.469 383.442 271.544 383.668 271.619H468.026C468.026 271.619 471.104 268.096 471.104 261.198C471.104 254.301 468.026 250.627 468.026 250.627H383.668C383.442 250.627 383.142 250.702 382.992 250.927C382.842 251.077 382.692 251.377 382.692 251.602C382.692 251.827 382.767 252.127 382.992 252.277C383.217 252.352 383.442 252.427 383.668 252.427Z" stroke="#231F1F" stroke-linecap="round" stroke-linejoin="round"/>
<path d="M374.211 273.794H470.653C470.653 273.794 473.43 277.167 473.43 283.84C473.43 290.512 470.653 294.111 470.653 294.111H374.211C373.986 294.111 373.686 294.186 373.535 294.411C373.385 294.56 373.235 294.86 373.235 295.085C373.235 295.31 373.31 295.61 373.535 295.76C373.686 295.91 373.986 296.06 374.211 296.06H472.229C472.229 296.06 475.757 291.936 475.757 283.99C475.757 275.968 472.229 271.694 472.229 271.694H374.211C373.911 271.694 373.686 271.844 373.46 272.069C373.31 272.294 373.16 272.519 373.16 272.819C373.16 273.119 373.235 273.344 373.46 273.569C373.686 273.644 373.911 273.794 374.211 273.794Z" stroke="#231F1F" stroke-linecap="round" stroke-linejoin="round"/>
<path d="M388.396 252.427C389.747 255.126 390.347 258.125 390.347 261.198C390.422 264.272 389.597 267.271 388.096 269.97" stroke="#231F1F" stroke-miterlimit="10"/>
<path d="M379.69 273.793C381.191 276.942 381.941 280.466 381.941 283.989C382.016 287.588 381.116 291.112 379.314 294.186" stroke="#231F1F" stroke-miterlimit="10"/>
<path d="M411.662 295.985H376.763C376.763 295.985 373.235 300.258 373.235 308.28C373.235 316.302 376.763 320.35 376.763 320.35H411.812" stroke="#141414" stroke-linejoin="round"/>
<path d="M509.83 298.234H413.463C413.463 298.234 410.686 301.608 410.686 308.205C410.686 314.803 413.463 318.476 413.463 318.476H509.83C510.056 318.476 510.356 318.551 510.506 318.776C510.656 318.926 510.806 319.226 510.806 319.451C510.806 319.676 510.731 319.976 510.506 320.126C510.356 320.276 510.056 320.426 509.83 320.426H411.812C411.812 320.426 408.285 316.302 408.285 308.355C408.285 300.333 411.812 296.06 411.812 296.06H509.83C510.131 296.06 510.356 296.21 510.506 296.36C510.656 296.585 510.806 296.81 510.806 297.035C510.806 297.335 510.731 297.634 510.506 297.784C510.356 298.009 510.131 298.159 509.83 298.234Z" stroke="#141414" stroke-linecap="round" stroke-linejoin="round"/>
<path d="M504.352 298.159C502.851 301.308 502.025 304.832 502.1 308.355C502.025 311.954 502.926 315.402 504.727 318.551" stroke="#141414" stroke-miterlimit="10"/>
<path d="M261.107 176.031C261.107 176.031 256.754 175.657 257.43 180.23C258.18 184.803 261.257 185.328 261.257 185.328" stroke="#141414" stroke-linecap="round" stroke-linejoin="round"/>
<path d="M295.331 450.725L292.929 459.722L300.284 461.146L310.792 459.647L310.491 452.075" stroke="#141414" stroke-linejoin="round"/>
<path d="M264.259 454.923L263.059 461.146" stroke="#141414" stroke-linejoin="round"/>
<path d="M281.446 460.621L280.246 454.023" stroke="#141414" stroke-linejoin="round"/>
<path d="M243.245 334.97V470.442H257.43V453.424" stroke="#141414" stroke-linecap="round" stroke-linejoin="round"/>
<path d="M456.844 335.345V470.367H471.029V335.345" stroke="#141414" stroke-linecap="round" stroke-linejoin="round"/>
<path d="M308.991 311.804C310.642 308.28 314.319 297.11 314.319 297.11C314.244 296.36 331.131 272.219 330.306 266.147C329.78 262.473 328.504 258.95 326.628 255.801" stroke="#231F1F" stroke-miterlimit="10"/>
<path d="M280.096 181.804C280.096 181.804 281.371 187.577 280.621 188.627C279.87 189.676 277.469 189.001 277.469 189.001" stroke="#141414" stroke-linecap="round" stroke-linejoin="round"/>
<path d="M283.398 194.475C283.398 194.625 280.246 195.974 276.943 195.374C273.716 194.775 271.615 193.2 271.84 193.275" stroke="#141414" stroke-miterlimit="10" stroke-linecap="round"/>
<path d="M310.792 260.898C310.792 260.898 314.244 264.947 315.22 267.571C316.045 269.67 307.865 286.613 304.788 293.286" stroke="#141414" stroke-miterlimit="10"/>
<path d="M280.095 334.97H283.172" stroke="#141414" stroke-linecap="round" stroke-linejoin="round"/>
<path d="M246.172 320.351H201.44V334.97H247.973" stroke="#141414" stroke-linecap="round" stroke-linejoin="round"/>
<path d="M315.295 334.97H513.058V320.351H311.317" stroke="#141414" stroke-linecap="round" stroke-linejoin="round"/>
<path d="M283.248 202.571C283.248 202.571 283.248 205.57 284.073 207.07C284.523 207.969 286.625 208.794 288.351 208.944" stroke="#141414" stroke-linecap="round" stroke-linejoin="round"/>
<path d="M266.961 199.722C266.961 199.722 267.186 204.145 266.061 205.12C265.385 205.645 263.809 205.72 262.533 205.645" stroke="#141414" stroke-miterlimit="10"/>
<path d="M261.407 185.553C262.533 194.175 266.211 203.696 276.718 203.696C296.006 203.696 294.055 168.459 294.055 168.459" stroke="#141414" stroke-linecap="round" stroke-linejoin="round"/>
<path d="M195.661 470.142H171.795C162.864 470.142 162.263 427.559 162.263 427.559H205.268C205.193 427.559 204.593 470.142 195.661 470.142Z" fill="#BB86FC" stroke="#141414" stroke-linecap="round" stroke-linejoin="round"/>
<path d="M500.749 470.142H148.078" stroke="#141414" stroke-linejoin="round"/>
<path d="M220.129 197.698C220.129 197.698 217.277 193.5 214.199 184.428C211.122 175.357 212.323 142.97 212.323 142.97C212.323 141.845 211.798 140.72 211.047 139.896C210.072 139.071 208.721 135.997 208.045 133.373L205.944 125.501L203.017 119.504C203.017 119.504 200.015 114.631 201.29 113.806C202.566 112.981 205.268 118.379 205.268 118.379C205.268 118.379 208.345 123.927 208.871 123.852C209.471 123.852 207.445 119.354 206.694 116.805C205.944 114.256 203.767 108.033 205.568 107.808C207.37 107.583 208.045 111.632 208.946 114.406C209.771 117.18 211.347 121.903 212.023 121.828C212.698 121.828 210.597 115.155 209.996 113.056C209.396 110.957 207.069 105.709 208.721 105.034C210.372 104.36 212.248 109.683 212.848 111.482C213.449 113.281 215.25 120.178 215.851 120.103C216.451 120.029 215.625 112.981 215.25 110.807C214.875 108.708 213.899 105.259 215.4 105.184C216.901 105.109 217.202 108.108 218.327 112.082L220.954 121.303C220.954 121.303 221.93 126.701 222.906 126.551C223.881 126.401 226.133 121.303 227.108 119.729C228.084 118.154 230.261 117.03 230.711 118.079C231.086 119.129 228.76 122.503 228.459 124.002C228.084 125.501 227.409 128.125 226.808 130.974C226.208 133.823 224.331 136.222 223.506 137.572C222.68 138.921 221.705 139.896 221.93 141.245C221.93 141.245 226.058 174.682 227.784 180.005C229.435 185.328 234.914 190.276 234.914 190.276" stroke="#141414" stroke-miterlimit="10"/>
<path d="M387.946 285.264H467.501" stroke="#141414" stroke-miterlimit="10" stroke-linecap="round"/>
<path d="M414.89 304.382H475.832" stroke="#141414" stroke-linecap="round" stroke-linejoin="round"/>
<path d="M398.979 259.249H434.403" stroke="#141414" stroke-miterlimit="10" stroke-linecap="round"/>
<path d="M280.246 454.323C283.173 453.948 285.199 453.349 285.199 452.599C285.124 450.2 280.471 343.816 279.645 325.298C279.57 323.499 279.495 322.524 279.495 322.524C279.495 322.524 293.83 367.882 294.881 379.052C295.932 390.148 289.177 447.276 289.177 447.276C289.177 447.276 288.351 450.575 301.636 451.849C314.92 453.124 316.421 451.624 316.421 451.624C316.421 451.624 325.577 387.749 324.001 372.905C322.575 359.185 307.039 305.431 304.713 297.259" stroke="#141414" stroke-linejoin="round"/>
<path d="M243.845 301.308C244.296 305.282 245.496 314.653 247.298 329.647C249.774 350.339 250.225 351.764 253.827 375.904C257.43 399.97 256.979 450.8 257.505 453.424C257.88 455.373 272.44 455.448 280.321 454.324" stroke="#141414" stroke-linejoin="round"/>
<path d="M351.845 283.84C348.993 281.441 348.993 279.941 349.068 278.667C349.143 276.268 350.569 275.368 350.644 272.294C350.644 271.095 350.419 269.97 349.894 268.92" stroke="#141414" stroke-linecap="round" stroke-linejoin="round"/>
<path d="M341.038 283.84C340.212 283.165 339.537 282.34 339.087 281.44C338.636 280.466 338.411 279.491 338.411 278.442C338.486 276.043 339.762 274.693 339.762 271.619C339.762 270.42 339.462 269.295 339.012 268.246" stroke="#141414" stroke-linecap="round" stroke-linejoin="round"/>
<path d="M346.066 280.991C345.166 280.391 344.49 279.491 344.04 278.517C343.59 277.542 343.439 276.492 343.515 275.368C343.59 272.969 344.79 271.844 344.79 268.695C344.79 267.496 344.565 266.371 344.04 265.322" stroke="#141414" stroke-linecap="round" stroke-linejoin="round"/>
<path d="M179.9 408.516C179.9 408.516 153.782 409.116 148.078 415.039" stroke="#141414" stroke-miterlimit="10" stroke-linecap="round"/>
<path d="M210.447 399.745C202.266 393.672 181.327 396.521 179.225 398.32" stroke="#141414" stroke-miterlimit="10" stroke-linecap="round"/>
<path d="M178.324 389.773C178.324 389.773 163.014 379.278 150.705 379.877" stroke="#141414" stroke-miterlimit="10" stroke-linecap="round"/>
<path d="M202.792 368.932C195.286 369.082 179.901 378.678 179.75 381.152" stroke="#141414" stroke-miterlimit="10" stroke-linecap="round"/>
<path d="M180.576 365.708C180.576 365.708 165.716 354.612 153.332 354.762" stroke="#141414" stroke-miterlimit="10" stroke-linecap="round"/>
<path d="M182.452 344.266C182.452 344.266 183.953 325.748 177.349 315.402" stroke="#141414" stroke-miterlimit="10" stroke-linecap="round"/>
<path d="M205.043 345.316C197.538 345.466 182.152 355.062 182.002 357.536" stroke="#141414" stroke-miterlimit="10" stroke-linecap="round"/>
<path d="M184.404 427.559C181.627 417.738 179.751 407.692 178.925 397.495C177.349 380.027 182.527 365.783 182.527 343.142" stroke="#141414" stroke-linecap="round" stroke-linejoin="round"/>
<path d="M304.713 290.437C305.238 293.211 306.064 297.409 305.013 297.784C303.287 298.384 296.157 297.484 279.645 297.934C263.209 298.459 239.267 303.482 239.267 301.308C239.267 300.708 239.492 298.084 239.868 294.111" fill="#3272D8"/>
<path d="M238.366 190.651C237.466 189.226 236.64 187.727 235.815 186.378C235.815 186.378 235.514 185.928 235.214 186.228C234.839 186.527 232.212 188.927 225.082 192.15L216.076 196.274C215.4 196.574 215.4 196.724 215.4 197.023C215.4 197.323 215.475 197.623 215.626 197.848C216.001 198.523 216.301 199.273 216.751 200.022" fill="#3272D8"/>
<path d="M304.487 289.163C304.712 290.362 304.938 291.487 305.163 292.536L304.487 289.163Z" fill="#3272D8"/>
<path d="M317.021 232.41C311.017 223.563 306.814 218.24 301.56 215.391V215.317C300.435 214.342 288.276 207.52 288.051 207.819C287.826 208.119 287.901 208.119 287.601 208.944C286.85 210.743 282.797 214.117 277.544 214.342C272.29 214.567 265.01 208.494 263.734 205.87C263.359 205.12 263.284 205.046 263.059 204.896C262.758 204.821 252.401 200.922 248.874 200.472H248.799C241.744 197.398 238.967 191.176 236.04 186.453C236.04 186.453 235.74 186.003 235.439 186.303C235.064 186.603 232.437 189.002 225.307 192.225L216.301 196.349C215.626 196.649 215.625 196.799 215.625 197.099C215.625 197.398 215.701 197.698 215.851 197.923C218.327 203.171 221.705 207.969 227.709 216.291C233.938 224.913 240.093 230.461 243.395 235.784C243.17 240.957 243.02 245.83 243.02 249.728C243.02 266.072 239.642 299.284 239.642 301.383C239.642 303.482 263.509 298.459 280.02 298.009C296.532 297.485 303.662 298.459 305.388 297.859C307.114 297.26 304.938 291.787 304.488 286.464C304.037 281.141 298.408 270.645 301.26 250.853C301.335 250.553 301.335 250.253 301.41 249.878C303.887 252.802 306.964 256.7 308.315 259.699C308.315 259.699 309.591 262.173 310.191 262.173C310.792 262.173 314.545 259.924 322.125 257.6C328.88 255.501 328.955 255.276 328.955 254.901C328.654 254.451 323.176 241.481 317.021 232.41Z" fill="#1FBCFF"/>
</g>
<defs>
<clipPath id="clip0_545_1731">
<rect width="645" height="579" fill="white"/>
</clipPath>
</defs>
</svg>
