<svg width="565" height="500" viewBox="0 0 565 500" fill="none" xmlns="http://www.w3.org/2000/svg">
<path opacity="0.24" d="M198.63 483.518C249.732 474.89 301.594 488.07 352.927 495.206C404.26 502.343 460.825 502.1 502.508 471.244C551.55 434.919 565.297 367.131 564.009 305.993C562.566 235.221 544.103 161.268 494.731 110.658C468.404 83.68 434.982 64.9652 401.935 46.9133C360.616 24.3097 317.17 1.60669 270.144 0.0600126C229.034 -1.07937 189.127 14.0435 159.04 42.1628C135.61 64.2581 119.703 93.0484 100.161 118.69C64.0741 166.04 32.5342 209.295 10.58 264.666C-9.40242 315.055 -0.281919 356.315 31.2118 400.384C62.7056 444.453 97.2643 485.286 151.252 482.568" fill="#555555"/>
<path d="M398.268 134.867L396.731 145.76L361.492 393.936H190.198L225.437 145.76L226.987 134.867C227.563 131.311 229.362 128.067 232.075 125.693C234.787 123.319 238.243 121.963 241.848 121.86H387.1C388.744 121.814 390.377 122.135 391.88 122.799C393.384 123.464 394.719 124.456 395.79 125.703C396.86 126.949 397.638 128.419 398.067 130.005C398.496 131.59 398.565 133.251 398.268 134.867Z" fill="#1D1D1D"/>
<path d="M202.448 176.826C202.448 176.826 198.491 178.577 196.645 175.369L202.448 176.826Z" fill="white"/>
<path d="M361.5 394.581H190.215C190.121 394.582 190.027 394.562 189.941 394.524C189.855 394.485 189.778 394.429 189.716 394.358C189.654 394.286 189.609 394.202 189.582 394.112C189.555 394.022 189.547 393.927 189.558 393.833L226.345 134.822C226.945 131.106 228.822 127.716 231.654 125.232C234.486 122.749 238.095 121.328 241.862 121.215H387.107C388.822 121.171 390.525 121.501 392.1 122.18C393.674 122.86 395.082 123.874 396.225 125.151C397.359 126.484 398.189 128.048 398.657 129.734C399.124 131.42 399.218 133.188 398.931 134.914L397.394 145.805L362.144 394.017C362.122 394.172 362.045 394.315 361.927 394.418C361.809 394.522 361.657 394.579 361.5 394.581ZM190.964 393.269H360.922L397.631 134.77C397.89 133.231 397.811 131.654 397.398 130.15C396.985 128.645 396.248 127.248 395.239 126.057C394.224 124.91 392.971 123.998 391.566 123.386C390.161 122.774 388.639 122.476 387.107 122.514H241.862C238.415 122.618 235.112 123.916 232.519 126.185C229.925 128.455 228.203 131.555 227.646 134.953L226.109 145.844L190.964 393.269Z" fill="#141414"/>
<path d="M300.325 250.801H225.66C225.472 250.793 225.295 250.714 225.164 250.578C225.105 250.505 225.063 250.421 225.038 250.331C225.013 250.24 225.007 250.146 225.02 250.053L236.103 172.065C236.127 171.908 236.207 171.766 236.326 171.662C236.446 171.559 236.598 171.502 236.755 171.501H311.394C311.488 171.5 311.581 171.519 311.667 171.558C311.753 171.596 311.83 171.653 311.892 171.724C311.954 171.795 311.999 171.879 312.026 171.969C312.053 172.06 312.06 172.155 312.047 172.248L301.043 250.237C301.017 250.405 300.929 250.557 300.795 250.662C300.662 250.767 300.494 250.816 300.325 250.801ZM226.43 249.489H299.764L310.585 172.812H237.251L226.43 249.489Z" fill="#B4B4B4"/>
<path d="M371.348 172.79H331.406C331.233 172.79 331.066 172.723 330.943 172.602C330.821 172.481 330.752 172.317 330.752 172.146C330.752 171.975 330.821 171.811 330.943 171.69C331.066 171.569 331.233 171.501 331.406 171.501H371.361C371.534 171.501 371.701 171.569 371.823 171.69C371.946 171.811 372.015 171.975 372.015 172.146C372.015 172.232 371.998 172.316 371.964 172.395C371.93 172.475 371.881 172.546 371.819 172.606C371.757 172.666 371.683 172.714 371.602 172.745C371.521 172.777 371.435 172.792 371.348 172.79Z" fill="#B4B4B4"/>
<path d="M370.071 183.106H330.117C329.943 183.106 329.777 183.038 329.654 182.917C329.531 182.797 329.462 182.633 329.462 182.462C329.462 182.291 329.531 182.127 329.654 182.006C329.777 181.885 329.943 181.817 330.117 181.817H370.071C370.245 181.817 370.411 181.885 370.534 182.006C370.657 182.127 370.726 182.291 370.726 182.462C370.726 182.633 370.657 182.797 370.534 182.917C370.411 183.038 370.245 183.106 370.071 183.106Z" fill="#B4B4B4"/>
<path d="M368.782 193.422H328.827C328.655 193.419 328.49 193.35 328.368 193.23C328.246 193.109 328.176 192.947 328.173 192.777C328.173 192.606 328.242 192.442 328.365 192.321C328.487 192.2 328.654 192.133 328.827 192.133H368.782C368.956 192.133 369.122 192.2 369.245 192.321C369.367 192.442 369.436 192.606 369.436 192.777C369.436 192.948 369.367 193.112 369.245 193.233C369.122 193.354 368.956 193.422 368.782 193.422Z" fill="#B4B4B4"/>
<path d="M366.848 203.738H326.893C326.719 203.738 326.553 203.67 326.43 203.549C326.308 203.428 326.239 203.264 326.239 203.093C326.239 202.922 326.308 202.758 326.43 202.637C326.553 202.516 326.719 202.448 326.893 202.448H366.848C367.022 202.448 367.188 202.516 367.311 202.637C367.433 202.758 367.502 202.922 367.502 203.093C367.502 203.264 367.433 203.428 367.311 203.549C367.188 203.67 367.022 203.738 366.848 203.738Z" fill="#B4B4B4"/>
<path d="M365.558 214.054H325.604C325.431 214.054 325.264 213.986 325.141 213.865C325.018 213.744 324.949 213.58 324.949 213.409C324.949 213.238 325.018 213.074 325.141 212.953C325.264 212.832 325.431 212.764 325.604 212.764H365.558C365.731 212.764 365.898 212.832 366.021 212.953C366.144 213.074 366.213 213.238 366.213 213.409C366.213 213.58 366.144 213.744 366.021 213.865C365.898 213.986 365.731 214.054 365.558 214.054Z" fill="#B4B4B4"/>
<path d="M352.665 224.37H324.313C324.14 224.366 323.976 224.297 323.854 224.177C323.733 224.057 323.663 223.895 323.66 223.725C323.66 223.554 323.728 223.39 323.851 223.269C323.973 223.148 324.139 223.08 324.313 223.08H352.665C352.838 223.08 353.004 223.148 353.126 223.269C353.249 223.39 353.318 223.554 353.318 223.725C353.318 223.896 353.249 224.06 353.126 224.181C353.004 224.302 352.838 224.37 352.665 224.37Z" fill="#B4B4B4"/>
<path d="M358.356 250.157H322.972C322.045 250.182 321.123 249.998 320.275 249.619C319.427 249.239 318.674 248.674 318.07 247.964C317.466 247.254 317.027 246.417 316.785 245.514C316.542 244.611 316.502 243.665 316.668 242.745C316.996 240.72 318.012 238.873 319.542 237.521C321.073 236.169 323.022 235.395 325.056 235.333H360.44C361.369 235.306 362.291 235.488 363.141 235.867C363.991 236.246 364.746 236.811 365.351 237.521C365.956 238.231 366.397 239.069 366.64 239.973C366.883 240.877 366.923 241.824 366.757 242.745C366.429 244.772 365.411 246.621 363.878 247.973C362.345 249.326 360.393 250.098 358.356 250.157Z" fill="#B4B4B4"/>
<path d="M258.43 352.67H223.04C222.112 352.698 221.189 352.515 220.34 352.137C219.49 351.758 218.736 351.193 218.131 350.482C217.527 349.772 217.088 348.934 216.846 348.03C216.605 347.126 216.567 346.179 216.735 345.259C217.063 343.234 218.079 341.387 219.61 340.035C221.14 338.682 223.09 337.909 225.124 337.847H260.514C261.442 337.819 262.365 338.002 263.214 338.38C264.063 338.759 264.818 339.324 265.422 340.035C266.027 340.745 266.466 341.583 266.707 342.487C266.949 343.391 266.987 344.338 266.818 345.259C266.493 347.284 265.478 349.133 263.947 350.485C262.416 351.838 260.465 352.611 258.43 352.67Z" fill="#B4B4B4"/>
<path d="M339.024 352.671H303.634C302.706 352.698 301.783 352.516 300.934 352.137C300.084 351.758 299.33 351.193 298.725 350.482C298.121 349.772 297.682 348.934 297.44 348.03C297.199 347.126 297.161 346.179 297.329 345.259C297.654 343.233 298.67 341.385 300.201 340.032C301.732 338.679 303.683 337.907 305.718 337.847H341.108C342.036 337.82 342.958 338.002 343.808 338.38C344.657 338.759 345.412 339.324 346.016 340.035C346.621 340.746 347.06 341.584 347.301 342.487C347.543 343.391 347.581 344.338 347.412 345.259C347.087 347.285 346.071 349.133 344.54 350.486C343.009 351.838 341.059 352.611 339.024 352.671Z" fill="#B4B4B4"/>
<path d="M273.867 328.173H214.061C213.966 328.169 213.873 328.147 213.787 328.107C213.701 328.066 213.625 328.009 213.562 327.938C213.501 327.87 213.456 327.789 213.431 327.701C213.406 327.613 213.402 327.52 213.418 327.43L221.284 271.996C221.309 271.84 221.388 271.699 221.508 271.596C221.628 271.494 221.781 271.437 221.939 271.436H281.733C281.827 271.434 281.921 271.453 282.007 271.491C282.093 271.529 282.17 271.586 282.231 271.657C282.294 271.727 282.341 271.81 282.368 271.9C282.396 271.99 282.402 272.085 282.388 272.178L274.523 327.612C274.498 327.768 274.418 327.909 274.298 328.012C274.178 328.115 274.025 328.171 273.867 328.173ZM214.873 326.87H273.356L281.077 272.738H222.543L214.873 326.87Z" fill="#B4B4B4"/>
<path d="M354.473 328.173H294.662C294.567 328.171 294.473 328.149 294.388 328.109C294.302 328.069 294.225 328.01 294.164 327.938C294.103 327.869 294.058 327.789 294.031 327.701C294.004 327.613 293.995 327.521 294.007 327.43L301.873 271.996C301.895 271.842 301.972 271.7 302.09 271.598C302.208 271.495 302.359 271.437 302.515 271.436H362.326C362.421 271.434 362.514 271.453 362.6 271.491C362.686 271.53 362.763 271.586 362.825 271.657C362.888 271.727 362.935 271.81 362.962 271.9C362.989 271.99 362.996 272.085 362.982 272.178L355.115 327.613C355.094 327.767 355.017 327.908 354.899 328.011C354.781 328.114 354.63 328.171 354.473 328.173ZM295.475 326.87H353.949L361.684 272.739H303.145L295.475 326.87Z" fill="#B4B4B4"/>
<path d="M260.763 374.593C260.352 374.599 259.944 374.524 259.568 374.372C259.192 374.221 258.857 373.996 258.586 373.715C258.314 373.426 258.115 373.088 258.003 372.723C257.89 372.357 257.866 371.974 257.933 371.599C258.067 370.826 258.497 370.121 259.146 369.607C259.796 369.094 260.624 368.805 261.484 368.791C261.894 368.786 262.301 368.86 262.676 369.01C263.052 369.159 263.388 369.38 263.662 369.657C263.933 369.945 264.131 370.284 264.242 370.65C264.353 371.015 264.373 371.399 264.301 371.772C264.173 372.547 263.747 373.255 263.1 373.771C262.452 374.287 261.624 374.578 260.763 374.593ZM261.484 370.028C260.954 370.048 260.447 370.232 260.046 370.549C259.645 370.866 259.375 371.297 259.28 371.772C259.242 371.973 259.253 372.179 259.312 372.376C259.37 372.572 259.476 372.755 259.62 372.911C259.764 373.056 259.941 373.171 260.138 373.247C260.335 373.324 260.549 373.361 260.763 373.356C261.295 373.337 261.803 373.152 262.202 372.832C262.601 372.512 262.867 372.076 262.954 371.599C262.994 371.401 262.985 371.198 262.929 371.003C262.872 370.809 262.769 370.628 262.628 370.474C262.484 370.328 262.307 370.214 262.11 370.137C261.912 370.06 261.699 370.023 261.484 370.028Z" fill="#B4B4B4"/>
<path d="M275.102 373.497C276.151 372.521 276.313 370.991 275.464 370.08C274.616 369.169 273.078 369.222 272.029 370.199C270.98 371.176 270.818 372.706 271.666 373.617C272.515 374.527 274.053 374.474 275.102 373.497Z" fill="#B4B4B4"/>
<path d="M286.592 373.408C287.638 372.434 287.8 370.907 286.953 369.999C286.107 369.09 284.572 369.143 283.526 370.117C282.479 371.092 282.317 372.618 283.164 373.527C284.011 374.436 285.545 374.382 286.592 373.408Z" fill="#B4B4B4"/>
<path d="M299.958 373.493C301.007 372.516 301.169 370.986 300.32 370.075C299.472 369.165 297.933 369.218 296.885 370.195C295.836 371.171 295.674 372.701 296.522 373.612C297.371 374.523 298.909 374.47 299.958 373.493Z" fill="#B4B4B4"/>
<path d="M252.059 153.448H241.811C241.631 153.448 241.459 153.38 241.331 153.259C241.204 153.138 241.133 152.974 241.133 152.803C241.133 152.632 241.204 152.468 241.331 152.347C241.459 152.226 241.631 152.158 241.811 152.158H252.059C252.239 152.158 252.412 152.226 252.539 152.347C252.667 152.468 252.738 152.632 252.738 152.803C252.738 152.974 252.667 153.138 252.539 153.259C252.412 153.38 252.239 153.448 252.059 153.448Z" fill="#B4B4B4"/>
<path d="M251.415 157.961H241.165C240.987 157.958 240.816 157.889 240.69 157.769C240.563 157.648 240.491 157.486 240.487 157.316C240.487 157.145 240.559 156.981 240.686 156.86C240.813 156.74 240.985 156.672 241.165 156.672H251.415C251.595 156.672 251.767 156.74 251.894 156.86C252.021 156.981 252.093 157.145 252.093 157.316C252.089 157.486 252.017 157.648 251.89 157.769C251.764 157.889 251.594 157.958 251.415 157.961Z" fill="#B4B4B4"/>
<path d="M250.77 162.474H240.522C240.342 162.474 240.169 162.406 240.042 162.285C239.914 162.165 239.843 162.001 239.843 161.83C239.846 161.66 239.919 161.498 240.046 161.377C240.172 161.257 240.343 161.188 240.522 161.185H250.77C250.95 161.185 251.122 161.253 251.249 161.374C251.377 161.495 251.448 161.659 251.448 161.83C251.448 162.001 251.377 162.165 251.249 162.285C251.122 162.406 250.95 162.474 250.77 162.474Z" fill="#B4B4B4"/>
<path d="M398.269 134.84L396.734 145.711H225.659L227.207 134.84C227.783 131.291 229.579 128.054 232.288 125.685C234.997 123.316 238.448 121.963 242.048 121.86H387.115C388.756 121.814 390.387 122.134 391.889 122.797C393.39 123.461 394.724 124.451 395.793 125.695C396.862 126.939 397.639 128.406 398.068 129.988C398.496 131.57 398.565 133.228 398.269 134.84Z" fill="#BB86FC"/>
<path d="M316.562 134.751H297.876C297.704 134.751 297.538 134.683 297.416 134.562C297.294 134.441 297.226 134.277 297.226 134.106C297.226 133.935 297.294 133.771 297.416 133.65C297.538 133.529 297.704 133.461 297.876 133.461H316.562C316.735 133.461 316.9 133.529 317.022 133.65C317.144 133.771 317.213 133.935 317.213 134.106C317.213 134.277 317.144 134.441 317.022 134.562C316.9 134.683 316.735 134.751 316.562 134.751Z" fill="white"/>
<path d="M326.246 134.751H323.008C322.84 134.747 322.679 134.678 322.56 134.558C322.442 134.438 322.373 134.276 322.37 134.106C322.37 133.935 322.437 133.771 322.557 133.65C322.676 133.529 322.839 133.461 323.008 133.461H326.246C326.415 133.461 326.577 133.529 326.697 133.65C326.816 133.771 326.883 133.935 326.883 134.106C326.883 134.277 326.816 134.441 326.697 134.562C326.577 134.683 326.415 134.751 326.246 134.751Z" fill="white"/>
<path d="M223.622 220.397L235.872 232.947C235.872 232.947 257.98 208.982 258.217 205.982C258.906 200.597 260.422 195.348 262.712 190.418C262.812 190.104 263.028 189.838 263.317 189.675C264.014 189.414 264.513 190.379 264.631 191.11C264.853 192.892 264.831 194.695 264.566 196.472C266.761 193.458 268.995 190.484 271.295 187.548C271.379 187.4 271.494 187.272 271.632 187.173C271.771 187.074 271.929 187.006 272.097 186.974C272.354 186.99 272.596 187.097 272.781 187.274C274.23 188.503 275.316 190.099 275.922 191.893C276.315 192.843 276.541 193.854 276.592 194.88C276.684 200.646 271.479 210.013 266.077 212.374C266.077 212.374 240.92 255.164 236.398 254.668C231.877 254.172 214.054 234.199 214.054 234.199L223.622 220.397Z" fill="#E7E7E7"/>
<path d="M236.419 255.317H236.314C231.682 254.795 215.4 236.673 213.55 234.61C213.458 234.495 213.408 234.352 213.408 234.205C213.408 234.059 213.458 233.916 213.55 233.801L223.154 220.001C223.21 219.923 223.283 219.858 223.366 219.811C223.45 219.764 223.543 219.735 223.639 219.727C223.736 219.718 223.833 219.731 223.924 219.765C224.015 219.798 224.097 219.852 224.164 219.922L235.907 231.973C244.396 222.716 257.424 207.872 257.608 205.861C258.293 200.413 259.806 195.099 262.095 190.103C262.177 189.867 262.305 189.65 262.471 189.464C262.638 189.278 262.84 189.127 263.066 189.019C263.251 188.947 263.45 188.919 263.648 188.934C263.845 188.95 264.037 189.01 264.208 189.11C264.511 189.339 264.76 189.63 264.939 189.963C265.118 190.297 265.222 190.665 265.244 191.043C265.365 192.091 265.413 193.147 265.389 194.202C267.134 191.826 268.918 189.463 270.729 187.152C270.87 186.925 271.062 186.733 271.289 186.59C271.517 186.448 271.774 186.359 272.041 186.33C272.452 186.347 272.846 186.504 273.156 186.773C274.694 188.055 275.858 189.723 276.528 191.604C276.943 192.628 277.182 193.713 277.236 194.816C277.328 200.6 272.329 210.144 266.53 212.846C262.095 220.405 241.286 255.317 236.419 255.317ZM214.862 234.127C221.986 242.078 233.361 253.711 236.445 254.011C239.148 254.011 253.226 232.73 265.389 211.997C265.459 211.878 265.564 211.782 265.69 211.723C271.004 209.399 275.898 200.234 275.806 194.829C275.764 193.874 275.555 192.933 275.19 192.048C274.615 190.372 273.601 188.88 272.251 187.727C272.08 187.583 272.014 187.557 271.988 187.557C271.88 187.65 271.783 187.755 271.7 187.87C269.417 190.795 267.16 193.798 264.982 196.8C264.896 196.92 264.772 197.007 264.63 197.047C264.488 197.088 264.336 197.079 264.199 197.024C264.063 196.968 263.949 196.867 263.877 196.739C263.805 196.611 263.778 196.462 263.801 196.317C264.061 194.588 264.083 192.831 263.867 191.095C263.847 190.755 263.702 190.434 263.46 190.194C263.359 190.313 263.283 190.45 263.237 190.599C260.979 195.466 259.484 200.648 258.802 205.966C258.527 209.034 240.014 229.296 236.3 233.383C236.177 233.512 236.007 233.587 235.828 233.592C235.649 233.58 235.479 233.511 235.343 233.396L223.679 221.411L214.862 234.127Z" fill="#141414"/>
<path d="M137.621 401.028C137.621 401.028 133.337 412.394 135.235 413.492C137.134 414.59 174.971 413.492 172.691 411.295C170.41 409.099 160.337 401.769 160.337 401.769" fill="#E7E7E7"/>
<path d="M143.894 414.567C139.064 414.567 135.432 414.401 134.879 414.08C132.826 412.889 135.326 405.25 136.984 400.803C137.049 400.644 137.174 400.516 137.333 400.445C137.493 400.373 137.674 400.364 137.84 400.418C138.002 400.479 138.132 400.599 138.204 400.752C138.275 400.906 138.281 401.081 138.222 401.239C136.116 406.891 134.866 412.376 135.589 412.991C138.222 414.132 167.767 412.786 171.794 411.428C169.017 408.928 159.949 402.341 159.949 402.277C159.88 402.226 159.822 402.163 159.778 402.091C159.734 402.018 159.705 401.938 159.693 401.855C159.668 401.687 159.713 401.516 159.818 401.38C159.922 401.244 160.078 401.154 160.251 401.13C160.424 401.106 160.599 401.15 160.739 401.252C161.147 401.546 170.873 408.659 173.149 410.876C173.314 411.026 173.415 411.23 173.432 411.448C173.449 411.667 173.381 411.884 173.241 412.056C171.833 413.734 154.804 414.567 143.894 414.567Z" fill="#141414"/>
<path d="M175.266 178.568C173.478 178.489 171.689 178.184 169.624 177.999C167.559 177.813 165.218 177.111 165.179 175.176C165.179 173.506 167.125 172.128 166.691 170.524C166.538 170.091 166.306 169.691 166.007 169.345C163.256 165.623 162.039 160.974 162.613 156.369C163.186 151.764 165.506 147.562 169.085 144.642C168.546 144.827 167.967 144.284 167.914 143.714C167.911 143.131 168.132 142.571 168.532 142.15C169.983 140.544 171.866 139.397 173.951 138.85C180.476 136.822 187.456 136.822 193.982 138.85C198.98 140.321 204.99 144.337 204.332 150.42C204.252 151.523 203.798 152.564 203.046 153.37C202.294 154.176 201.29 154.697 200.203 154.846C199.085 161.366 195.691 165.819 191.43 170.537C188.566 173.778 184.952 176.254 180.909 177.747C179.102 178.402 177.183 178.681 175.266 178.568Z" fill="#141414"/>
<path d="M176.1 179.238H175.285C174.219 179.238 173.18 179.066 172.062 178.933C171.286 178.841 170.484 178.748 169.615 178.669C166.498 178.404 164.617 177.108 164.578 175.203C164.627 174.292 164.938 173.414 165.472 172.676C165.906 171.949 166.274 171.353 166.116 170.718C165.997 170.404 165.824 170.113 165.604 169.859C162.808 166.158 161.488 161.541 161.905 156.912C162.321 152.284 164.442 147.979 167.853 144.843C167.552 144.546 167.361 144.154 167.313 143.732C167.298 143.356 167.358 142.981 167.489 142.629C167.62 142.277 167.82 141.955 168.076 141.682C169.601 140.011 171.568 138.813 173.746 138.229C180.396 136.17 187.509 136.17 194.16 138.229C200.027 139.949 205.643 144.407 204.972 150.492C204.87 151.654 204.409 152.756 203.655 153.643C202.9 154.53 201.889 155.158 200.763 155.439C199.448 162.133 195.686 166.763 191.911 170.943C188.982 174.258 185.28 176.79 181.138 178.312C179.525 178.911 177.82 179.225 176.1 179.238ZM169.037 143.997C169.164 143.995 169.289 144.027 169.4 144.09C169.511 144.153 169.603 144.244 169.668 144.354C169.749 144.487 169.781 144.644 169.759 144.798C169.738 144.953 169.664 145.095 169.55 145.2C166.109 148.012 163.881 152.052 163.33 156.476C162.778 160.899 163.946 165.367 166.59 168.946C166.946 169.354 167.214 169.831 167.379 170.348C167.465 170.871 167.441 171.407 167.307 171.92C167.173 172.432 166.933 172.911 166.603 173.324C166.213 173.861 165.968 174.49 165.893 175.15C165.893 176.909 169.102 177.267 169.734 177.333C170.602 177.333 171.431 177.505 172.22 177.597C173.298 177.73 174.324 177.849 175.35 177.888C177.168 178 178.99 177.739 180.704 177.121C184.64 175.679 188.157 173.274 190.937 170.123C195.62 164.951 198.527 160.784 199.553 154.791C199.577 154.641 199.652 154.504 199.764 154.403C199.877 154.302 200.02 154.243 200.171 154.236C201.098 154.089 201.948 153.631 202.583 152.937C203.218 152.243 203.601 151.353 203.67 150.412C204.328 144.34 197.764 140.729 193.792 139.565C187.393 137.586 180.552 137.586 174.153 139.565C172.205 140.064 170.448 141.132 169.102 142.634C168.81 142.921 168.636 143.308 168.616 143.719C168.627 143.785 168.651 143.849 168.687 143.906C168.724 143.962 168.771 144.011 168.826 144.049L169.037 143.997Z" fill="#141414"/>
<path d="M148.836 216.753C148.836 216.753 135.028 245.177 136.098 253.886C137.169 262.595 165.697 259.164 165.697 259.164L164.197 215.988L148.836 216.753Z" fill="#E7E7E7"/>
<path d="M153.917 260.475C153.056 260.475 152.169 260.475 151.307 260.475C141.31 260.163 135.972 258.002 135.463 254.071C134.328 245.39 147.692 218.24 148.253 217.095C148.307 216.991 148.387 216.903 148.486 216.839C148.584 216.775 148.697 216.738 148.814 216.731L164.176 215.989C164.261 215.984 164.347 215.997 164.428 216.026C164.508 216.055 164.582 216.1 164.645 216.158C164.711 216.214 164.764 216.284 164.8 216.363C164.836 216.442 164.854 216.527 164.854 216.613L166.342 259.147C166.347 259.311 166.291 259.47 166.185 259.595C166.079 259.72 165.93 259.802 165.768 259.824C161.831 260.24 157.876 260.457 153.917 260.475ZM149.245 217.967C147.679 221.182 135.724 246.067 136.742 253.863C137.63 260.267 156.88 259.486 165.037 258.588L163.562 217.316L149.245 217.967Z" fill="#141414"/>
<path d="M204.382 395.376L205.122 413.916C205.122 413.916 239.167 414.167 237.18 411.638C235.194 409.109 219.781 397.958 219.781 397.958L217.301 384.265L204.382 395.376Z" fill="#E7E7E7"/>
<path d="M209.494 414.567H205.125C204.957 414.568 204.796 414.502 204.676 414.383C204.555 414.265 204.483 414.104 204.477 413.933L203.738 395.431C203.734 395.332 203.752 395.233 203.79 395.142C203.828 395.05 203.886 394.969 203.958 394.902L216.923 383.775C217.01 383.701 217.114 383.652 217.225 383.631C217.336 383.61 217.451 383.619 217.558 383.656C217.663 383.698 217.756 383.766 217.828 383.853C217.901 383.941 217.95 384.046 217.973 384.158L220.41 397.559C222.355 398.973 235.773 408.739 237.692 411.184C237.805 411.324 237.878 411.494 237.901 411.674C237.924 411.854 237.896 412.037 237.822 412.202C236.836 414.184 221.214 414.567 209.494 414.567ZM205.747 413.246C219.399 413.325 233.945 412.797 236.383 411.752C234.205 409.427 224.455 402.171 219.386 398.537C219.318 398.49 219.26 398.429 219.215 398.359C219.171 398.289 219.141 398.21 219.127 398.127L216.845 385.585L205.047 395.775L205.747 413.246Z" fill="#141414"/>
<path d="M210.43 266.922L223.724 400.365L201.71 400.862L176.703 306.589L162.846 401.673L137.329 400.365C137.329 400.365 141.774 347.289 144.088 327.102C146.401 306.916 149.983 271.972 149.983 271.972L210.43 266.922Z" fill="#686868"/>
<path d="M202.016 164.409C202.016 164.409 206.576 171.861 205.51 173.328C204.445 174.795 201.159 173.663 201.159 173.663" fill="#E7E7E7"/>
<path d="M203.525 174.714C202.628 174.699 201.738 174.548 200.888 174.267C200.743 174.199 200.628 174.082 200.565 173.938C200.503 173.794 200.497 173.632 200.549 173.484C200.601 173.336 200.707 173.211 200.847 173.134C200.988 173.057 201.152 173.032 201.31 173.065C202.259 173.371 204.382 173.755 204.976 172.949C205.569 172.144 203.723 168.511 201.402 164.802C201.344 164.731 201.302 164.648 201.279 164.56C201.256 164.471 201.253 164.379 201.269 164.29C201.286 164.2 201.322 164.115 201.376 164.04C201.429 163.965 201.498 163.902 201.579 163.855C201.659 163.808 201.749 163.778 201.843 163.768C201.936 163.758 202.03 163.767 202.12 163.794C202.209 163.822 202.291 163.868 202.361 163.93C202.431 163.991 202.486 164.066 202.523 164.149C203.987 166.477 207.257 172.08 206.057 173.704C205.748 174.055 205.357 174.329 204.917 174.505C204.476 174.681 204 174.752 203.525 174.714Z" fill="#141414"/>
<path d="M201.656 154.367C204.682 156.985 203.564 162.352 203.406 165.834C203.169 170.73 202.827 175.626 202.38 180.522C202.09 183.611 193.999 183.375 192.604 182.393L193.407 194.711L176.658 187.577L177.75 173.427C177.75 173.427 183.092 173.662 186.5 167.458C189.907 161.253 190.144 151.514 190.144 151.514C190.144 151.514 198.709 151.775 201.656 154.367Z" fill="#E7E7E7"/>
<path d="M193.406 195.341C193.32 195.361 193.23 195.361 193.143 195.341L176.422 188.213C176.296 188.158 176.189 188.066 176.116 187.949C176.044 187.832 176.008 187.696 176.015 187.559L177.106 173.421C177.119 173.252 177.198 173.095 177.325 172.983C177.453 172.87 177.619 172.812 177.789 172.819C177.986 172.819 182.771 172.937 185.926 167.195C189.213 161.205 189.489 151.657 189.489 151.5C189.49 151.413 189.51 151.328 189.546 151.249C189.582 151.17 189.634 151.1 189.699 151.042C189.76 150.98 189.834 150.933 189.916 150.903C189.998 150.874 190.086 150.863 190.172 150.872C190.527 150.872 198.993 151.173 202.082 153.893C204.843 156.313 204.475 160.564 204.186 163.991C204.186 164.644 204.08 165.298 204.054 165.861C203.817 170.739 203.476 175.683 203.029 180.562C202.949 181.082 202.726 181.569 202.385 181.971C202.044 182.373 201.598 182.672 201.096 182.838C198.606 183.736 195.908 183.899 193.327 183.309L194.09 194.609C194.095 194.697 194.082 194.785 194.053 194.868C194.023 194.951 193.976 195.028 193.916 195.092C193.856 195.157 193.783 195.209 193.702 195.245C193.622 195.281 193.534 195.301 193.446 195.302L193.406 195.341ZM177.369 187.141L192.67 193.68L191.96 182.432C191.946 182.309 191.97 182.184 192.029 182.074C192.087 181.964 192.178 181.875 192.289 181.818C192.393 181.751 192.514 181.716 192.637 181.716C192.761 181.716 192.882 181.751 192.985 181.818C195.456 182.581 198.108 182.526 200.544 181.661C201.28 181.334 201.675 180.915 201.714 180.353C202.174 175.5 202.516 170.569 202.74 165.717C202.74 165.115 202.818 164.409 202.871 163.781C203.147 160.655 203.476 156.771 201.215 154.783C198.927 152.769 192.788 152.245 190.777 152.167C190.659 154.508 190.041 162.329 187.083 167.731C184.125 173.133 179.971 173.878 178.368 174.009L177.369 187.141Z" fill="#141414"/>
<path d="M226.948 221.295C226.948 221.295 207.173 200.448 199.355 192.607C192.089 185.344 170.96 178.735 161.342 189.146C161.342 189.146 145.575 211.16 142.487 223.957L151.685 229.608C149.671 244.772 148.487 260.035 148.137 275.328C165.586 289.095 210.195 266.805 210.195 266.805L206.161 235.338L213.375 242.549L226.948 221.295Z" fill="#1FBCFF"/>
<path d="M200.091 177.948C199.646 177.945 199.204 177.888 198.778 177.779C198.165 177.59 197.606 177.292 197.137 176.903C196.669 176.515 196.302 176.045 196.061 175.525C196.025 175.458 196.005 175.385 196.001 175.311C195.998 175.237 196.011 175.163 196.041 175.094C196.071 175.024 196.117 174.96 196.175 174.906C196.234 174.851 196.304 174.807 196.383 174.776C196.461 174.745 196.546 174.728 196.632 174.725C196.719 174.722 196.805 174.733 196.886 174.759C196.967 174.785 197.041 174.824 197.105 174.874C197.168 174.924 197.219 174.985 197.256 175.052C197.425 175.424 197.683 175.761 198.013 176.042C198.343 176.324 198.738 176.543 199.172 176.686C200.165 176.892 201.212 176.775 202.112 176.359C202.266 176.29 202.445 176.275 202.611 176.317C202.778 176.359 202.919 176.455 203.005 176.585C203.048 176.648 203.076 176.718 203.087 176.791C203.099 176.863 203.092 176.937 203.069 177.008C203.046 177.079 203.006 177.144 202.952 177.201C202.898 177.258 202.831 177.305 202.755 177.34C201.937 177.724 201.023 177.932 200.091 177.948Z" fill="#141414"/>
<path d="M192.777 167.26C192.685 166.014 192.25 164.818 191.518 163.804C191.073 162.947 190.496 162.166 189.809 161.487C189.465 161.144 189.048 160.883 188.589 160.722C188.131 160.562 187.642 160.506 187.159 160.56C186.739 160.651 186.343 160.828 185.996 161.081C185.649 161.335 185.359 161.658 185.145 162.03C184.734 162.781 184.49 163.612 184.429 164.466C184.281 166.326 184.623 168.191 185.42 169.878C186.218 171.564 187.443 173.013 188.974 174.08L188.709 173.775" fill="#E7E7E7"/>
<path d="M189.003 174.724C188.869 174.725 188.739 174.683 188.631 174.604C186.997 173.468 185.69 171.924 184.841 170.125C183.991 168.327 183.627 166.337 183.787 164.355C183.859 163.422 184.136 162.517 184.597 161.703C184.853 161.246 185.205 160.851 185.629 160.544C186.052 160.238 186.538 160.027 187.052 159.926C187.635 159.852 188.226 159.912 188.783 160.1C189.339 160.288 189.845 160.601 190.263 161.013C190.995 161.723 191.612 162.542 192.095 163.44C192.889 164.562 193.35 165.886 193.422 167.259C193.422 167.434 193.352 167.603 193.227 167.727C193.103 167.852 192.934 167.921 192.758 167.921C192.582 167.921 192.413 167.852 192.289 167.727C192.164 167.603 192.095 167.434 192.095 167.259C192.004 166.131 191.599 165.052 190.927 164.143C190.513 163.347 189.98 162.618 189.348 161.981C189.074 161.711 188.744 161.503 188.382 161.373C188.02 161.242 187.634 161.192 187.251 161.225C186.925 161.297 186.618 161.436 186.35 161.635C186.082 161.834 185.86 162.088 185.698 162.379C185.333 163.04 185.12 163.774 185.074 164.527C184.946 166.156 185.216 167.792 185.861 169.293C186.506 170.794 187.507 172.117 188.777 173.146C188.946 173.163 189.102 173.244 189.215 173.371L189.48 173.676C189.587 173.797 189.645 173.953 189.645 174.114C189.645 174.275 189.587 174.43 189.48 174.551C189.416 174.61 189.341 174.655 189.259 174.685C189.177 174.714 189.09 174.728 189.003 174.724Z" fill="#141414"/>
<path d="M206.938 237.908C206.76 237.908 206.59 237.835 206.464 237.706C201.439 232.382 196.696 226.784 192.259 220.936C192.157 220.792 192.114 220.613 192.139 220.437C192.163 220.26 192.254 220.101 192.39 219.991C192.53 219.884 192.706 219.838 192.878 219.863C193.051 219.888 193.207 219.983 193.312 220.126C197.716 225.932 202.423 231.489 207.412 236.774C207.474 236.836 207.522 236.909 207.555 236.99C207.589 237.071 207.606 237.158 207.606 237.246C207.606 237.334 207.589 237.422 207.555 237.503C207.522 237.584 207.474 237.657 207.412 237.719C207.351 237.783 207.277 237.833 207.195 237.866C207.113 237.898 207.026 237.913 206.938 237.908Z" fill="#141414"/>
<path d="M176.036 304.317C175.886 304.324 175.739 304.272 175.626 304.174C175.293 303.901 167.671 297.312 167.632 286.914C167.632 286.744 167.698 286.581 167.815 286.459C167.933 286.338 168.092 286.268 168.26 286.265C168.343 286.265 168.426 286.281 168.503 286.314C168.58 286.347 168.65 286.395 168.708 286.456C168.767 286.516 168.813 286.588 168.844 286.667C168.874 286.745 168.889 286.83 168.888 286.914C168.888 296.701 176.356 303.121 176.433 303.173C176.562 303.286 176.642 303.446 176.656 303.618C176.671 303.791 176.618 303.962 176.51 304.096C176.449 304.163 176.376 304.217 176.295 304.255C176.213 304.293 176.125 304.314 176.036 304.317Z" fill="#141414"/>
<path d="M200.11 160.897C200.309 159.948 200.165 159.115 199.79 159.036C199.414 158.958 198.949 159.664 198.75 160.613C198.552 161.562 198.695 162.395 199.071 162.474C199.446 162.552 199.912 161.846 200.11 160.897Z" fill="#141414"/>
<path d="M151.552 225.659H151.442C151.262 225.627 151.103 225.529 150.997 225.387C150.892 225.245 150.849 225.069 150.877 224.897C151.029 223.938 154.898 201.315 159.249 193.76C159.292 193.684 159.351 193.617 159.422 193.563C159.493 193.509 159.574 193.469 159.662 193.446C159.749 193.422 159.841 193.416 159.931 193.427C160.021 193.438 160.107 193.467 160.186 193.511C160.265 193.551 160.335 193.605 160.392 193.672C160.448 193.738 160.49 193.815 160.515 193.897C160.539 193.98 160.546 194.066 160.534 194.151C160.523 194.236 160.493 194.317 160.447 194.391C156.22 201.748 152.268 224.871 152.185 225.107C152.163 225.255 152.088 225.391 151.972 225.491C151.857 225.592 151.708 225.651 151.552 225.659Z" fill="#141414"/>
<path d="M398.42 327.204C398.585 324.722 398.061 322.243 396.904 320.044C395.95 318.454 394.487 317.193 393.703 315.512C392.396 312.595 393.298 309.166 392.984 305.974C392.701 303.295 391.527 300.791 389.652 298.867C387.993 297.185 385.85 296.016 384.255 294.255C381.642 291.365 380.91 287.306 379.434 283.745C377.315 278.644 373.659 274.339 368.98 271.436C371.816 277.177 365.348 284.481 368.288 290.17C369.215 291.983 370.979 293.296 371.672 295.214C373.305 299.826 367.83 304.831 369.581 309.416C370.457 311.702 372.9 313.029 374.037 315.196C375.566 318.113 374.364 321.673 374.481 324.971C374.651 329.529 377.408 333.602 380.688 336.794C382.727 338.752 385 340.459 387.222 342.233C389.835 344.361 390.972 346.582 393.285 343.179C396.507 338.47 398.292 332.918 398.42 327.204Z" fill="#02DAC5"/>
<path d="M401.28 329.606C400.412 326.094 399.798 322.268 401.28 318.952C402.922 315.204 407.047 312.544 407.527 308.469C407.848 305.848 406.473 303.109 407.007 300.488C407.541 297.867 409.676 296.072 411.532 294.132C415.681 289.656 418.148 283.923 418.527 277.883C421.311 281.124 423.563 284.772 425.202 288.694C426.617 292.691 426.644 297.382 424.227 300.894C423.538 301.71 422.972 302.62 422.545 303.594C421.731 306.215 423.987 308.6 425.149 311.063C425.84 312.466 426.129 314.026 425.985 315.577C425.842 317.129 425.271 318.612 424.334 319.869C421.958 322.766 417.406 323.892 416.231 327.418C415.943 328.735 415.809 330.08 415.831 331.427C415.579 333.761 414.623 335.967 413.087 337.764C411.551 339.562 409.504 340.869 407.207 341.518C404.417 342.186 404.47 341.099 403.963 338.779C403.255 335.686 402.067 332.686 401.28 329.606Z" fill="#02DAC5"/>
<path d="M392.711 304.494C390.785 297.783 390.022 290.76 387.993 284.076C386.266 278.853 384.158 273.766 381.686 268.857L389.945 272.362C392.594 273.496 395.463 274.825 396.717 277.431C398.888 281.978 394.985 287.855 397.273 292.298C398.263 293.756 399.355 295.141 400.543 296.441C402.972 299.881 402.598 304.624 401.266 308.624C400.685 310.344 398.19 319.257 395.955 316.781C395.05 315.791 394.972 312.103 394.598 310.748C394.016 308.65 393.318 306.592 392.711 304.494Z" fill="#02DAC5"/>
<path d="M397.726 393.936C396.026 382.939 390.713 344.155 390.713 343.816L392.041 343.646C392.041 344.038 397.355 382.782 399.095 393.74L397.726 393.936Z" fill="#141414"/>
<path d="M399.116 404.253H397.805C397.91 391.185 403.361 341.268 406.507 337.844L407.476 338.733C405.38 340.993 399.247 386.35 399.116 404.253Z" fill="#141414"/>
<path d="M402.14 402.318H400.798C402.14 374.063 395.938 314.722 395.871 314.133L397.213 313.989C397.28 314.539 403.429 373.971 402.14 402.318Z" fill="#141414"/>
<path d="M382.976 362.344H413.924L411.765 397.84C411.388 403.993 406.876 408.765 401.441 408.765H395.459C390.024 408.765 385.525 403.993 385.148 397.84L382.976 362.344Z" fill="#B4B4B4"/>
<path d="M401.43 409.41H395.459C389.707 409.41 384.891 404.342 384.489 397.869L382.334 362.421C382.326 362.329 382.338 362.236 382.368 362.149C382.398 362.061 382.446 361.981 382.508 361.913C382.57 361.845 382.646 361.791 382.73 361.754C382.814 361.718 382.904 361.699 382.996 361.699H413.893C414.078 361.702 414.255 361.777 414.387 361.909C414.509 362.051 414.573 362.233 414.568 362.421L412.4 397.869C412.011 404.329 407.194 409.41 401.43 409.41ZM383.71 363.025L385.826 397.764C386.176 403.528 390.408 408.031 395.459 408.031H401.43C406.48 408.031 410.713 403.528 411.063 397.764L413.179 362.999L383.71 363.025Z" fill="#141414"/>
<path d="M414.28 239.843H350.094L364.566 132.172H428.752L414.28 239.843Z" fill="#1D1D1D"/>
<path d="M414.291 240.488H350.1C350.008 240.489 349.916 240.469 349.832 240.431C349.749 240.392 349.674 240.336 349.614 240.266C349.551 240.198 349.503 240.117 349.476 240.029C349.449 239.94 349.442 239.847 349.457 239.755L363.891 132.09C363.916 131.934 363.995 131.792 364.115 131.688C364.236 131.585 364.388 131.528 364.547 131.527H428.738C428.832 131.528 428.925 131.548 429.011 131.586C429.096 131.625 429.173 131.68 429.237 131.75C429.355 131.897 429.411 132.085 429.394 132.273L414.96 239.925C414.935 240.084 414.854 240.228 414.731 240.331C414.608 240.434 414.452 240.49 414.291 240.488ZM350.848 239.179H413.714L428.016 132.836H365.15L350.848 239.179Z" fill="#141414"/>
<path d="M403.378 223.724H366.58C365.97 223.738 365.364 223.616 364.806 223.367C364.248 223.118 363.751 222.747 363.352 222.281C362.953 221.815 362.66 221.266 362.496 220.673C362.332 220.08 362.3 219.457 362.403 218.85L362.901 215.06C363.108 213.73 363.77 212.515 364.772 211.625C365.774 210.735 367.053 210.226 368.388 210.187H405.172C405.783 210.17 406.39 210.29 406.949 210.539C407.509 210.787 408.006 211.158 408.406 211.625C408.806 212.091 409.098 212.641 409.261 213.235C409.424 213.83 409.454 214.453 409.349 215.06L408.851 218.85C408.649 220.181 407.991 221.397 406.99 222.288C405.99 223.178 404.711 223.687 403.378 223.724Z" fill="#BB86FC"/>
<path d="M405.946 204.381H369.162C368.551 204.398 367.944 204.278 367.384 204.029C366.825 203.781 366.328 203.41 365.928 202.943C365.528 202.477 365.236 201.927 365.073 201.333C364.91 200.739 364.88 200.115 364.985 199.508L365.482 195.718C365.685 194.385 366.345 193.167 367.348 192.276C368.351 191.385 369.633 190.878 370.969 190.844H407.753C408.364 190.83 408.97 190.952 409.528 191.201C410.086 191.451 410.583 191.821 410.982 192.287C411.381 192.753 411.673 193.302 411.837 193.895C412.001 194.488 412.033 195.111 411.931 195.718L411.433 199.508C411.226 200.838 410.564 202.054 409.562 202.944C408.56 203.833 407.281 204.342 405.946 204.381Z" fill="#1D1D1D"/>
<path d="M405.942 205.027H369.165C368.467 205.039 367.774 204.899 367.135 204.617C366.495 204.334 365.924 203.915 365.46 203.389C365.001 202.849 364.663 202.216 364.469 201.533C364.274 200.849 364.228 200.131 364.334 199.428L364.844 195.639C365.073 194.153 365.812 192.794 366.932 191.801C368.051 190.807 369.481 190.24 370.972 190.199H407.749C408.447 190.187 409.14 190.326 409.779 190.609C410.419 190.892 410.99 191.31 411.454 191.836C411.912 192.377 412.249 193.011 412.443 193.694C412.637 194.377 412.684 195.094 412.58 195.797L412.07 199.587C411.841 201.073 411.102 202.431 409.983 203.425C408.863 204.419 407.433 204.986 405.942 205.027ZM370.972 191.493C369.796 191.525 368.668 191.972 367.786 192.757C366.903 193.541 366.321 194.612 366.14 195.784L365.63 199.574C365.549 200.094 365.58 200.627 365.72 201.134C365.86 201.642 366.106 202.114 366.442 202.518C366.784 202.902 367.205 203.207 367.675 203.412C368.145 203.617 368.653 203.717 369.165 203.706H405.942C407.12 203.673 408.249 203.224 409.132 202.438C410.015 201.651 410.596 200.577 410.774 199.402L411.284 195.613C411.366 195.091 411.334 194.557 411.192 194.049C411.049 193.541 410.8 193.07 410.459 192.668C410.118 192.288 409.699 191.986 409.231 191.783C408.764 191.58 408.258 191.481 407.749 191.493H370.972Z" fill="#B4B4B4"/>
<path d="M408.526 184.394H371.751C371.139 184.411 370.532 184.291 369.972 184.042C369.413 183.793 368.914 183.423 368.514 182.957C368.113 182.491 367.82 181.941 367.655 181.347C367.49 180.753 367.458 180.129 367.561 179.521L368.072 175.731C368.271 174.4 368.929 173.182 369.929 172.291C370.93 171.4 372.21 170.892 373.544 170.858H410.32C410.931 170.841 411.539 170.962 412.098 171.21C412.658 171.459 413.156 171.829 413.557 172.295C413.957 172.761 414.251 173.311 414.415 173.905C414.58 174.499 414.612 175.123 414.509 175.731L413.999 179.521C413.799 180.853 413.142 182.07 412.141 182.962C411.14 183.853 409.861 184.36 408.526 184.394Z" fill="#1D1D1D"/>
<path d="M408.523 185.039H371.755C371.05 185.057 370.35 184.917 369.705 184.63C369.06 184.344 368.486 183.916 368.024 183.38C367.562 182.843 367.224 182.21 367.034 181.526C366.844 180.843 366.807 180.125 366.925 179.425L367.423 175.643C367.654 174.16 368.393 172.806 369.512 171.814C370.631 170.823 372.058 170.256 373.548 170.213H410.316C411.021 170.195 411.721 170.335 412.366 170.622C413.011 170.909 413.585 171.336 414.047 171.872C414.509 172.409 414.847 173.042 415.037 173.726C415.227 174.41 415.264 175.127 415.146 175.827L414.648 179.609C414.417 181.092 413.678 182.446 412.559 183.438C411.44 184.429 410.012 184.996 408.523 185.039ZM373.548 171.531C372.372 171.566 371.244 172.015 370.362 172.8C369.48 173.585 368.898 174.656 368.718 175.827L368.221 179.609C368.141 180.127 368.173 180.656 368.313 181.161C368.453 181.665 368.698 182.134 369.032 182.535C369.375 182.918 369.795 183.223 370.265 183.427C370.735 183.632 371.243 183.732 371.755 183.721H408.523C409.699 183.686 410.827 183.237 411.709 182.452C412.591 181.667 413.173 180.596 413.353 179.425L413.837 175.643C413.929 175.129 413.906 174.602 413.769 174.099C413.632 173.596 413.385 173.13 413.046 172.736C412.708 172.341 412.285 172.029 411.81 171.82C411.336 171.612 410.82 171.513 410.303 171.531H373.548Z" fill="#B4B4B4"/>
<path d="M411.76 164.408H374.962C374.352 164.422 373.746 164.301 373.188 164.051C372.63 163.802 372.133 163.431 371.734 162.965C371.335 162.499 371.042 161.95 370.878 161.357C370.714 160.764 370.682 160.141 370.785 159.535L371.283 155.744C371.487 154.413 372.149 153.196 373.151 152.306C374.154 151.415 375.434 150.908 376.769 150.871H413.554C414.165 150.854 414.772 150.974 415.331 151.223C415.89 151.471 416.388 151.842 416.788 152.309C417.188 152.775 417.48 153.325 417.643 153.919C417.806 154.514 417.836 155.137 417.731 155.744L417.233 159.535C417.031 160.865 416.373 162.081 415.372 162.972C414.372 163.862 413.093 164.371 411.76 164.408Z" fill="#1D1D1D"/>
<path d="M411.203 165.05H374.412C373.699 165.076 372.989 164.943 372.332 164.661C371.676 164.378 371.089 163.953 370.615 163.415C370.159 162.874 369.822 162.241 369.628 161.559C369.434 160.877 369.387 160.16 369.489 159.458L370 155.673C370.226 154.186 370.964 152.826 372.083 151.83C373.203 150.835 374.634 150.267 376.127 150.226H412.906C413.604 150.211 414.297 150.35 414.937 150.633C415.577 150.915 416.148 151.334 416.611 151.861C417.07 152.401 417.408 153.033 417.602 153.716C417.796 154.399 417.842 155.116 417.737 155.818L417.239 159.603C417.014 161.074 416.289 162.421 415.188 163.414C414.088 164.407 412.68 164.986 411.203 165.05ZM376.18 151.531C375.003 151.567 373.875 152.016 372.993 152.801C372.11 153.587 371.528 154.659 371.348 155.831L370.851 159.616C370.759 160.129 370.782 160.656 370.918 161.158C371.054 161.66 371.3 162.126 371.638 162.52C371.975 162.915 372.396 163.228 372.869 163.438C373.342 163.647 373.856 163.748 374.373 163.732H411.203C412.377 163.696 413.501 163.248 414.381 162.465C415.262 161.682 415.842 160.614 416.022 159.445L416.532 155.66C416.613 155.139 416.582 154.608 416.442 154.101C416.302 153.593 416.056 153.122 415.721 152.718C415.378 152.335 414.957 152.03 414.487 151.826C414.017 151.621 413.509 151.52 412.997 151.531H376.18Z" fill="#B4B4B4"/>
<path d="M410.042 143.132H381.7C381.525 143.132 381.358 143.065 381.234 142.944C381.111 142.823 381.042 142.659 381.042 142.488C381.045 142.318 381.115 142.156 381.238 142.036C381.361 141.915 381.526 141.846 381.7 141.843H410.042C410.216 141.843 410.384 141.911 410.507 142.032C410.631 142.153 410.7 142.317 410.7 142.488C410.7 142.572 410.683 142.656 410.65 142.734C410.617 142.813 410.568 142.884 410.507 142.944C410.446 143.004 410.374 143.051 410.294 143.083C410.214 143.116 410.128 143.132 410.042 143.132Z" fill="#B4B4B4"/>
</svg>
