<svg width="46" height="46" viewBox="0 0 46 46" fill="none" xmlns="http://www.w3.org/2000/svg">
<circle cx="23" cy="23" r="23" fill="#404040"/>
<mask id="mask0_650_10668" style="mask-type:alpha" maskUnits="userSpaceOnUse" x="10" y="10" width="26" height="26">
<path d="M22.9848 10.0001C22.7267 10.0042 22.4808 10.1105 22.301 10.2957C22.1212 10.4809 22.0223 10.7299 22.026 10.988V12.9359C22.0242 13.065 22.0481 13.1931 22.0962 13.3129C22.1443 13.4327 22.2158 13.5417 22.3064 13.6336C22.397 13.7255 22.505 13.7985 22.6241 13.8483C22.7431 13.8981 22.8709 13.9237 23 13.9237C23.1291 13.9237 23.2569 13.8981 23.3759 13.8483C23.495 13.7985 23.603 13.7255 23.6936 13.6336C23.7842 13.5417 23.8557 13.4327 23.9038 13.3129C23.9519 13.1931 23.9758 13.065 23.974 12.9359V10.988C23.9758 10.8577 23.9515 10.7283 23.9024 10.6075C23.8534 10.4867 23.7806 10.377 23.6883 10.2849C23.5961 10.1927 23.4863 10.1201 23.3654 10.0711C23.2446 10.0222 23.1151 9.99808 22.9848 10.0001ZM14.4956 13.5231C14.3018 13.5231 14.1124 13.581 13.9516 13.6893C13.7909 13.7976 13.6661 13.9514 13.5932 14.131C13.5204 14.3106 13.5027 14.5079 13.5426 14.6976C13.5825 14.8873 13.6781 15.0607 13.8171 15.1958L15.1944 16.573C15.3772 16.7558 15.6251 16.8585 15.8836 16.8585C16.1421 16.8585 16.3901 16.7558 16.5729 16.573C16.7557 16.3902 16.8584 16.1423 16.8584 15.8838C16.8584 15.6253 16.7557 15.3773 16.5729 15.1945L15.1956 13.8173C15.1046 13.7239 14.9957 13.6497 14.8755 13.5992C14.7552 13.5486 14.626 13.5228 14.4956 13.5231ZM31.474 13.5231C31.221 13.5305 30.9809 13.636 30.8044 13.8173L29.4271 15.1945C29.2443 15.3773 29.1416 15.6253 29.1416 15.8838C29.1416 16.1423 29.2443 16.3902 29.4271 16.573C29.6099 16.7558 29.8579 16.8585 30.1164 16.8585C30.3749 16.8585 30.6228 16.7558 30.8056 16.573L32.1829 15.1958C32.3239 15.059 32.4203 14.8827 32.4593 14.69C32.4983 14.4974 32.4782 14.2975 32.4015 14.1166C32.3248 13.9356 32.1952 13.7821 32.0296 13.6762C31.8641 13.5703 31.6704 13.5169 31.474 13.5231ZM23 15.8578C19.0669 15.8578 15.8576 19.067 15.8576 23.0001C15.8576 26.9332 19.0669 30.1424 23 30.1424C26.9331 30.1424 30.1424 26.9332 30.1424 23.0001C30.1424 19.067 26.9331 15.8578 23 15.8578ZM23 17.8057C25.8804 17.8057 28.1945 20.1198 28.1945 23.0001C28.1945 25.8804 25.8804 28.1945 23 28.1945C20.1196 28.1945 17.8055 25.8804 17.8055 23.0001C17.8055 20.1198 20.1196 17.8057 23 17.8057ZM10.9878 22.0261C10.8588 22.0243 10.7306 22.0482 10.6109 22.0963C10.4911 22.1444 10.3821 22.2159 10.2902 22.3065C10.1983 22.3971 10.1253 22.5051 10.0755 22.6242C10.0257 22.7432 10 22.871 10 23.0001C10 23.1292 10.0257 23.257 10.0755 23.376C10.1253 23.4951 10.1983 23.6031 10.2902 23.6937C10.3821 23.7843 10.4911 23.8558 10.6109 23.9039C10.7306 23.952 10.8588 23.9759 10.9878 23.9741H12.9358C13.0648 23.9759 13.1929 23.952 13.3127 23.9039C13.4325 23.8558 13.5415 23.7843 13.6334 23.6937C13.7253 23.6031 13.7983 23.4951 13.8481 23.376C13.8979 23.257 13.9236 23.1292 13.9236 23.0001C13.9236 22.871 13.8979 22.7432 13.8481 22.6242C13.7983 22.5051 13.7253 22.3971 13.6334 22.3065C13.5415 22.2159 13.4325 22.1444 13.3127 22.0963C13.1929 22.0482 13.0648 22.0243 12.9358 22.0261H10.9878ZM33.0643 22.0261C32.9352 22.0243 32.8071 22.0482 32.6873 22.0963C32.5675 22.1444 32.4585 22.2159 32.3666 22.3065C32.2747 22.3971 32.2017 22.5051 32.1519 22.6242C32.1021 22.7432 32.0764 22.871 32.0764 23.0001C32.0764 23.1292 32.1021 23.257 32.1519 23.376C32.2017 23.4951 32.2747 23.6031 32.3666 23.6937C32.4585 23.7843 32.5675 23.8558 32.6873 23.9039C32.8071 23.952 32.9352 23.9759 33.0643 23.9741H35.0122C35.1412 23.9759 35.2694 23.952 35.3891 23.9039C35.5089 23.8558 35.6179 23.7843 35.7098 23.6937C35.8017 23.6031 35.8747 23.4951 35.9245 23.376C35.9743 23.257 36 23.1292 36 23.0001C36 22.871 35.9743 22.7432 35.9245 22.6242C35.8747 22.5051 35.8017 22.3971 35.7098 22.3065C35.6179 22.2159 35.5089 22.1444 35.3891 22.0963C35.2694 22.0482 35.1412 22.0243 35.0122 22.0261H33.0643ZM15.864 29.133C15.611 29.1403 15.3709 29.2458 15.1944 29.4272L13.8171 30.8044C13.7266 30.8949 13.6548 31.0024 13.6057 31.1206C13.5567 31.2389 13.5315 31.3657 13.5315 31.4937C13.5315 31.6217 13.5567 31.7485 13.6057 31.8668C13.6547 31.985 13.7265 32.0925 13.817 32.183C13.9075 32.2736 14.015 32.3454 14.1333 32.3944C14.2515 32.4433 14.3783 32.4686 14.5063 32.4685C14.6344 32.4685 14.7611 32.4433 14.8794 32.3943C14.9977 32.3453 15.1051 32.2734 15.1956 32.1829L16.5729 30.8057C16.7139 30.6688 16.8103 30.4925 16.8493 30.2999C16.8884 30.1073 16.8682 29.9074 16.7915 29.7264C16.7148 29.5455 16.5852 29.392 16.4197 29.2861C16.2541 29.1801 16.0604 29.1268 15.864 29.133ZM30.1056 29.133C29.9118 29.133 29.7224 29.1909 29.5616 29.2992C29.4008 29.4075 29.2761 29.5613 29.2032 29.7409C29.1303 29.9205 29.1127 30.1178 29.1526 30.3075C29.1925 30.4971 29.2881 30.6706 29.4271 30.8057L30.8044 32.1829C30.8949 32.2734 31.0023 32.3452 31.1206 32.3942C31.2389 32.4432 31.3656 32.4684 31.4936 32.4684C31.6216 32.4684 31.7484 32.4432 31.8666 32.3942C31.9849 32.3452 32.0924 32.2734 32.1829 32.1829C32.2734 32.0924 32.3452 31.9849 32.3942 31.8667C32.4432 31.7484 32.4684 31.6217 32.4684 31.4936C32.4684 31.3656 32.4432 31.2389 32.3942 31.1206C32.3452 31.0024 32.2734 30.8949 32.1829 30.8044L30.8056 29.4272C30.7146 29.3338 30.6057 29.2596 30.4855 29.209C30.3652 29.1585 30.236 29.1326 30.1056 29.133ZM22.9848 32.0764C22.7267 32.0804 22.4808 32.1867 22.301 32.3719C22.1212 32.5572 22.0223 32.8062 22.026 33.0643V35.0122C22.0242 35.1412 22.0481 35.2694 22.0962 35.3891C22.1443 35.5089 22.2158 35.6179 22.3064 35.7098C22.397 35.8017 22.505 35.8747 22.6241 35.9245C22.7431 35.9743 22.8709 36 23 36C23.1291 36 23.2569 35.9743 23.3759 35.9245C23.495 35.8747 23.603 35.8017 23.6936 35.7098C23.7842 35.6179 23.8557 35.5089 23.9038 35.3891C23.9519 35.2694 23.9758 35.1412 23.974 35.0122V33.0643C23.9758 32.9339 23.9515 32.8045 23.9024 32.6837C23.8534 32.5629 23.7806 32.4532 23.6883 32.3611C23.5961 32.269 23.4863 32.1963 23.3654 32.1474C23.2446 32.0985 23.1151 32.0743 22.9848 32.0764Z" fill="black"/>
</mask>
<g mask="url(#mask0_650_10668)">
<path d="M22.9848 10.0001C22.7267 10.0042 22.4808 10.1105 22.301 10.2957C22.1212 10.4809 22.0223 10.7299 22.026 10.988V12.9359C22.0242 13.065 22.0481 13.1931 22.0962 13.3129C22.1443 13.4327 22.2158 13.5417 22.3064 13.6336C22.397 13.7255 22.505 13.7985 22.6241 13.8483C22.7431 13.8981 22.8709 13.9237 23 13.9237C23.1291 13.9237 23.2569 13.8981 23.3759 13.8483C23.495 13.7985 23.603 13.7255 23.6936 13.6336C23.7842 13.5417 23.8557 13.4327 23.9038 13.3129C23.9519 13.1931 23.9758 13.065 23.974 12.9359V10.988C23.9758 10.8577 23.9515 10.7283 23.9024 10.6075C23.8534 10.4867 23.7806 10.377 23.6883 10.2849C23.5961 10.1927 23.4863 10.1201 23.3654 10.0711C23.2446 10.0222 23.1151 9.99808 22.9848 10.0001ZM14.4956 13.5231C14.3018 13.5231 14.1124 13.581 13.9516 13.6893C13.7909 13.7976 13.6661 13.9514 13.5932 14.131C13.5204 14.3106 13.5027 14.5079 13.5426 14.6976C13.5825 14.8873 13.6781 15.0607 13.8171 15.1958L15.1944 16.573C15.3772 16.7558 15.6251 16.8585 15.8836 16.8585C16.1421 16.8585 16.3901 16.7558 16.5729 16.573C16.7557 16.3902 16.8584 16.1423 16.8584 15.8838C16.8584 15.6253 16.7557 15.3773 16.5729 15.1945L15.1956 13.8173C15.1046 13.7239 14.9957 13.6497 14.8755 13.5992C14.7552 13.5486 14.626 13.5228 14.4956 13.5231ZM31.474 13.5231C31.221 13.5305 30.9809 13.636 30.8044 13.8173L29.4271 15.1945C29.2443 15.3773 29.1416 15.6253 29.1416 15.8838C29.1416 16.1423 29.2443 16.3902 29.4271 16.573C29.6099 16.7558 29.8579 16.8585 30.1164 16.8585C30.3749 16.8585 30.6228 16.7558 30.8056 16.573L32.1829 15.1958C32.3239 15.059 32.4203 14.8827 32.4593 14.69C32.4983 14.4974 32.4782 14.2975 32.4015 14.1166C32.3248 13.9356 32.1952 13.7821 32.0296 13.6762C31.8641 13.5703 31.6704 13.5169 31.474 13.5231ZM23 15.8578C19.0669 15.8578 15.8576 19.067 15.8576 23.0001C15.8576 26.9332 19.0669 30.1424 23 30.1424C26.9331 30.1424 30.1424 26.9332 30.1424 23.0001C30.1424 19.067 26.9331 15.8578 23 15.8578ZM23 17.8057C25.8804 17.8057 28.1945 20.1198 28.1945 23.0001C28.1945 25.8804 25.8804 28.1945 23 28.1945C20.1196 28.1945 17.8055 25.8804 17.8055 23.0001C17.8055 20.1198 20.1196 17.8057 23 17.8057ZM10.9878 22.0261C10.8588 22.0243 10.7306 22.0482 10.6109 22.0963C10.4911 22.1444 10.3821 22.2159 10.2902 22.3065C10.1983 22.3971 10.1253 22.5051 10.0755 22.6242C10.0257 22.7432 10 22.871 10 23.0001C10 23.1292 10.0257 23.257 10.0755 23.376C10.1253 23.4951 10.1983 23.6031 10.2902 23.6937C10.3821 23.7843 10.4911 23.8558 10.6109 23.9039C10.7306 23.952 10.8588 23.9759 10.9878 23.9741H12.9358C13.0648 23.9759 13.1929 23.952 13.3127 23.9039C13.4325 23.8558 13.5415 23.7843 13.6334 23.6937C13.7253 23.6031 13.7983 23.4951 13.8481 23.376C13.8979 23.257 13.9236 23.1292 13.9236 23.0001C13.9236 22.871 13.8979 22.7432 13.8481 22.6242C13.7983 22.5051 13.7253 22.3971 13.6334 22.3065C13.5415 22.2159 13.4325 22.1444 13.3127 22.0963C13.1929 22.0482 13.0648 22.0243 12.9358 22.0261H10.9878ZM33.0643 22.0261C32.9352 22.0243 32.8071 22.0482 32.6873 22.0963C32.5675 22.1444 32.4585 22.2159 32.3666 22.3065C32.2747 22.3971 32.2017 22.5051 32.1519 22.6242C32.1021 22.7432 32.0764 22.871 32.0764 23.0001C32.0764 23.1292 32.1021 23.257 32.1519 23.376C32.2017 23.4951 32.2747 23.6031 32.3666 23.6937C32.4585 23.7843 32.5675 23.8558 32.6873 23.9039C32.8071 23.952 32.9352 23.9759 33.0643 23.9741H35.0122C35.1412 23.9759 35.2694 23.952 35.3891 23.9039C35.5089 23.8558 35.6179 23.7843 35.7098 23.6937C35.8017 23.6031 35.8747 23.4951 35.9245 23.376C35.9743 23.257 36 23.1292 36 23.0001C36 22.871 35.9743 22.7432 35.9245 22.6242C35.8747 22.5051 35.8017 22.3971 35.7098 22.3065C35.6179 22.2159 35.5089 22.1444 35.3891 22.0963C35.2694 22.0482 35.1412 22.0243 35.0122 22.0261H33.0643ZM15.864 29.133C15.611 29.1403 15.3709 29.2458 15.1944 29.4272L13.8171 30.8044C13.7266 30.8949 13.6548 31.0024 13.6057 31.1206C13.5567 31.2389 13.5315 31.3657 13.5315 31.4937C13.5315 31.6217 13.5567 31.7485 13.6057 31.8668C13.6547 31.985 13.7265 32.0925 13.817 32.183C13.9075 32.2736 14.015 32.3454 14.1333 32.3944C14.2515 32.4433 14.3783 32.4686 14.5063 32.4685C14.6344 32.4685 14.7611 32.4433 14.8794 32.3943C14.9977 32.3453 15.1051 32.2734 15.1956 32.1829L16.5729 30.8057C16.7139 30.6688 16.8103 30.4925 16.8493 30.2999C16.8884 30.1073 16.8682 29.9074 16.7915 29.7264C16.7148 29.5455 16.5852 29.392 16.4197 29.2861C16.2541 29.1801 16.0604 29.1268 15.864 29.133ZM30.1056 29.133C29.9118 29.133 29.7224 29.1909 29.5616 29.2992C29.4008 29.4075 29.2761 29.5613 29.2032 29.7409C29.1303 29.9205 29.1127 30.1178 29.1526 30.3075C29.1925 30.4971 29.2881 30.6706 29.4271 30.8057L30.8044 32.1829C30.8949 32.2734 31.0023 32.3452 31.1206 32.3942C31.2389 32.4432 31.3656 32.4684 31.4936 32.4684C31.6216 32.4684 31.7484 32.4432 31.8666 32.3942C31.9849 32.3452 32.0924 32.2734 32.1829 32.1829C32.2734 32.0924 32.3452 31.9849 32.3942 31.8667C32.4432 31.7484 32.4684 31.6217 32.4684 31.4936C32.4684 31.3656 32.4432 31.2389 32.3942 31.1206C32.3452 31.0024 32.2734 30.8949 32.1829 30.8044L30.8056 29.4272C30.7146 29.3338 30.6057 29.2596 30.4855 29.209C30.3652 29.1585 30.236 29.1326 30.1056 29.133ZM22.9848 32.0764C22.7267 32.0804 22.4808 32.1867 22.301 32.3719C22.1212 32.5572 22.0223 32.8062 22.026 33.0643V35.0122C22.0242 35.1412 22.0481 35.2694 22.0962 35.3891C22.1443 35.5089 22.2158 35.6179 22.3064 35.7098C22.397 35.8017 22.505 35.8747 22.6241 35.9245C22.7431 35.9743 22.8709 36 23 36C23.1291 36 23.2569 35.9743 23.3759 35.9245C23.495 35.8747 23.603 35.8017 23.6936 35.7098C23.7842 35.6179 23.8557 35.5089 23.9038 35.3891C23.9519 35.2694 23.9758 35.1412 23.974 35.0122V33.0643C23.9758 32.9339 23.9515 32.8045 23.9024 32.6837C23.8534 32.5629 23.7806 32.4532 23.6883 32.3611C23.5961 32.269 23.4863 32.1963 23.3654 32.1474C23.2446 32.0985 23.1151 32.0743 22.9848 32.0764Z" fill="white" fill-opacity="0.8"/>
</g>
</svg>
