<svg width="17" height="17" viewBox="0 0 17 17" fill="none" xmlns="http://www.w3.org/2000/svg">
<path d="M7.09961 0.100098C3.24191 0.100098 0.0996094 3.24239 0.0996094 7.1001C0.0996094 10.9578 3.24191 14.1001 7.09961 14.1001C8.77717 14.1001 10.3178 13.5044 11.5252 12.5155L15.7047 16.695C15.7692 16.7622 15.8464 16.8158 15.9319 16.8528C16.0174 16.8897 16.1094 16.9093 16.2026 16.9102C16.2957 16.9112 16.3881 16.8935 16.4743 16.8583C16.5605 16.8231 16.6389 16.771 16.7047 16.7052C16.7706 16.6393 16.8226 16.561 16.8578 16.4748C16.893 16.3886 16.9107 16.2962 16.9097 16.203C16.9088 16.1099 16.8893 16.0179 16.8523 15.9324C16.8154 15.8469 16.7617 15.7697 16.6945 15.7052L12.515 11.5257C13.5039 10.3183 14.0996 8.77765 14.0996 7.1001C14.0996 3.24239 10.9573 0.100098 7.09961 0.100098ZM7.09961 1.5001C10.2007 1.5001 12.6996 3.99901 12.6996 7.1001C12.6996 10.2012 10.2007 12.7001 7.09961 12.7001C3.99852 12.7001 1.49961 10.2012 1.49961 7.1001C1.49961 3.99901 3.99852 1.5001 7.09961 1.5001Z" fill="white" fill-opacity="0.8"/>
</svg>
