<svg width="16" height="14" viewBox="0 0 16 14" fill="none" xmlns="http://www.w3.org/2000/svg">
<path d="M6.32045 8.77513C5.8892 8.34463 5.6267 7.75963 5.6267 7.10338C5.6267 5.78863 6.6857 4.72888 7.9997 4.72888C8.64995 4.72888 9.24845 4.99213 9.6722 5.42263" stroke="#D9D9D9" stroke-width="1.5" stroke-linecap="round" stroke-linejoin="round"/>
<path d="M10.3286 7.52429C10.1546 8.49179 9.3926 9.25529 8.42585 9.43079" stroke="#D9D9D9" stroke-width="1.5" stroke-linecap="round" stroke-linejoin="round"/>
<path d="M3.99095 11.1042C2.8007 10.1697 1.7927 8.80473 1.0622 7.10298C1.8002 5.39373 2.81495 4.02123 4.0127 3.07923C5.20295 2.13723 6.5762 1.62573 7.9997 1.62573C9.43145 1.62573 10.804 2.14473 12.0017 3.09348" stroke="#D9D9D9" stroke-width="1.5" stroke-linecap="round" stroke-linejoin="round"/>
<path d="M13.5857 4.74316C14.1017 5.42866 14.5555 6.21991 14.9372 7.10266C13.462 10.5204 10.855 12.5792 7.9997 12.5792C7.35245 12.5792 6.7142 12.4742 6.1007 12.2694" stroke="#D9D9D9" stroke-width="1.5" stroke-linecap="round" stroke-linejoin="round"/>
<path d="M13.9152 1.18726L2.08475 13.0178" stroke="#D9D9D9" stroke-width="1.5" stroke-linecap="round" stroke-linejoin="round"/>
</svg>
