<svg width="737" height="663" viewBox="0 0 737 663" fill="none" xmlns="http://www.w3.org/2000/svg">
<g clip-path="url(#clip0_503_5)">
<path opacity="0.1" d="M141.414 164.484C195.013 109.713 236.948 34.8542 299.637 9.52917C362.326 -15.1949 446.025 10.3018 527.151 57.6038C608.278 104.391 687.261 172.983 719.849 262.779C752.436 352.576 739.058 464.177 678.599 528.821C618.14 593.378 510.772 610.29 417.811 631.666C324.421 652.355 246.21 676.907 186.951 653.471C127.693 630.035 87.0439 558.438 52.3979 490.017C17.1516 421.339 -12.4348 355.237 5.31704 304.93C23.0688 254.538 87.73 219.855 141.414 164.484Z" fill="#3885FF"/>
<path d="M586.324 366.397H230.087V383.138H277.94V538.264H294.148V383.224H522.006V538.35H538.214V383.224H586.324V366.397Z" fill="white"/>
<path d="M397.915 329.054H378.877V348.799C378.877 360.045 380.849 366.397 390.883 366.397H397.915" fill="#231F20"/>
<path d="M397.915 329.054H378.877V348.799C378.877 360.045 380.849 366.397 390.883 366.397H397.915" stroke="#231F20" stroke-linecap="round" stroke-linejoin="round"/>
<path d="M409.492 350.086C410.778 350 411.979 349.485 412.922 348.541C413.78 347.597 414.294 346.395 414.294 345.107C414.294 343.819 413.78 342.617 412.922 341.673C412.065 340.729 410.778 340.214 409.492 340.128V336.351C411.808 336.351 414.037 337.295 415.667 338.926C417.296 340.557 418.239 342.789 418.239 345.107C418.239 347.425 417.296 349.657 415.667 351.288C414.037 352.919 411.808 353.863 409.492 353.863" fill="#231F20"/>
<path d="M409.492 350.086C410.778 350 411.979 349.485 412.922 348.541C413.78 347.597 414.294 346.395 414.294 345.107C414.294 343.819 413.78 342.617 412.922 341.673C412.065 340.729 410.778 340.214 409.492 340.128V336.351C411.808 336.351 414.037 337.295 415.667 338.926C417.296 340.557 418.239 342.789 418.239 345.107C418.239 347.425 417.296 349.657 415.667 351.288C414.037 352.919 411.808 353.863 409.492 353.863" stroke="#231F20" stroke-linecap="round" stroke-linejoin="round"/>
<path d="M390.625 329.054H409.664V348.799C409.664 360.045 407.691 366.397 397.658 366.397H390.625" fill="#231F20"/>
<path d="M390.625 329.054H409.664V348.799C409.664 360.045 407.691 366.397 397.658 366.397H390.625" stroke="#231F20" stroke-linecap="round" stroke-linejoin="round"/>
<path d="M251.527 226.38C251.527 226.38 248.268 221.572 244.752 211.185C241.236 200.797 242.608 163.711 242.608 163.711C242.608 162.423 242.008 161.136 241.15 160.191C240.035 159.247 238.492 155.727 237.72 152.723L235.319 143.709L231.974 136.841C231.974 136.841 228.544 131.261 230.002 130.317C231.459 129.372 234.547 135.553 234.547 135.553C234.547 135.553 238.063 141.906 238.663 141.82C239.263 141.734 237.034 136.669 236.176 133.75C235.319 130.832 232.832 123.706 234.89 123.449C236.948 123.191 237.72 127.827 238.749 131.003C239.692 134.18 241.493 139.588 242.265 139.502C243.037 139.502 240.636 131.862 239.949 129.458C239.263 127.054 236.605 121.045 238.492 120.272C240.378 119.5 242.522 125.595 243.208 127.655C243.894 129.716 245.953 137.614 246.639 137.528C247.325 137.442 246.381 129.372 245.952 126.883C245.524 124.479 244.409 120.53 246.124 120.444C247.839 120.358 248.182 123.792 249.469 128.342L252.47 138.901C252.47 138.901 253.585 145.082 254.7 144.911C255.815 144.739 258.387 138.901 259.502 137.098C260.617 135.296 263.104 134.008 263.619 135.21C264.047 136.412 261.389 140.275 261.046 141.992C260.617 143.709 259.845 146.713 259.159 149.976C258.473 153.238 256.329 155.985 255.386 157.53C254.442 159.075 253.328 160.191 253.585 161.737C253.585 161.737 258.302 200.025 260.274 206.12C262.161 212.215 269.965 219.512 269.965 219.512" fill="white"/>
<path d="M337.885 514.398L334.712 526.417L343.116 528.048L355.122 526.331L354.693 515.686" fill="white"/>
<path d="M324.764 237.196C323.735 235.393 323.82 232.045 323.82 232.045L322.791 231.788C337.627 224.491 335.912 192.899 335.912 192.899L300.837 185.773L298.436 196.676C298.436 196.676 298.179 198.651 298.093 201.655C297.321 201.655 293.205 201.655 294.062 206.463C294.834 211.699 298.436 212.3 298.436 212.3C298.436 212.3 298.608 211.699 298.693 212.472C299.465 218.395 301.266 224.662 305.125 228.697C305.125 230.414 305.039 234.02 304.096 234.878C302.81 235.994 298.179 235.307 298.179 235.307C298.179 235.307 283.686 250.674 314.73 256.083C345.774 261.491 332.396 240.888 332.396 240.888C332.396 240.888 325.707 238.999 324.764 237.196Z" fill="white"/>
<path d="M312.157 208.695C312.672 208.695 313.015 208.266 313.015 207.837C313.015 207.322 312.586 206.979 312.157 206.979C311.643 206.979 311.3 207.408 311.3 207.837C311.3 208.352 311.728 208.695 312.157 208.695Z" fill="#231F20" stroke="#231F20" stroke-linecap="round" stroke-linejoin="round"/>
<path d="M325.793 209.296C326.307 209.296 326.65 208.867 326.65 208.438C326.65 207.922 326.222 207.579 325.793 207.579C325.278 207.579 324.935 208.008 324.935 208.438C324.849 208.867 325.278 209.296 325.793 209.296Z" fill="#231F20" stroke="#231F20" stroke-linecap="round" stroke-linejoin="round"/>
<path d="M309.499 191.011C309.499 191.011 326.565 196.762 337.37 194.444C348.09 192.127 349.891 176.417 342.344 171.437C334.883 166.458 325.621 172.468 325.621 172.468C325.621 172.468 320.819 161.651 309.413 165.256C298.007 168.862 299.379 177.447 299.379 177.447C299.379 177.447 288.231 178.133 288.231 189.465C288.231 200.797 300.58 204.403 304.954 200.969C309.413 197.535 309.499 191.011 309.499 191.011Z" fill="#231F20" stroke="#231F20" stroke-miterlimit="10"/>
<path d="M355.122 298.749C355.122 298.749 359.067 303.385 360.182 306.389C361.296 309.394 347.232 337.466 346.975 338.84L352.721 357.468C354.35 354.635 358.981 340.213 358.981 340.213C358.895 339.355 378.191 311.712 377.247 304.758C376.647 300.552 375.189 296.517 373.045 292.911" fill="white"/>
<path d="M332.996 525.129C332.996 525.129 332.739 525.215 332.739 530.451C332.739 535.602 333.854 538.349 333.854 538.349H361.468C361.468 538.349 374.417 538.349 375.446 538.349C376.475 538.349 381.707 537.92 382.736 534.314C383.765 530.709 381.535 530.795 371.244 528.047C360.953 525.3 359.238 524.27 357.009 524.957C352.635 526.245 332.996 525.129 332.996 525.129Z" fill="#231F20" stroke="#231F20" stroke-linejoin="round"/>
<path d="M321.591 527.447L320.133 519.635L301.952 520.493L300.494 527.962" fill="white"/>
<path d="M299.122 538.178H323.82C323.82 538.178 326.565 534.229 325.192 531.052C323.82 527.876 318.589 525.215 312.157 525.215C305.725 525.215 299.122 527.275 297.836 530.537C296.635 533.885 299.122 538.178 299.122 538.178Z" fill="#231F20" stroke="#231F20" stroke-linejoin="round"/>
<path d="M278.283 342.446C278.283 342.446 279.655 353.778 282.485 377.472C285.315 401.08 285.83 402.797 289.946 430.44C294.062 457.997 293.548 516.201 294.148 519.206C294.749 522.211 325.964 521.352 325.878 518.347C325.793 515.6 320.476 393.783 319.532 372.578C319.447 370.518 319.361 369.402 319.361 369.402C319.361 369.402 335.741 421.34 336.941 434.131C338.142 446.836 330.424 512.252 330.424 512.252C330.424 512.252 329.48 516.03 344.659 517.489C359.838 518.948 361.554 517.231 361.554 517.231C361.554 517.231 372.016 444.089 370.215 427.092C368.414 410.094 347.832 339.355 347.832 339.355L278.283 342.446Z" fill="white"/>
<path d="M567.8 217.966L487.96 161.736L484.873 166.115L564.713 222.345L567.8 217.966Z" fill="white"/>
<path d="M486.931 163.882L485.13 162.595L479.47 170.664L481.271 171.952L486.931 163.882Z" fill="#231F20"/>
<path d="M515.917 302.526L573.289 220.799L568.915 217.709L511.543 299.436L515.917 302.526Z" fill="white"/>
<path d="M486.073 175.816L471.666 165.686L461.29 180.451L475.697 190.581L486.073 175.816Z" fill="white"/>
<path d="M477.326 225.693L427.844 190.924L461.461 180.279L475.868 190.409L477.326 225.693Z" fill="white"/>
<path d="M471.495 213.76C476.469 219.77 478.613 225.264 476.469 228.183C472.953 233.248 458.631 229.299 444.653 219.426C430.674 209.554 422.098 197.449 425.7 192.384C428.101 188.95 435.648 189.637 444.653 193.672" fill="white"/>
<path d="M449.627 196.677C448.512 197.364 447.568 198.308 446.797 199.338C445.939 200.54 445.424 201.913 445.167 203.373C444.91 204.832 444.996 206.292 445.424 207.751C445.853 209.125 446.539 210.498 447.568 211.528C448.512 212.644 449.798 213.503 451.084 214.018C452.457 214.619 453.914 214.876 455.372 214.791C456.83 214.705 458.288 214.275 459.574 213.589C460.861 212.902 461.976 211.872 462.833 210.67C463.691 209.468 464.291 208.094 464.548 206.635C464.548 206.635 460.261 203.201 457.516 201.141C455.029 199.51 452.371 197.964 449.627 196.677Z" fill="#68E1FD"/>
<path d="M567.457 232.475L559.997 228.269L565.056 212.73L576.462 221.916L567.457 232.475Z" fill="white"/>
<path d="M492.763 164.054L483.758 157.187L482.3 168.433L492.763 164.054Z" fill="white"/>
<path d="M539.844 311.025H579.721C579.721 311.025 583.751 315.919 583.751 325.104C583.751 334.29 579.721 338.926 579.721 338.926H539.672" fill="#AAA0FD"/>
<path d="M431.961 338.926C431.961 338.926 436.506 334.204 436.506 325.104C436.506 315.919 432.475 311.025 432.475 311.025H539.5C539.5 311.025 543.617 315.919 543.617 325.104C543.617 334.29 539.5 338.926 539.5 338.926H431.961Z" fill="#AAA0FD"/>
<path d="M427.587 313.515H537.785C537.785 313.515 540.958 317.378 540.958 325.019C540.958 332.659 537.785 336.78 537.785 336.78H427.587C427.33 336.78 426.987 336.866 426.815 337.123C426.644 337.295 426.472 337.638 426.472 337.896C426.472 338.153 426.558 338.497 426.815 338.668C426.987 338.84 427.33 339.012 427.587 339.012H539.586C539.586 339.012 543.617 334.29 543.617 325.19C543.617 316.005 539.586 311.111 539.586 311.111H427.587C427.244 311.111 426.987 311.283 426.729 311.541C426.558 311.798 426.386 312.056 426.386 312.399C426.386 312.742 426.472 313 426.729 313.258C426.987 313.343 427.244 313.515 427.587 313.515Z" fill="#AAA0FD"/>
<path d="M470.38 338.926H430.503C430.503 338.926 426.472 343.819 426.472 353.005C426.472 362.19 430.503 366.826 430.503 366.826H470.551" fill="white"/>
<path d="M578.177 366.826C578.177 366.826 573.632 362.105 573.632 353.005C573.632 343.819 577.663 338.926 577.663 338.926H470.637C470.637 338.926 466.521 343.819 466.521 353.005C466.521 362.19 470.637 366.826 470.637 366.826H578.177Z" fill="white"/>
<path d="M582.551 341.415H472.438C472.438 341.415 469.265 345.279 469.265 352.833C469.265 360.388 472.438 364.594 472.438 364.594H582.551C582.808 364.594 583.151 364.68 583.323 364.938C583.494 365.109 583.666 365.453 583.666 365.71C583.666 365.968 583.58 366.311 583.323 366.483C583.151 366.655 582.808 366.826 582.551 366.826H470.551C470.551 366.826 466.521 362.105 466.521 353.005C466.521 343.819 470.551 338.926 470.551 338.926H582.551C582.894 338.926 583.151 339.097 583.323 339.269C583.494 339.527 583.666 339.784 583.666 340.042C583.666 340.385 583.58 340.729 583.323 340.9C583.151 341.158 582.894 341.33 582.551 341.415Z" fill="white"/>
<path d="M479.127 348.369V360.13L483.329 355.924L487.188 359.787V348.369" fill="#68E1FD"/>
<path d="M534.955 286.902H569.258C569.258 286.902 572.774 291.109 572.774 299.007C572.774 306.905 569.258 310.94 569.258 310.94H534.87" fill="white"/>
<path d="M442.251 310.94C442.251 310.94 446.196 306.905 446.196 299.007C446.196 291.109 442.68 286.902 442.68 286.902H534.698C534.698 286.902 538.214 291.109 538.214 299.007C538.214 306.905 534.698 310.94 534.698 310.94H442.251Z" fill="white"/>
<path d="M438.392 289.049H533.154C533.154 289.049 535.899 292.397 535.899 298.921C535.899 305.446 533.154 308.965 533.154 308.965H438.392C438.135 308.965 437.964 309.137 437.792 309.309C437.621 309.48 437.535 309.738 437.535 309.995C437.535 310.253 437.621 310.51 437.792 310.682C437.964 310.854 438.135 310.94 438.392 311.026H534.784C534.784 311.026 538.3 306.991 538.3 299.093C538.3 291.195 534.784 286.988 534.784 286.988H438.392C438.135 286.988 437.792 287.074 437.621 287.332C437.449 287.503 437.278 287.847 437.278 288.104C437.278 288.362 437.363 288.705 437.621 288.877C437.878 288.963 438.135 289.049 438.392 289.049Z" fill="white"/>
<path d="M206.247 468.041C206.247 468.041 197.757 467.783 189.267 479.544C180.777 491.306 167.313 497.229 160.281 486.927C153.334 476.626 160.109 466.925 174.774 462.804C189.524 458.598 206.247 468.041 206.247 468.041Z" fill="#67D2E2"/>
<path d="M205.046 456.279C205.046 456.279 215.68 450.441 225.885 464.692C236.176 478.943 252.727 477.827 256.329 471.732C259.931 465.636 254.528 453.789 236.776 448.724C218.939 443.659 205.046 456.279 205.046 456.279Z" fill="#67D2E2"/>
<path d="M204.103 447.179C198.186 444.776 191.668 444.518 185.579 446.407C175.031 449.411 155.993 446.664 155.478 438.337C154.964 430.01 165.512 423.743 180.605 425.975C195.613 428.121 204.103 447.179 204.103 447.179Z" fill="#67D2E2"/>
<path d="M205.99 418.764C205.99 418.764 198.786 403.226 191.411 398.676C184.036 394.126 168.085 390.95 164.397 401.08C161.824 408.205 171.172 417.047 184.893 416.532C198.614 416.103 205.99 418.764 205.99 418.764Z" fill="#67D2E2"/>
<path d="M208.905 408.291C208.905 408.291 215.166 394.727 221.597 390.778C228.029 386.829 242.008 384.082 245.266 392.838C247.582 399.019 239.349 406.831 227.343 406.402C215.337 405.887 208.905 408.291 208.905 408.291Z" fill="#67D2E2"/>
<path d="M205.046 437.135C205.046 437.135 215.251 431.126 226.657 431.04C238.063 430.954 246.21 432.242 248.011 425.203C249.726 418.163 240.464 413.871 226.571 416.017C212.679 418.077 205.046 437.135 205.046 437.135Z" fill="#67D2E2"/>
<path d="M208.82 393.009C208.82 393.009 201.959 389.49 195.956 380.304C189.867 371.118 186.951 352.06 194.755 349.141C202.559 346.137 211.735 354.378 213.965 369.487C216.28 384.51 208.82 393.009 208.82 393.009Z" fill="#67D2E2"/>
<path d="M476.554 168.69C477.755 167.746 478.527 166.286 478.441 164.054C478.441 161.221 473.553 158.646 475.783 154.955C477.927 151.521 487.017 151.95 486.074 158.646" stroke="#231F20" stroke-linecap="round" stroke-linejoin="round"/>
<path d="M562.312 220.285L486.245 166.802" stroke="#231F20" stroke-linecap="round" stroke-linejoin="round"/>
<path d="M491.991 164.312L564.113 215.134" stroke="#231F20" stroke-linecap="round" stroke-linejoin="round"/>
<path d="M484.358 167.402L481.1 172.124" stroke="#231F20" stroke-linecap="round" stroke-linejoin="round"/>
<path d="M479.299 170.665L482.472 166.115" stroke="#231F20" stroke-linecap="round" stroke-linejoin="round"/>
<path d="M520.376 286.644L561.026 228.783" stroke="#231F20" stroke-linecap="round" stroke-linejoin="round"/>
<path d="M565.742 231.359L526.723 286.903" stroke="#231F20" stroke-linecap="round" stroke-linejoin="round"/>
<path d="M486.073 175.644L471.666 165.428L461.29 180.193L475.697 190.324L486.073 175.644Z" stroke="#231F20" stroke-linecap="round" stroke-linejoin="round"/>
<path d="M427.844 190.668L461.461 180.022L475.868 190.152L477.241 225.436" stroke="#231F20" stroke-linecap="round" stroke-linejoin="round"/>
<path d="M427.844 190.668C431.275 189.294 437.535 190.41 444.653 193.586" stroke="#231F20" stroke-linecap="round" stroke-linejoin="round"/>
<path d="M477.24 225.349C477.24 226.294 476.983 227.238 476.469 228.011C472.953 233.076 458.631 229.127 444.653 219.254C430.674 209.382 422.098 197.277 425.7 192.212C426.215 191.525 426.901 190.924 427.758 190.581" stroke="#231F20" stroke-linecap="round" stroke-linejoin="round"/>
<path d="M471.495 213.589C475.268 218.053 477.326 222.259 477.326 225.35" stroke="#231F20" stroke-linecap="round" stroke-linejoin="round"/>
<path d="M444.653 193.586C449.198 195.646 453.486 198.136 457.516 200.969C462.662 204.574 467.378 208.781 471.495 213.503" stroke="#231F20" stroke-linecap="round" stroke-linejoin="round"/>
<path d="M567.457 232.218L559.997 228.011L565.056 212.473L576.462 221.658L567.457 232.218Z" stroke="#231F20" stroke-linecap="round" stroke-linejoin="round"/>
<path d="M482.643 165.685L482.3 168.261L492.763 163.882L483.758 157.015L482.643 165.685Z" stroke="#231F20" stroke-linecap="round" stroke-linejoin="round"/>
<path d="M534.955 286.902H569.258C569.258 286.902 572.774 291.109 572.774 299.007C572.774 306.905 569.258 310.94 569.258 310.94H534.87" stroke="#231F20" stroke-linejoin="round"/>
<path d="M438.392 289.049H533.154C533.154 289.049 535.899 292.397 535.899 298.921C535.899 305.446 533.154 308.965 533.154 308.965H438.392C438.135 308.965 437.964 309.137 437.792 309.309C437.621 309.48 437.535 309.738 437.535 309.995C437.535 310.253 437.621 310.51 437.792 310.682C437.964 310.854 438.135 310.94 438.392 311.026H534.784C534.784 311.026 538.3 306.991 538.3 299.093C538.3 291.195 534.784 286.988 534.784 286.988H438.392C438.135 286.988 437.792 287.074 437.621 287.332C437.449 287.503 437.278 287.847 437.278 288.104C437.278 288.362 437.363 288.705 437.621 288.877C437.878 288.963 438.135 289.049 438.392 289.049Z" stroke="#231F20" stroke-linecap="round" stroke-linejoin="round"/>
<path d="M427.587 313.515H537.785C537.785 313.515 540.958 317.378 540.958 325.019C540.958 332.659 537.785 336.78 537.785 336.78H427.587C427.33 336.78 426.987 336.866 426.815 337.123C426.644 337.295 426.472 337.638 426.472 337.896C426.472 338.153 426.558 338.497 426.815 338.668C426.987 338.84 427.33 339.012 427.587 339.012H539.586C539.586 339.012 543.617 334.29 543.617 325.19C543.617 316.005 539.586 311.111 539.586 311.111H427.587C427.244 311.111 426.987 311.283 426.729 311.541C426.558 311.798 426.386 312.056 426.386 312.399C426.386 312.742 426.472 313 426.729 313.258C426.987 313.343 427.244 313.515 427.587 313.515Z" stroke="#231F20" stroke-linecap="round" stroke-linejoin="round"/>
<path d="M443.795 289.049C445.339 292.139 446.025 295.573 446.025 299.093C446.11 302.613 445.167 306.047 443.452 309.137" stroke="#231F20" stroke-miterlimit="10"/>
<path d="M433.847 313.515C435.562 317.12 436.42 321.155 436.42 325.19C436.506 329.311 435.477 333.345 433.418 336.865" stroke="#231F20" stroke-miterlimit="10"/>
<path d="M470.38 338.926H430.503C430.503 338.926 426.472 343.819 426.472 353.005C426.472 362.19 430.503 366.826 430.503 366.826H470.551" stroke="#231F20" stroke-linejoin="round"/>
<path d="M582.551 341.501H472.438C472.438 341.501 469.265 345.364 469.265 352.919C469.265 360.474 472.438 364.68 472.438 364.68H582.551C582.808 364.68 583.151 364.766 583.323 365.024C583.494 365.195 583.666 365.539 583.666 365.796C583.666 366.054 583.58 366.397 583.323 366.569C583.151 366.74 582.808 366.912 582.551 366.912H470.551C470.551 366.912 466.521 362.191 466.521 353.091C466.521 343.905 470.551 339.012 470.551 339.012H582.551C582.894 339.012 583.151 339.183 583.323 339.355C583.494 339.613 583.666 339.87 583.666 340.128C583.666 340.471 583.58 340.815 583.323 340.986C583.151 341.244 582.894 341.415 582.551 341.501Z" stroke="#231F20" stroke-linecap="round" stroke-linejoin="round"/>
<path d="M576.291 341.415C574.575 345.021 573.632 349.055 573.718 353.09C573.632 357.211 574.661 361.16 576.719 364.765" stroke="#231F20" stroke-miterlimit="10"/>
<path d="M298.35 201.57C298.35 201.57 293.376 201.141 294.148 206.377C295.006 211.614 298.522 212.215 298.522 212.215" stroke="#231F20" stroke-linecap="round" stroke-linejoin="round"/>
<path d="M337.456 516.115L334.712 526.417L343.116 528.048L355.122 526.331L354.779 517.66" stroke="#231F20" stroke-linejoin="round"/>
<path d="M301.952 520.922L300.58 528.048" stroke="#231F20" stroke-linejoin="round"/>
<path d="M321.591 527.447L320.219 519.892" stroke="#231F20" stroke-linejoin="round"/>
<path d="M277.94 383.566V538.693H294.148V519.205" stroke="#231F20" stroke-linecap="round" stroke-linejoin="round"/>
<path d="M522.006 383.996V538.607H538.214V383.996" stroke="#231F20" stroke-linecap="round" stroke-linejoin="round"/>
<path d="M353.064 357.039C354.95 353.004 359.152 340.213 359.152 340.213C359.067 339.355 378.362 311.712 377.419 304.758C376.818 300.552 375.361 296.517 373.217 292.911" stroke="#231F20" stroke-miterlimit="10"/>
<path d="M320.047 208.18C320.047 208.18 321.505 214.79 320.647 215.992C319.79 217.194 317.046 216.421 317.046 216.421" stroke="#231F20" stroke-linecap="round" stroke-linejoin="round"/>
<path d="M323.82 222.688C323.82 222.86 320.218 224.405 316.445 223.718C312.758 223.031 310.356 221.229 310.614 221.314" stroke="#231F20" stroke-miterlimit="10" stroke-linecap="round"/>
<path d="M355.122 298.749C355.122 298.749 359.067 303.385 360.182 306.389C361.125 308.793 351.777 328.195 348.261 335.835" stroke="#231F20" stroke-miterlimit="10"/>
<path d="M320.047 383.566H323.563" stroke="#231F20" stroke-linecap="round" stroke-linejoin="round"/>
<path d="M281.285 366.826H230.173V383.566H283.343" stroke="#231F20" stroke-linecap="round" stroke-linejoin="round"/>
<path d="M360.267 383.566H586.238V366.826H355.722" stroke="#231F20" stroke-linecap="round" stroke-linejoin="round"/>
<path d="M323.649 231.96C323.649 231.96 323.649 235.394 324.592 237.111C325.107 238.141 327.508 239.085 329.48 239.257" stroke="#231F20" stroke-linecap="round" stroke-linejoin="round"/>
<path d="M305.039 228.697C305.039 228.697 305.297 233.762 304.01 234.878C303.239 235.479 301.438 235.565 299.98 235.479" stroke="#231F20" stroke-miterlimit="10"/>
<path d="M298.693 212.473C299.98 222.345 304.182 233.248 316.188 233.248C338.228 233.248 335.998 192.899 335.998 192.899" stroke="#231F20" stroke-linecap="round" stroke-linejoin="round"/>
<path d="M223.57 538.349H196.299C186.094 538.349 185.408 489.588 185.408 489.588H234.547C234.461 489.588 233.775 538.349 223.57 538.349Z" fill="#AAA0FD" stroke="#231F20" stroke-linecap="round" stroke-linejoin="round"/>
<path d="M572.174 538.35H169.2" stroke="#231F20" stroke-linejoin="round"/>
<path d="M251.527 226.38C251.527 226.38 248.268 221.572 244.752 211.185C241.236 200.797 242.608 163.711 242.608 163.711C242.608 162.423 242.008 161.136 241.15 160.191C240.035 159.247 238.492 155.727 237.72 152.723L235.319 143.709L231.974 136.841C231.974 136.841 228.544 131.261 230.002 130.317C231.459 129.372 234.547 135.553 234.547 135.553C234.547 135.553 238.063 141.906 238.663 141.82C239.349 141.82 237.034 136.669 236.176 133.75C235.319 130.832 232.832 123.706 234.89 123.449C236.948 123.191 237.72 127.827 238.749 131.003C239.692 134.18 241.493 139.588 242.265 139.502C243.037 139.502 240.636 131.862 239.949 129.458C239.263 127.054 236.605 121.045 238.492 120.272C240.378 119.5 242.522 125.595 243.208 127.655C243.894 129.716 245.953 137.614 246.639 137.528C247.325 137.442 246.381 129.372 245.952 126.883C245.524 124.479 244.409 120.53 246.124 120.444C247.839 120.358 248.182 123.792 249.469 128.342L252.47 138.901C252.47 138.901 253.585 145.082 254.7 144.911C255.815 144.739 258.387 138.901 259.502 137.098C260.617 135.296 263.104 134.008 263.619 135.21C264.047 136.412 261.389 140.275 261.046 141.992C260.617 143.709 259.845 146.713 259.159 149.976C258.473 153.238 256.329 155.985 255.386 157.53C254.442 159.075 253.328 160.191 253.585 161.737C253.585 161.737 258.302 200.025 260.274 206.12C262.161 212.215 268.421 217.881 268.421 217.881" stroke="#231F20" stroke-miterlimit="10"/>
<path d="M443.281 326.649H534.183" stroke="#231F20" stroke-miterlimit="10" stroke-linecap="round"/>
<path d="M474.067 348.541H543.703" stroke="#231F20" stroke-linecap="round" stroke-linejoin="round"/>
<path d="M455.887 296.86H496.364" stroke="#231F20" stroke-miterlimit="10" stroke-linecap="round"/>
<path d="M320.219 520.235C323.563 519.806 325.879 519.119 325.879 518.261C325.793 515.514 320.476 393.696 319.532 372.492C319.447 370.431 319.361 369.315 319.361 369.315C319.361 369.315 335.741 421.253 336.941 434.044C338.142 446.75 330.424 512.166 330.424 512.166C330.424 512.166 329.48 515.943 344.659 517.402C359.838 518.862 361.554 517.145 361.554 517.145C361.554 517.145 372.016 444.003 370.215 427.005C368.586 411.295 350.834 349.742 348.175 340.385" stroke="#231F20" stroke-linejoin="round"/>
<path d="M278.626 345.021C279.141 349.57 280.513 360.301 282.571 377.471C285.401 401.165 285.916 402.796 290.032 430.439C294.148 457.996 293.634 516.2 294.234 519.205C294.663 521.437 311.3 521.523 320.304 520.235" stroke="#231F20" stroke-linejoin="round"/>
<path d="M402.031 325.018C398.772 322.271 398.772 320.554 398.858 319.095C398.944 316.348 400.573 315.317 400.659 311.798C400.659 310.424 400.402 309.136 399.801 307.935" stroke="#231F20" stroke-linecap="round" stroke-linejoin="round"/>
<path d="M389.682 325.018C388.739 324.246 387.967 323.301 387.452 322.271C386.938 321.155 386.681 320.039 386.681 318.837C386.766 316.09 388.224 314.545 388.224 311.025C388.224 309.652 387.881 308.364 387.367 307.162" stroke="#231F20" stroke-linecap="round" stroke-linejoin="round"/>
<path d="M395.428 321.757C394.399 321.07 393.627 320.04 393.112 318.924C392.598 317.808 392.426 316.606 392.512 315.318C392.598 312.571 393.97 311.283 393.97 307.678C393.97 306.304 393.713 305.016 393.112 303.814" stroke="#231F20" stroke-linecap="round" stroke-linejoin="round"/>
<path d="M205.561 467.783C205.561 467.783 175.717 468.47 169.2 475.252" stroke="#231F20" stroke-miterlimit="10" stroke-linecap="round"/>
<path d="M240.464 457.739C231.116 450.785 207.19 454.048 204.789 456.108" stroke="#231F20" stroke-miterlimit="10" stroke-linecap="round"/>
<path d="M203.76 446.321C203.76 446.321 186.265 434.303 172.201 434.989" stroke="#231F20" stroke-miterlimit="10" stroke-linecap="round"/>
<path d="M231.717 422.455C223.141 422.627 205.561 433.615 205.389 436.448" stroke="#231F20" stroke-miterlimit="10" stroke-linecap="round"/>
<path d="M206.333 418.764C206.333 418.764 189.353 406.059 175.203 406.23" stroke="#231F20" stroke-miterlimit="10" stroke-linecap="round"/>
<path d="M208.477 394.211C208.477 394.211 210.192 373.007 202.645 361.16" stroke="#231F20" stroke-miterlimit="10" stroke-linecap="round"/>
<path d="M234.289 395.413C225.714 395.585 208.133 406.573 207.962 409.406" stroke="#231F20" stroke-miterlimit="10" stroke-linecap="round"/>
<path d="M210.706 489.588C207.533 478.342 205.389 466.839 204.446 455.163C202.645 435.161 208.562 418.85 208.562 392.924" stroke="#231F20" stroke-linecap="round" stroke-linejoin="round"/>
<path d="M348.175 332.573C348.776 335.75 349.719 340.557 348.518 340.986C346.546 341.673 338.399 340.643 319.532 341.158C300.752 341.759 273.395 347.511 273.395 345.021C273.395 344.334 273.652 341.33 274.081 336.78" fill="#3272D8"/>
<path d="M272.366 218.31C271.337 216.679 270.393 214.962 269.45 213.417C269.45 213.417 269.107 212.902 268.764 213.245C268.335 213.588 265.334 216.335 257.187 220.027L246.896 224.749C246.124 225.092 246.124 225.264 246.124 225.607C246.124 225.95 246.21 226.294 246.381 226.551C246.81 227.324 247.153 228.182 247.668 229.041" fill="#3272D8"/>
<path d="M347.918 331.113C348.175 332.487 348.433 333.775 348.69 334.976L347.918 331.113Z" fill="#3272D8"/>
<path d="M362.24 266.127C355.379 255.997 350.577 249.902 344.574 246.64V246.554C343.287 245.438 329.395 237.626 329.137 237.969C328.88 238.313 328.966 238.313 328.623 239.257C327.765 241.317 323.134 245.18 317.131 245.438C311.128 245.695 302.81 238.742 301.352 235.737C300.923 234.879 300.837 234.793 300.58 234.621C300.237 234.535 288.402 230.071 284.372 229.556H284.286C276.225 226.036 273.052 218.911 269.707 213.503C269.707 213.503 269.364 212.988 269.021 213.331C268.593 213.674 265.591 216.421 257.444 220.113L247.153 224.834C246.381 225.178 246.381 225.35 246.381 225.693C246.381 226.036 246.467 226.38 246.639 226.637C249.469 232.647 253.328 238.141 260.188 247.67C267.306 257.542 274.338 263.895 278.112 269.99C277.854 275.914 277.683 281.494 277.683 285.958C277.683 304.673 273.824 342.703 273.824 345.107C273.824 347.511 301.095 341.759 319.961 341.244C338.828 340.643 346.975 341.759 348.947 341.072C350.92 340.385 348.433 334.118 347.918 328.023C347.404 321.928 340.972 309.909 344.231 287.246C344.316 286.902 344.316 286.559 344.402 286.13C347.232 289.478 350.748 293.942 352.292 297.376C352.292 297.376 353.75 300.209 354.436 300.209C355.122 300.209 359.41 297.633 368.071 294.972C375.789 292.568 375.875 292.311 375.875 291.881C375.532 291.366 369.272 276.515 362.24 266.127Z" fill="#3272D8"/>
</g>
<defs>
<clipPath id="clip0_503_5">
<rect width="737" height="663" fill="white"/>
</clipPath>
</defs>
</svg>
