<svg width="629" height="557" viewBox="0 0 629 557" fill="none" xmlns="http://www.w3.org/2000/svg">
<path opacity="0.24" d="M221.455 539.079C278.429 529.459 336.25 544.154 393.482 552.11C450.713 560.067 513.778 559.796 560.252 525.395C614.929 484.896 630.256 409.317 628.819 341.154C627.21 262.25 606.626 179.799 551.581 123.374C522.228 93.2956 484.966 72.4303 448.122 52.3041C402.054 27.1031 353.616 1.79131 301.186 0.0669087C255.352 -1.2034 210.859 15.6572 177.315 47.0077C151.193 71.642 133.458 103.741 111.671 132.329C71.4369 185.12 36.2727 233.345 11.7957 295.079C-10.4829 351.258 -0.314314 397.259 34.7984 446.392C69.9111 495.525 108.441 541.05 168.632 538.02" fill="#9EC3FF"/>
<path d="M444.034 150.364L442.32 162.509L403.031 439.203H212.054L251.342 162.509L253.071 150.364C253.713 146.399 255.719 142.783 258.743 140.136C261.767 137.489 265.62 135.978 269.639 135.863H431.582C433.414 135.811 435.235 136.169 436.911 136.91C438.587 137.651 440.077 138.757 441.27 140.147C442.463 141.537 443.331 143.176 443.809 144.943C444.287 146.711 444.364 148.563 444.034 150.364Z" fill="white"/>
<path d="M225.711 197.145C225.711 197.145 221.3 199.097 219.241 195.521L225.711 197.145Z" fill="white"/>
<path d="M403.04 439.922H212.072C211.967 439.923 211.863 439.901 211.767 439.858C211.671 439.815 211.585 439.752 211.516 439.673C211.447 439.593 211.396 439.5 211.366 439.399C211.336 439.298 211.327 439.193 211.34 439.088L252.354 150.314C253.023 146.172 255.116 142.391 258.273 139.623C261.43 136.854 265.454 135.27 269.654 135.143H431.589C433.501 135.095 435.4 135.462 437.156 136.22C438.911 136.978 440.48 138.108 441.755 139.532C443.02 141.018 443.945 142.762 444.466 144.642C444.987 146.522 445.092 148.492 444.772 150.417L443.058 162.559L403.757 439.293C403.733 439.466 403.647 439.625 403.515 439.74C403.384 439.856 403.215 439.92 403.04 439.922ZM212.907 438.459H402.395L443.322 150.256C443.611 148.54 443.523 146.783 443.062 145.105C442.602 143.427 441.781 141.87 440.656 140.542C439.524 139.263 438.127 138.247 436.56 137.564C434.994 136.882 433.297 136.55 431.589 136.592H269.654C265.811 136.708 262.129 138.155 259.237 140.685C256.345 143.215 254.425 146.671 253.805 150.461L252.091 162.603L212.907 438.459Z" fill="#231F20"/>
<path d="M334.836 279.62H251.591C251.381 279.612 251.183 279.523 251.038 279.372C250.972 279.29 250.925 279.197 250.897 279.096C250.87 278.995 250.863 278.89 250.878 278.787L263.233 191.836C263.261 191.662 263.349 191.503 263.482 191.388C263.616 191.273 263.785 191.209 263.961 191.208H347.177C347.282 191.207 347.385 191.228 347.481 191.271C347.577 191.314 347.662 191.377 347.731 191.457C347.8 191.536 347.851 191.629 347.881 191.73C347.911 191.831 347.919 191.937 347.905 192.041L335.636 278.992C335.607 279.179 335.508 279.348 335.36 279.465C335.211 279.582 335.024 279.637 334.836 279.62ZM252.449 278.158H334.21L346.275 192.67H264.514L252.449 278.158Z" fill="#D1D3D4"/>
<path d="M414.02 192.646H369.488C369.295 192.646 369.109 192.57 368.973 192.435C368.836 192.301 368.759 192.118 368.759 191.927C368.759 191.737 368.836 191.554 368.973 191.419C369.109 191.284 369.295 191.208 369.488 191.208H414.034C414.228 191.208 414.413 191.284 414.55 191.419C414.687 191.554 414.764 191.737 414.764 191.927C414.764 192.023 414.745 192.118 414.707 192.206C414.669 192.294 414.614 192.374 414.545 192.441C414.476 192.508 414.394 192.56 414.303 192.595C414.213 192.631 414.117 192.648 414.02 192.646Z" fill="#D1D3D4"/>
<path d="M412.596 204.147H368.05C367.857 204.147 367.671 204.071 367.534 203.937C367.398 203.802 367.321 203.619 367.321 203.428C367.321 203.238 367.398 203.055 367.534 202.92C367.671 202.785 367.857 202.709 368.05 202.709H412.596C412.79 202.709 412.975 202.785 413.112 202.92C413.249 203.055 413.326 203.238 413.326 203.428C413.326 203.619 413.249 203.802 413.112 203.937C412.975 204.071 412.79 204.147 412.596 204.147Z" fill="#D1D3D4"/>
<path d="M411.159 215.648H366.613C366.42 215.644 366.237 215.568 366.101 215.433C365.965 215.299 365.887 215.119 365.883 214.929C365.883 214.739 365.96 214.556 366.097 214.421C366.234 214.286 366.419 214.21 366.613 214.21H411.159C411.352 214.21 411.538 214.286 411.675 214.421C411.811 214.556 411.888 214.739 411.888 214.929C411.888 215.12 411.811 215.303 411.675 215.438C411.538 215.572 411.352 215.648 411.159 215.648Z" fill="#D1D3D4"/>
<path d="M409.002 227.15H364.456C364.262 227.15 364.077 227.074 363.94 226.939C363.803 226.804 363.726 226.621 363.726 226.431C363.726 226.24 363.803 226.057 363.94 225.922C364.077 225.788 364.262 225.712 364.456 225.712H409.002C409.195 225.712 409.381 225.788 409.518 225.922C409.654 226.057 409.731 226.24 409.731 226.431C409.731 226.621 409.654 226.804 409.518 226.939C409.381 227.074 409.195 227.15 409.002 227.15Z" fill="#D1D3D4"/>
<path d="M407.564 238.651H363.019C362.826 238.651 362.64 238.575 362.503 238.44C362.366 238.306 362.289 238.123 362.289 237.932C362.289 237.742 362.366 237.559 362.503 237.424C362.64 237.289 362.826 237.213 363.019 237.213H407.564C407.757 237.213 407.943 237.289 408.08 237.424C408.217 237.559 408.294 237.742 408.294 237.932C408.294 238.123 408.217 238.306 408.08 238.44C407.943 238.575 407.757 238.651 407.564 238.651Z" fill="#D1D3D4"/>
<path d="M393.19 250.152H361.58C361.388 250.148 361.205 250.071 361.069 249.937C360.933 249.803 360.855 249.623 360.852 249.433C360.852 249.243 360.928 249.06 361.065 248.925C361.201 248.79 361.387 248.714 361.58 248.714H393.19C393.383 248.714 393.568 248.79 393.705 248.925C393.841 249.06 393.918 249.243 393.918 249.433C393.918 249.624 393.841 249.807 393.705 249.941C393.568 250.076 393.383 250.152 393.19 250.152Z" fill="#D1D3D4"/>
<path d="M399.535 278.903H360.085C359.051 278.93 358.024 278.725 357.078 278.302C356.133 277.879 355.293 277.249 354.62 276.457C353.946 275.666 353.457 274.733 353.186 273.726C352.916 272.719 352.872 271.665 353.057 270.639C353.422 268.381 354.555 266.322 356.261 264.814C357.967 263.307 360.14 262.444 362.408 262.375H401.858C402.893 262.345 403.922 262.548 404.87 262.97C405.817 263.392 406.659 264.022 407.333 264.814C408.008 265.606 408.499 266.54 408.771 267.548C409.042 268.556 409.086 269.612 408.901 270.639C408.535 272.899 407.4 274.96 405.691 276.468C403.982 277.976 401.805 278.837 399.535 278.903Z" fill="#D1D3D4"/>
<path d="M288.126 393.196H248.67C247.635 393.226 246.606 393.023 245.659 392.601C244.712 392.179 243.871 391.548 243.197 390.756C242.523 389.964 242.034 389.03 241.764 388.022C241.495 387.014 241.453 385.958 241.641 384.932C242.006 382.675 243.139 380.616 244.845 379.108C246.552 377.6 248.725 376.738 250.993 376.669H290.45C291.485 376.638 292.513 376.841 293.46 377.263C294.407 377.685 295.248 378.316 295.922 379.108C296.596 379.9 297.086 380.835 297.355 381.842C297.624 382.85 297.667 383.906 297.479 384.932C297.116 387.191 295.984 389.251 294.277 390.759C292.57 392.268 290.395 393.129 288.126 393.196Z" fill="#D1D3D4"/>
<path d="M377.981 393.196H338.524C337.489 393.227 336.461 393.023 335.514 392.601C334.567 392.179 333.726 391.549 333.052 390.756C332.378 389.964 331.888 389.03 331.619 388.022C331.35 387.015 331.307 385.959 331.495 384.933C331.858 382.674 332.99 380.613 334.697 379.105C336.404 377.597 338.579 376.736 340.848 376.669H380.304C381.339 376.638 382.368 376.842 383.315 377.264C384.262 377.686 385.103 378.316 385.777 379.109C386.451 379.901 386.94 380.835 387.21 381.843C387.479 382.851 387.521 383.906 387.333 384.933C386.971 387.191 385.838 389.252 384.131 390.76C382.425 392.268 380.25 393.13 377.981 393.196Z" fill="#D1D3D4"/>
<path d="M305.337 365.883H238.658C238.553 365.879 238.449 365.854 238.353 365.809C238.258 365.764 238.173 365.7 238.103 365.621C238.034 365.545 237.984 365.455 237.956 365.357C237.929 365.258 237.924 365.155 237.942 365.055L246.712 303.251C246.74 303.077 246.828 302.92 246.962 302.805C247.096 302.691 247.266 302.627 247.443 302.626H314.107C314.212 302.624 314.316 302.645 314.412 302.688C314.508 302.731 314.594 302.794 314.662 302.873C314.733 302.951 314.785 303.044 314.816 303.144C314.846 303.244 314.853 303.35 314.838 303.454L306.068 365.258C306.04 365.431 305.952 365.589 305.818 365.704C305.684 365.818 305.514 365.882 305.337 365.883ZM239.565 364.43H304.767L313.376 304.079H248.115L239.565 364.43Z" fill="#D1D3D4"/>
<path d="M395.206 365.883H328.522C328.416 365.881 328.312 365.857 328.216 365.812C328.12 365.767 328.035 365.702 327.966 365.622C327.899 365.545 327.848 365.455 327.818 365.357C327.788 365.26 327.779 365.157 327.791 365.055L336.561 303.251C336.586 303.079 336.672 302.922 336.803 302.807C336.934 302.692 337.103 302.628 337.278 302.627H403.961C404.067 302.625 404.171 302.646 404.267 302.689C404.363 302.731 404.448 302.794 404.517 302.874C404.587 302.952 404.64 303.044 404.67 303.145C404.7 303.245 404.708 303.351 404.692 303.455L395.922 365.259C395.898 365.431 395.812 365.588 395.68 365.703C395.549 365.818 395.381 365.882 395.206 365.883ZM329.428 364.431H394.621L403.245 304.079H337.979L329.428 364.431Z" fill="#D1D3D4"/>
<path d="M290.727 417.638C290.269 417.644 289.814 417.56 289.395 417.391C288.975 417.222 288.602 416.972 288.3 416.658C287.997 416.337 287.775 415.959 287.649 415.552C287.524 415.145 287.497 414.717 287.572 414.3C287.721 413.438 288.2 412.651 288.924 412.079C289.649 411.506 290.572 411.184 291.531 411.169C291.988 411.163 292.441 411.246 292.86 411.412C293.279 411.579 293.653 411.825 293.959 412.134C294.262 412.455 294.482 412.833 294.606 413.241C294.729 413.649 294.752 414.076 294.672 414.493C294.529 415.356 294.054 416.145 293.332 416.721C292.61 417.297 291.687 417.621 290.727 417.638ZM291.531 412.548C290.94 412.571 290.374 412.775 289.928 413.129C289.481 413.482 289.18 413.963 289.074 414.493C289.031 414.717 289.043 414.946 289.109 415.165C289.174 415.385 289.292 415.588 289.453 415.762C289.613 415.923 289.81 416.052 290.03 416.137C290.25 416.223 290.488 416.264 290.727 416.258C291.32 416.237 291.887 416.031 292.332 415.674C292.777 415.317 293.073 414.832 293.17 414.3C293.214 414.079 293.204 413.852 293.141 413.635C293.078 413.418 292.964 413.217 292.806 413.045C292.646 412.883 292.449 412.755 292.229 412.669C292.009 412.583 291.771 412.542 291.531 412.548Z" fill="#D1D3D4"/>
<path d="M306.714 416.416C307.884 415.327 308.064 413.621 307.118 412.606C306.172 411.59 304.457 411.65 303.288 412.739C302.119 413.828 301.938 415.534 302.884 416.549C303.83 417.564 305.545 417.505 306.714 416.416Z" fill="#D1D3D4"/>
<path d="M319.524 416.316C320.69 415.23 320.871 413.528 319.927 412.515C318.983 411.502 317.272 411.561 316.106 412.648C314.939 413.734 314.759 415.436 315.702 416.449C316.646 417.462 318.357 417.403 319.524 416.316Z" fill="#D1D3D4"/>
<path d="M334.426 416.411C335.595 415.322 335.776 413.616 334.83 412.601C333.884 411.586 332.169 411.645 331 412.734C329.83 413.823 329.649 415.529 330.596 416.544C331.542 417.56 333.257 417.5 334.426 416.411Z" fill="#D1D3D4"/>
<path d="M281.023 171.081H269.598C269.397 171.081 269.205 171.005 269.063 170.87C268.921 170.735 268.841 170.553 268.841 170.362C268.841 170.171 268.921 169.988 269.063 169.854C269.205 169.719 269.397 169.643 269.598 169.643H281.023C281.224 169.643 281.417 169.719 281.558 169.854C281.7 169.988 281.78 170.171 281.78 170.362C281.78 170.553 281.7 170.735 281.558 170.87C281.417 171.005 281.224 171.081 281.023 171.081Z" fill="#D1D3D4"/>
<path d="M280.305 176.112H268.877C268.678 176.109 268.488 176.032 268.347 175.898C268.206 175.764 268.125 175.583 268.122 175.394C268.122 175.203 268.201 175.02 268.343 174.885C268.485 174.751 268.677 174.675 268.877 174.675H280.305C280.505 174.675 280.697 174.751 280.839 174.885C280.981 175.02 281.06 175.203 281.06 175.394C281.057 175.583 280.976 175.764 280.835 175.898C280.694 176.032 280.504 176.109 280.305 176.112Z" fill="#D1D3D4"/>
<path d="M279.585 181.144H268.16C267.959 181.144 267.766 181.068 267.625 180.934C267.483 180.799 267.403 180.616 267.403 180.425C267.407 180.236 267.488 180.055 267.629 179.921C267.77 179.787 267.96 179.71 268.16 179.707H279.585C279.786 179.707 279.978 179.782 280.12 179.917C280.262 180.052 280.342 180.235 280.342 180.425C280.342 180.616 280.262 180.799 280.12 180.934C279.978 181.068 279.786 181.144 279.585 181.144Z" fill="#D1D3D4"/>
<path d="M444.034 150.334L442.322 162.455H251.589L253.316 150.334C253.957 146.378 255.96 142.768 258.981 140.127C262.001 137.486 265.849 135.978 269.862 135.863H431.599C433.429 135.811 435.247 136.168 436.921 136.908C438.595 137.648 440.082 138.751 441.274 140.138C442.466 141.525 443.332 143.161 443.81 144.925C444.287 146.689 444.364 148.537 444.034 150.334Z" fill="#B59EFF"/>
<path d="M352.938 150.235H332.105C331.913 150.235 331.728 150.159 331.592 150.024C331.456 149.89 331.38 149.707 331.38 149.516C331.38 149.326 331.456 149.143 331.592 149.008C331.728 148.873 331.913 148.797 332.105 148.797H352.938C353.131 148.797 353.315 148.873 353.451 149.008C353.587 149.143 353.664 149.326 353.664 149.516C353.664 149.707 353.587 149.89 353.451 150.024C353.315 150.159 353.131 150.235 352.938 150.235Z" fill="white"/>
<path d="M363.735 150.235H360.124C359.937 150.231 359.758 150.154 359.626 150.02C359.493 149.886 359.417 149.706 359.413 149.516C359.413 149.326 359.488 149.143 359.622 149.008C359.755 148.873 359.936 148.797 360.124 148.797H363.735C363.923 148.797 364.104 148.873 364.237 149.008C364.37 149.143 364.445 149.326 364.445 149.516C364.445 149.707 364.37 149.89 364.237 150.024C364.104 150.159 363.923 150.235 363.735 150.235Z" fill="white"/>
<path d="M249.319 245.723L262.977 259.715C262.977 259.715 287.625 232.996 287.889 229.651C288.657 223.647 290.347 217.795 292.901 212.299C293.012 211.948 293.253 211.652 293.575 211.47C294.352 211.179 294.908 212.256 295.04 213.07C295.287 215.057 295.262 217.068 294.967 219.048C297.414 215.688 299.906 212.372 302.47 209.099C302.563 208.934 302.691 208.792 302.846 208.681C303 208.571 303.177 208.495 303.364 208.459C303.65 208.477 303.92 208.596 304.126 208.794C305.742 210.164 306.953 211.943 307.628 213.943C308.066 215.003 308.319 216.129 308.376 217.274C308.478 223.702 302.675 234.145 296.652 236.778C296.652 236.778 268.604 284.484 263.563 283.932C258.522 283.379 238.651 261.111 238.651 261.111L249.319 245.723Z" fill="white"/>
<path d="M263.586 284.655H263.469C258.305 284.073 240.151 263.869 238.089 261.569C237.987 261.441 237.931 261.282 237.931 261.118C237.931 260.954 237.987 260.795 238.089 260.667L248.797 245.281C248.859 245.194 248.94 245.122 249.034 245.069C249.127 245.017 249.231 244.984 249.338 244.975C249.446 244.965 249.554 244.98 249.655 245.018C249.757 245.055 249.848 245.116 249.923 245.194L263.015 258.629C272.479 248.309 287.005 231.758 287.21 229.517C287.974 223.442 289.661 217.518 292.213 211.947C292.304 211.685 292.446 211.443 292.632 211.235C292.818 211.028 293.043 210.859 293.295 210.739C293.501 210.659 293.723 210.627 293.943 210.645C294.164 210.662 294.377 210.73 294.568 210.841C294.906 211.096 295.184 211.42 295.384 211.792C295.583 212.164 295.699 212.575 295.724 212.995C295.858 214.165 295.912 215.342 295.885 216.518C297.83 213.869 299.819 211.234 301.838 208.658C301.996 208.405 302.21 208.19 302.463 208.031C302.717 207.873 303.003 207.773 303.301 207.741C303.76 207.76 304.199 207.935 304.544 208.236C306.259 209.664 307.557 211.524 308.304 213.621C308.766 214.763 309.033 215.973 309.094 217.202C309.196 223.651 303.623 234.291 297.157 237.304C292.213 245.732 269.013 284.655 263.586 284.655ZM239.552 261.031C247.495 269.895 260.177 282.865 263.615 283.2C266.628 283.2 282.324 259.473 295.885 236.358C295.963 236.224 296.08 236.118 296.221 236.052C302.145 233.461 307.602 223.243 307.499 217.217C307.452 216.152 307.219 215.103 306.812 214.116C306.172 212.248 305.04 210.584 303.535 209.298C303.345 209.138 303.272 209.109 303.242 209.109C303.122 209.213 303.014 209.33 302.921 209.458C300.375 212.719 297.859 216.067 295.431 219.415C295.335 219.548 295.197 219.645 295.038 219.69C294.88 219.735 294.711 219.726 294.559 219.663C294.406 219.601 294.28 219.49 294.199 219.347C294.118 219.204 294.089 219.038 294.115 218.876C294.405 216.948 294.429 214.989 294.188 213.054C294.166 212.675 294.004 212.317 293.734 212.049C293.621 212.181 293.537 212.335 293.485 212.501C290.968 217.927 289.301 223.705 288.541 229.633C288.234 233.054 267.594 255.645 263.454 260.201C263.316 260.344 263.127 260.428 262.927 260.434C262.728 260.42 262.538 260.344 262.386 260.216L249.382 246.853L239.552 261.031Z" fill="#231F20"/>
<path d="M153.435 447.11C153.435 447.11 148.658 459.782 150.775 461.006C152.891 462.231 195.077 461.006 192.534 458.557C189.991 456.108 178.761 447.936 178.761 447.936" fill="white"/>
<path d="M160.429 462.205C155.044 462.205 150.994 462.02 150.378 461.662C148.089 460.333 150.877 451.817 152.726 446.859C152.798 446.682 152.937 446.539 153.115 446.46C153.292 446.38 153.494 446.369 153.679 446.43C153.86 446.498 154.005 446.631 154.085 446.803C154.165 446.974 154.172 447.169 154.105 447.345C151.757 453.646 150.363 459.762 151.17 460.448C154.105 461.719 187.045 460.219 191.535 458.705C188.439 455.918 178.329 448.574 178.329 448.502C178.252 448.446 178.187 448.376 178.138 448.295C178.089 448.214 178.057 448.125 178.043 448.032C178.016 447.844 178.066 447.654 178.183 447.502C178.3 447.351 178.473 447.25 178.666 447.224C178.859 447.197 179.054 447.246 179.21 447.359C179.665 447.688 190.508 455.618 193.046 458.09C193.23 458.257 193.342 458.484 193.361 458.728C193.381 458.971 193.305 459.213 193.149 459.405C191.579 461.277 172.592 462.205 160.429 462.205Z" fill="#231F20"/>
<path d="M195.406 199.088C193.412 198.999 191.418 198.659 189.115 198.452C186.813 198.245 184.203 197.462 184.159 195.305C184.159 193.443 186.329 191.907 185.846 190.119C185.675 189.636 185.417 189.19 185.083 188.804C182.015 184.655 180.659 179.471 181.299 174.337C181.938 169.204 184.524 164.518 188.514 161.262C187.913 161.469 187.268 160.863 187.209 160.228C187.205 159.579 187.452 158.953 187.898 158.485C189.516 156.694 191.615 155.416 193.94 154.805C201.215 152.545 208.997 152.545 216.272 154.805C221.844 156.446 228.545 160.922 227.812 167.704C227.722 168.934 227.216 170.096 226.378 170.994C225.54 171.893 224.42 172.473 223.208 172.639C221.961 179.909 218.178 184.874 213.427 190.134C210.234 193.746 206.205 196.508 201.697 198.172C199.683 198.902 197.543 199.213 195.406 199.088Z" fill="#231F20"/>
<path d="M196.336 199.834H195.426C194.238 199.834 193.08 199.642 191.833 199.495C190.968 199.391 190.074 199.288 189.106 199.2C185.63 198.905 183.533 197.459 183.489 195.335C183.544 194.319 183.891 193.341 184.486 192.518C184.97 191.707 185.381 191.043 185.205 190.336C185.072 189.985 184.878 189.66 184.633 189.377C181.516 185.251 180.045 180.103 180.509 174.943C180.973 169.783 183.338 164.983 187.141 161.487C186.805 161.155 186.593 160.718 186.539 160.248C186.522 159.829 186.589 159.411 186.735 159.019C186.881 158.626 187.104 158.267 187.39 157.962C189.089 156.1 191.282 154.764 193.71 154.113C201.126 151.817 209.056 151.817 216.471 154.113C223.011 156.03 229.273 161 228.525 167.785C228.411 169.081 227.898 170.309 227.056 171.298C226.215 172.286 225.088 172.987 223.833 173.301C222.366 180.764 218.172 185.926 213.963 190.586C210.697 194.282 206.57 197.105 201.952 198.801C200.154 199.47 198.253 199.819 196.336 199.834ZM188.46 160.543C188.602 160.541 188.742 160.577 188.865 160.647C188.989 160.717 189.092 160.818 189.164 160.941C189.254 161.09 189.29 161.265 189.266 161.437C189.242 161.609 189.159 161.767 189.032 161.885C185.197 165.02 182.713 169.524 182.098 174.456C181.483 179.388 182.785 184.369 185.733 188.359C186.129 188.814 186.429 189.346 186.613 189.923C186.708 190.506 186.681 191.103 186.532 191.675C186.383 192.246 186.115 192.78 185.747 193.241C185.313 193.839 185.04 194.54 184.955 195.276C184.955 197.238 188.534 197.636 189.238 197.71C190.206 197.71 191.129 197.902 192.009 198.005C193.212 198.152 194.356 198.285 195.5 198.329C197.526 198.454 199.557 198.163 201.468 197.474C205.857 195.866 209.778 193.185 212.878 189.672C218.099 183.905 221.34 179.259 222.483 172.578C222.51 172.411 222.593 172.258 222.719 172.145C222.844 172.033 223.005 171.967 223.173 171.959C224.206 171.795 225.153 171.285 225.862 170.511C226.57 169.737 226.997 168.745 227.074 167.696C227.807 160.926 220.489 156.9 216.06 155.602C208.927 153.396 201.299 153.396 194.165 155.602C191.993 156.159 190.034 157.349 188.534 159.024C188.207 159.344 188.014 159.776 187.991 160.233C188.004 160.307 188.031 160.378 188.071 160.442C188.111 160.505 188.164 160.56 188.226 160.602L188.46 160.543Z" fill="#231F20"/>
<path d="M165.939 241.66C165.939 241.66 150.545 273.349 151.738 283.059C152.931 292.769 184.738 288.944 184.738 288.944L183.065 240.807L165.939 241.66Z" fill="white"/>
<path d="M171.604 290.406C170.644 290.406 169.654 290.406 168.694 290.406C157.548 290.058 151.597 287.649 151.029 283.266C149.763 273.588 164.663 243.318 165.289 242.041C165.349 241.925 165.439 241.827 165.548 241.756C165.658 241.684 165.784 241.643 165.915 241.635L183.041 240.808C183.137 240.802 183.232 240.816 183.322 240.849C183.412 240.881 183.495 240.931 183.565 240.996C183.638 241.059 183.697 241.137 183.737 241.225C183.777 241.313 183.798 241.408 183.798 241.504L185.457 288.926C185.462 289.108 185.399 289.286 185.281 289.425C185.163 289.564 184.998 289.655 184.816 289.68C180.427 290.144 176.018 290.386 171.604 290.406ZM166.395 243.013C164.649 246.598 151.32 274.342 152.455 283.034C153.445 290.174 174.907 289.303 184.001 288.302L182.357 242.288L166.395 243.013Z" fill="#231F20"/>
<path d="M227.868 440.808L228.693 461.479C228.693 461.479 266.65 461.759 264.435 458.939C262.22 456.119 245.037 443.687 245.037 443.687L242.272 428.42L227.868 440.808Z" fill="white"/>
<path d="M233.567 462.205H228.696C228.509 462.206 228.329 462.132 228.195 462C228.06 461.868 227.98 461.688 227.973 461.498L227.149 440.87C227.145 440.76 227.165 440.649 227.207 440.547C227.25 440.446 227.314 440.354 227.395 440.281L241.849 427.874C241.946 427.792 242.062 427.737 242.186 427.714C242.31 427.691 242.438 427.7 242.557 427.742C242.674 427.788 242.778 427.864 242.858 427.962C242.939 428.06 242.995 428.177 243.02 428.302L245.737 443.242C247.905 444.819 262.866 455.708 265.005 458.433C265.131 458.59 265.212 458.779 265.238 458.979C265.263 459.18 265.233 459.384 265.15 459.568C264.051 461.778 246.633 462.205 233.567 462.205ZM229.389 460.732C244.61 460.82 260.828 460.231 263.545 459.067C261.117 456.474 250.247 448.385 244.595 444.333C244.52 444.28 244.455 444.213 244.405 444.134C244.355 444.056 244.322 443.968 244.306 443.876L241.762 429.893L228.609 441.253L229.389 460.732Z" fill="#231F20"/>
<path d="M234.61 297.594L249.432 446.371L224.889 446.925L197.008 341.819L181.559 447.829L153.109 446.371C153.109 446.371 158.064 387.196 160.644 364.689C163.224 342.183 167.217 303.224 167.217 303.224L234.61 297.594Z" fill="#9EC3FF"/>
<path d="M225.23 183.301C225.23 183.301 230.313 191.609 229.126 193.245C227.938 194.881 224.274 193.618 224.274 193.618" fill="white"/>
<path d="M226.913 194.791C225.912 194.774 224.92 194.605 223.973 194.292C223.81 194.217 223.682 194.086 223.612 193.925C223.543 193.764 223.536 193.584 223.594 193.419C223.652 193.254 223.771 193.115 223.927 193.029C224.083 192.943 224.267 192.915 224.443 192.951C225.501 193.294 227.868 193.722 228.53 192.823C229.191 191.925 227.133 187.875 224.546 183.739C224.481 183.66 224.434 183.568 224.408 183.469C224.382 183.371 224.379 183.268 224.397 183.168C224.416 183.068 224.457 182.973 224.516 182.89C224.576 182.806 224.653 182.736 224.743 182.684C224.832 182.631 224.933 182.598 225.037 182.587C225.141 182.575 225.246 182.585 225.346 182.616C225.445 182.647 225.537 182.699 225.615 182.767C225.692 182.835 225.754 182.919 225.795 183.012C227.427 185.607 231.073 191.853 229.735 193.665C229.39 194.056 228.955 194.362 228.464 194.558C227.973 194.753 227.442 194.833 226.913 194.791Z" fill="#231F20"/>
<path d="M224.828 172.106C228.202 175.025 226.955 181.008 226.779 184.891C226.515 190.349 226.134 195.807 225.635 201.265C225.312 204.71 216.291 204.447 214.736 203.352L215.631 217.086L196.958 209.132L198.176 193.355C198.176 193.355 204.131 193.618 207.93 186.7C211.729 179.783 211.993 168.924 211.993 168.924C211.993 168.924 221.543 169.216 224.828 172.106Z" fill="white"/>
<path d="M215.63 217.788C215.534 217.81 215.434 217.81 215.337 217.788L196.694 209.841C196.554 209.779 196.435 209.676 196.354 209.546C196.273 209.416 196.233 209.264 196.24 209.111L197.457 193.348C197.472 193.16 197.559 192.985 197.702 192.86C197.844 192.735 198.029 192.669 198.219 192.677C198.438 192.677 203.773 192.809 207.291 186.407C210.955 179.728 211.263 169.083 211.263 168.908C211.264 168.812 211.286 168.717 211.326 168.629C211.367 168.541 211.425 168.462 211.497 168.398C211.565 168.329 211.648 168.276 211.739 168.243C211.83 168.21 211.928 168.199 212.025 168.209C212.42 168.209 221.859 168.544 225.303 171.577C228.381 174.275 227.971 179.014 227.648 182.834C227.648 183.563 227.531 184.293 227.502 184.92C227.238 190.359 226.857 195.871 226.358 201.31C226.269 201.889 226.021 202.433 225.641 202.881C225.261 203.329 224.763 203.663 224.204 203.847C221.428 204.849 218.42 205.031 215.542 204.372L216.392 216.971C216.398 217.069 216.384 217.168 216.351 217.26C216.318 217.353 216.266 217.438 216.199 217.51C216.132 217.582 216.051 217.64 215.961 217.68C215.87 217.721 215.773 217.742 215.674 217.744L215.63 217.788ZM197.75 208.645L214.809 215.936L214.018 203.395C214.002 203.258 214.029 203.118 214.094 202.996C214.16 202.874 214.261 202.774 214.384 202.71C214.5 202.636 214.635 202.596 214.773 202.596C214.911 202.596 215.045 202.636 215.161 202.71C217.915 203.562 220.873 203.5 223.588 202.535C224.409 202.17 224.849 201.704 224.893 201.077C225.406 195.667 225.787 190.169 226.036 184.759C226.036 184.088 226.124 183.301 226.183 182.601C226.49 179.116 226.857 174.785 224.336 172.569C221.786 170.323 214.941 169.74 212.699 169.652C212.567 172.262 211.878 180.982 208.581 187.005C205.283 193.027 200.652 193.858 198.864 194.004L197.75 208.645Z" fill="#231F20"/>
<path d="M253.027 246.725C253.027 246.725 230.979 223.482 222.263 214.74C214.162 206.642 190.606 199.274 179.882 210.881C179.882 210.881 162.303 235.425 158.86 249.692L169.115 255.992C166.87 272.899 165.55 289.916 165.16 306.966C184.614 322.315 234.349 297.464 234.349 297.464L229.851 262.381L237.894 270.42L253.027 246.725Z" fill="#3272D8"/>
<path d="M223.083 198.396C222.587 198.393 222.094 198.33 221.619 198.207C220.936 197.997 220.312 197.664 219.79 197.231C219.268 196.798 218.859 196.274 218.59 195.695C218.55 195.62 218.527 195.539 218.523 195.456C218.519 195.374 218.535 195.291 218.568 195.214C218.601 195.136 218.652 195.065 218.717 195.004C218.783 194.943 218.861 194.894 218.949 194.86C219.036 194.825 219.131 194.806 219.227 194.802C219.323 194.799 219.419 194.812 219.509 194.841C219.6 194.869 219.683 194.913 219.753 194.969C219.824 195.025 219.881 195.092 219.922 195.167C220.111 195.582 220.399 195.958 220.767 196.271C221.134 196.585 221.574 196.829 222.058 196.989C223.166 197.218 224.333 197.089 225.336 196.625C225.508 196.548 225.707 196.531 225.893 196.578C226.079 196.625 226.236 196.731 226.331 196.876C226.38 196.946 226.411 197.024 226.424 197.106C226.436 197.187 226.429 197.269 226.403 197.348C226.377 197.427 226.333 197.5 226.272 197.564C226.212 197.627 226.138 197.68 226.053 197.718C225.141 198.146 224.122 198.378 223.083 198.396Z" fill="#231F20"/>
<path d="M214.929 186.48C214.827 185.091 214.341 183.757 213.525 182.627C213.028 181.672 212.385 180.8 211.619 180.043C211.236 179.661 210.771 179.37 210.26 179.191C209.748 179.012 209.203 178.95 208.665 179.01C208.197 179.111 207.755 179.309 207.368 179.591C206.981 179.874 206.658 180.234 206.419 180.649C205.961 181.486 205.689 182.413 205.621 183.365C205.456 185.438 205.837 187.518 206.726 189.399C207.615 191.279 208.981 192.894 210.689 194.083L210.393 193.744" fill="white"/>
<path d="M210.721 194.801C210.572 194.802 210.427 194.756 210.306 194.668C208.485 193.401 207.028 191.679 206.08 189.674C205.133 187.669 204.728 185.451 204.906 183.241C204.986 182.201 205.294 181.192 205.809 180.284C206.094 179.776 206.486 179.335 206.959 178.993C207.432 178.651 207.973 178.415 208.546 178.303C209.195 178.221 209.855 178.287 210.476 178.497C211.096 178.707 211.66 179.056 212.126 179.516C212.942 180.307 213.631 181.22 214.168 182.221C215.054 183.472 215.567 184.948 215.648 186.478C215.648 186.674 215.57 186.862 215.431 187.001C215.292 187.14 215.104 187.218 214.908 187.218C214.712 187.218 214.523 187.14 214.385 187.001C214.246 186.862 214.168 186.674 214.168 186.478C214.067 185.222 213.616 184.018 212.866 183.004C212.404 182.117 211.811 181.305 211.105 180.595C210.8 180.293 210.433 180.062 210.029 179.916C209.626 179.771 209.195 179.715 208.768 179.752C208.404 179.831 208.062 179.987 207.763 180.209C207.465 180.431 207.217 180.713 207.037 181.038C206.63 181.775 206.392 182.593 206.341 183.433C206.198 185.249 206.499 187.073 207.218 188.747C207.937 190.421 209.053 191.895 210.469 193.042C210.658 193.062 210.832 193.151 210.957 193.293L211.253 193.633C211.372 193.768 211.437 193.942 211.437 194.121C211.437 194.301 211.372 194.474 211.253 194.609C211.181 194.675 211.097 194.725 211.006 194.758C210.915 194.791 210.818 194.806 210.721 194.801Z" fill="#231F20"/>
<path d="M230.717 265.246C230.519 265.246 230.329 265.165 230.189 265.021C224.586 259.085 219.299 252.844 214.351 246.324C214.238 246.163 214.19 245.964 214.217 245.767C214.245 245.571 214.345 245.393 214.498 245.271C214.653 245.151 214.849 245.099 215.042 245.128C215.234 245.156 215.408 245.261 215.525 245.421C220.435 251.894 225.683 258.09 231.246 263.982C231.314 264.051 231.368 264.132 231.405 264.223C231.443 264.313 231.462 264.411 231.462 264.509C231.462 264.607 231.443 264.704 231.405 264.794C231.368 264.885 231.314 264.967 231.246 265.036C231.177 265.107 231.095 265.163 231.004 265.199C230.912 265.236 230.815 265.252 230.717 265.246Z" fill="#231F20"/>
<path d="M196.264 339.286C196.097 339.293 195.934 339.236 195.807 339.126C195.435 338.822 186.938 331.476 186.895 319.884C186.895 319.694 186.968 319.512 187.099 319.376C187.23 319.241 187.408 319.163 187.595 319.159C187.688 319.159 187.78 319.178 187.866 319.215C187.952 319.251 188.029 319.305 188.095 319.372C188.16 319.44 188.211 319.52 188.245 319.608C188.28 319.695 188.296 319.789 188.294 319.884C188.294 330.795 196.621 337.953 196.706 338.011C196.85 338.137 196.94 338.315 196.956 338.507C196.972 338.699 196.913 338.89 196.792 339.039C196.725 339.114 196.644 339.175 196.553 339.217C196.462 339.259 196.364 339.283 196.264 339.286Z" fill="white"/>
<path d="M223.105 179.386C223.326 178.327 223.166 177.399 222.748 177.311C222.329 177.224 221.81 178.01 221.589 179.069C221.368 180.127 221.528 181.056 221.946 181.143C222.365 181.231 222.884 180.444 223.105 179.386Z" fill="#231F20"/>
<path d="M168.966 251.589H168.844C168.644 251.554 168.466 251.445 168.348 251.286C168.231 251.128 168.183 250.932 168.214 250.74C168.383 249.671 172.697 224.448 177.548 216.025C177.596 215.94 177.662 215.866 177.741 215.805C177.82 215.745 177.911 215.7 178.008 215.674C178.106 215.648 178.208 215.641 178.308 215.654C178.409 215.666 178.505 215.698 178.592 215.747C178.681 215.791 178.759 215.853 178.822 215.927C178.885 216.001 178.932 216.086 178.959 216.178C178.987 216.27 178.994 216.366 178.981 216.461C178.968 216.555 178.935 216.646 178.884 216.729C174.171 224.931 169.765 250.71 169.673 250.974C169.648 251.139 169.564 251.29 169.435 251.403C169.306 251.515 169.141 251.581 168.966 251.589Z" fill="#231F20"/>
<path d="M444.203 364.803C444.387 362.036 443.802 359.272 442.513 356.82C441.449 355.048 439.817 353.642 438.943 351.767C437.486 348.516 438.492 344.693 438.142 341.133C437.826 338.147 436.517 335.355 434.427 333.209C432.577 331.335 430.188 330.031 428.41 328.068C425.497 324.846 424.681 320.32 423.035 316.351C420.673 310.663 416.597 305.863 411.38 302.626C414.541 309.027 407.33 317.171 410.608 323.513C411.642 325.534 413.609 326.999 414.381 329.138C416.202 334.279 410.098 339.859 412.05 344.971C413.026 347.52 415.75 348.999 417.018 351.416C418.722 354.667 417.382 358.637 417.513 362.313C417.703 367.396 420.777 371.936 424.433 375.495C426.706 377.678 429.241 379.582 431.717 381.559C434.631 383.932 435.899 386.407 438.477 382.614C442.07 377.364 444.06 371.174 444.203 364.803Z" fill="#67D2E2"/>
<path d="M447.391 367.481C446.423 363.565 445.739 359.299 447.391 355.603C449.222 351.424 453.821 348.458 454.356 343.915C454.714 340.993 453.181 337.939 453.776 335.017C454.371 332.095 456.753 330.093 458.821 327.931C463.447 322.94 466.198 316.549 466.62 309.814C469.724 313.428 472.235 317.495 474.062 321.868C475.64 326.324 475.669 331.554 472.976 335.47C472.207 336.38 471.575 337.393 471.1 338.48C470.192 341.402 472.708 344.061 474.003 346.807C474.773 348.371 475.096 350.11 474.936 351.84C474.776 353.57 474.139 355.224 473.095 356.625C470.445 359.854 465.37 361.111 464.06 365.041C463.74 366.51 463.59 368.01 463.614 369.512C463.333 372.113 462.268 374.573 460.555 376.577C458.843 378.581 456.56 380.038 453.999 380.762C450.889 381.507 450.948 380.294 450.382 377.708C449.594 374.26 448.269 370.914 447.391 367.481Z" fill="#67D2E2"/>
<path d="M437.837 339.483C435.69 332.002 434.84 324.172 432.577 316.719C430.651 310.896 428.301 305.225 425.546 299.751L434.753 303.659C437.707 304.923 440.906 306.405 442.304 309.31C444.724 314.38 440.373 320.932 442.923 325.886C444.027 327.512 445.245 329.056 446.569 330.506C449.278 334.341 448.86 339.629 447.376 344.089C446.727 346.006 443.946 355.943 441.453 353.183C440.445 352.079 440.358 347.967 439.94 346.456C439.292 344.118 438.514 341.822 437.837 339.483Z" fill="#67D2E2"/>
<path d="M443.429 439.203C441.533 426.942 435.61 383.702 435.61 383.324L437.091 383.135C437.091 383.571 443.014 426.768 444.954 438.985L443.429 439.203Z" fill="#231F20"/>
<path d="M444.978 450.705H443.517C443.634 436.136 449.712 380.483 453.218 376.666L454.299 377.657C451.962 380.177 445.124 430.746 444.978 450.705Z" fill="#231F20"/>
<path d="M448.35 448.549H446.853C448.35 417.046 441.435 350.887 441.36 350.23L442.857 350.069C442.932 350.683 449.787 416.944 448.35 448.549Z" fill="#231F20"/>
<path d="M426.984 403.98H461.488L459.081 443.556C458.661 450.415 453.63 455.736 447.57 455.736H440.901C434.841 455.736 429.825 450.415 429.405 443.556L426.984 403.98Z" fill="white"/>
<path d="M447.559 456.455H440.901C434.489 456.455 429.119 450.805 428.67 443.588L426.267 404.067C426.259 403.964 426.273 403.861 426.306 403.763C426.34 403.666 426.393 403.576 426.462 403.501C426.531 403.425 426.615 403.365 426.709 403.324C426.803 403.282 426.904 403.261 427.006 403.262H461.454C461.66 403.265 461.857 403.349 462.004 403.496C462.14 403.654 462.212 403.858 462.206 404.067L459.789 443.588C459.355 450.79 453.985 456.455 447.559 456.455ZM427.802 404.74L430.161 443.471C430.552 449.897 435.27 454.918 440.901 454.918H447.559C453.189 454.918 457.907 449.897 458.298 443.471L460.657 404.711L427.802 404.74Z" fill="#231F20"/>
<path d="M461.885 267.404H390.323L406.459 147.359H478.02L461.885 267.404Z" fill="white"/>
<path d="M461.898 268.123H390.33C390.227 268.124 390.126 268.102 390.032 268.059C389.939 268.016 389.856 267.953 389.789 267.875C389.718 267.8 389.665 267.71 389.635 267.611C389.604 267.512 389.597 267.408 389.614 267.306L405.706 147.269C405.734 147.095 405.822 146.936 405.956 146.821C406.09 146.706 406.261 146.642 406.437 146.641H478.005C478.109 146.642 478.213 146.665 478.309 146.707C478.404 146.75 478.49 146.812 478.561 146.889C478.692 147.054 478.755 147.263 478.736 147.473L462.644 267.495C462.616 267.672 462.525 267.833 462.388 267.948C462.251 268.063 462.077 268.125 461.898 268.123ZM391.164 266.664H461.254L477.2 148.1H407.11L391.164 266.664Z" fill="#231F20"/>
<path d="M449.729 249.432H408.704C408.023 249.448 407.348 249.312 406.725 249.034C406.103 248.756 405.55 248.343 405.104 247.823C404.659 247.304 404.333 246.692 404.151 246.031C403.968 245.369 403.932 244.675 404.047 243.999L404.601 239.773C404.832 238.29 405.57 236.935 406.687 235.943C407.805 234.95 409.231 234.383 410.719 234.34H451.73C452.411 234.321 453.088 234.455 453.711 234.732C454.335 235.009 454.89 235.423 455.336 235.943C455.781 236.463 456.107 237.076 456.289 237.738C456.47 238.401 456.504 239.096 456.387 239.773L455.832 243.999C455.607 245.482 454.873 246.838 453.757 247.831C452.642 248.824 451.217 249.391 449.729 249.432Z" fill="#B59EFF"/>
<path d="M452.593 227.867H411.582C410.901 227.886 410.224 227.752 409.6 227.474C408.977 227.197 408.422 226.783 407.976 226.264C407.531 225.744 407.205 225.13 407.023 224.468C406.841 223.805 406.808 223.11 406.925 222.433L407.48 218.207C407.705 216.722 408.442 215.364 409.56 214.37C410.678 213.377 412.107 212.812 413.597 212.774H454.608C455.288 212.758 455.964 212.894 456.586 213.172C457.209 213.45 457.762 213.864 458.207 214.383C458.653 214.902 458.978 215.514 459.161 216.176C459.344 216.837 459.38 217.531 459.265 218.207L458.711 222.433C458.479 223.916 457.742 225.271 456.624 226.264C455.507 227.256 454.081 227.823 452.593 227.867Z" fill="white"/>
<path d="M452.589 228.586H411.586C410.807 228.6 410.035 228.444 409.322 228.129C408.609 227.814 407.972 227.348 407.455 226.761C406.943 226.159 406.566 225.453 406.35 224.691C406.133 223.929 406.082 223.129 406.199 222.345L406.769 218.12C407.024 216.463 407.848 214.949 409.096 213.84C410.344 212.732 411.938 212.101 413.6 212.055H454.604C455.382 212.041 456.154 212.197 456.867 212.512C457.58 212.827 458.217 213.294 458.735 213.88C459.244 214.483 459.62 215.19 459.837 215.951C460.053 216.713 460.106 217.513 459.99 218.297L459.421 222.521C459.165 224.179 458.342 225.693 457.094 226.801C455.846 227.909 454.252 228.541 452.589 228.586ZM413.6 213.498C412.289 213.534 411.032 214.032 410.048 214.906C409.064 215.78 408.415 216.975 408.214 218.282L407.644 222.507C407.554 223.087 407.589 223.681 407.745 224.247C407.901 224.813 408.175 225.339 408.549 225.789C408.931 226.217 409.4 226.557 409.924 226.786C410.448 227.015 411.015 227.127 411.586 227.114H452.589C453.902 227.078 455.161 226.577 456.146 225.7C457.13 224.823 457.778 223.625 457.976 222.315L458.545 218.091C458.636 217.509 458.601 216.914 458.442 216.348C458.283 215.781 458.005 215.256 457.625 214.808C457.244 214.384 456.777 214.047 456.256 213.821C455.735 213.595 455.171 213.485 454.604 213.498H413.6Z" fill="#D1D3D4"/>
<path d="M455.47 205.583H414.469C413.787 205.601 413.11 205.467 412.486 205.19C411.862 204.913 411.307 204.5 410.86 203.98C410.413 203.461 410.086 202.848 409.903 202.185C409.719 201.523 409.683 200.828 409.798 200.15L410.367 195.924C410.589 194.44 411.323 193.082 412.438 192.088C413.554 191.095 414.981 190.529 416.468 190.491H457.47C458.152 190.472 458.829 190.607 459.453 190.884C460.077 191.161 460.632 191.574 461.079 192.094C461.525 192.613 461.852 193.226 462.036 193.889C462.22 194.551 462.255 195.246 462.141 195.924L461.572 200.15C461.349 201.634 460.616 202.992 459.5 203.985C458.385 204.979 456.958 205.544 455.47 205.583Z" fill="white"/>
<path d="M455.466 206.302H414.474C413.688 206.322 412.907 206.166 412.188 205.846C411.469 205.526 410.829 205.05 410.314 204.452C409.799 203.854 409.422 203.148 409.21 202.386C408.999 201.623 408.957 200.823 409.089 200.043L409.643 195.826C409.901 194.173 410.725 192.663 411.973 191.558C413.22 190.452 414.812 189.82 416.473 189.772H457.465C458.251 189.752 459.032 189.908 459.751 190.228C460.47 190.548 461.11 191.024 461.625 191.622C462.14 192.221 462.517 192.926 462.729 193.689C462.94 194.451 462.982 195.251 462.85 196.031L462.296 200.248C462.038 201.901 461.214 203.411 459.966 204.516C458.719 205.622 457.127 206.254 455.466 206.302ZM416.473 191.241C415.161 191.281 413.904 191.782 412.92 192.656C411.937 193.531 411.288 194.725 411.088 196.031L410.533 200.248C410.445 200.826 410.48 201.415 410.636 201.978C410.792 202.54 411.065 203.063 411.438 203.51C411.82 203.937 412.289 204.277 412.813 204.505C413.336 204.733 413.903 204.845 414.474 204.833H455.466C456.778 204.793 458.035 204.293 459.019 203.418C460.002 202.543 460.65 201.349 460.851 200.043L461.391 195.826C461.494 195.254 461.468 194.665 461.315 194.105C461.163 193.544 460.888 193.025 460.51 192.585C460.132 192.145 459.661 191.796 459.132 191.564C458.602 191.331 458.028 191.221 457.451 191.241H416.473Z" fill="#D1D3D4"/>
<path d="M459.075 183.3H418.049C417.369 183.316 416.693 183.18 416.071 182.902C415.448 182.624 414.895 182.21 414.45 181.691C414.005 181.172 413.679 180.559 413.496 179.898C413.313 179.237 413.278 178.543 413.392 177.866L413.947 173.641C414.175 172.156 414.912 170.8 416.03 169.807C417.148 168.814 418.575 168.248 420.064 168.207H461.075C461.756 168.188 462.433 168.322 463.057 168.6C463.68 168.877 464.235 169.29 464.681 169.81C465.127 170.33 465.452 170.944 465.634 171.606C465.816 172.269 465.849 172.963 465.732 173.641L465.178 177.866C464.952 179.35 464.218 180.706 463.103 181.699C461.988 182.692 460.562 183.258 459.075 183.3Z" fill="white"/>
<path d="M458.455 184.016H417.436C416.64 184.045 415.848 183.897 415.117 183.582C414.385 183.266 413.731 182.792 413.202 182.193C412.693 181.59 412.318 180.885 412.102 180.124C411.885 179.363 411.832 178.564 411.947 177.781L412.516 173.561C412.769 171.903 413.591 170.387 414.839 169.277C416.088 168.167 417.683 167.534 419.348 167.488H460.352C461.131 167.472 461.904 167.627 462.617 167.942C463.33 168.257 463.967 168.724 464.483 169.311C464.995 169.913 465.372 170.618 465.588 171.379C465.805 172.141 465.856 172.94 465.739 173.723L465.184 177.943C464.932 179.583 464.124 181.085 462.897 182.192C461.67 183.299 460.1 183.944 458.455 184.016ZM419.406 168.944C418.094 168.983 416.837 169.484 415.853 170.36C414.869 171.235 414.22 172.43 414.02 173.738L413.465 177.958C413.363 178.529 413.388 179.116 413.54 179.677C413.692 180.237 413.966 180.756 414.342 181.195C414.718 181.635 415.188 181.985 415.715 182.218C416.243 182.452 416.816 182.564 417.392 182.546H458.455C459.763 182.506 461.017 182.007 461.998 181.134C462.979 180.261 463.626 179.07 463.826 177.767L464.396 173.546C464.486 172.966 464.451 172.374 464.295 171.808C464.139 171.243 463.865 170.717 463.491 170.267C463.109 169.84 462.64 169.5 462.116 169.272C461.592 169.043 461.025 168.931 460.454 168.944H419.406Z" fill="#D1D3D4"/>
<path d="M457.159 159.58H425.56C425.366 159.58 425.179 159.504 425.042 159.369C424.904 159.234 424.827 159.052 424.827 158.861C424.831 158.671 424.909 158.491 425.046 158.357C425.183 158.223 425.367 158.146 425.56 158.142H457.159C457.354 158.142 457.541 158.218 457.678 158.353C457.816 158.487 457.893 158.67 457.893 158.861C457.893 158.955 457.874 159.049 457.837 159.136C457.8 159.223 457.746 159.302 457.678 159.369C457.61 159.436 457.529 159.489 457.44 159.525C457.351 159.561 457.256 159.58 457.159 159.58Z" fill="#D1D3D4"/>
</svg>
