<svg width="566" height="507" viewBox="0 0 566 507" fill="none" xmlns="http://www.w3.org/2000/svg">
<g clip-path="url(#clip0_533_3119)">
<path opacity="0.1" d="M108.603 125.783C149.765 83.9 181.971 26.6548 230.114 7.28866C278.258 -11.618 342.537 7.8795 404.84 44.0516C467.144 79.8298 527.801 132.283 552.828 200.95C577.854 269.618 567.58 354.961 521.149 404.394C474.718 453.761 392.261 466.694 320.869 483.04C249.148 498.861 189.083 517.637 143.574 499.715C98.0651 481.793 66.8475 427.042 40.2402 374.721C13.1717 322.202 -9.54991 271.653 4.08308 233.184C17.7161 194.648 67.3744 168.126 108.603 125.783Z" fill="#3885FF"/>
<path d="M450.284 280.186H176.702V292.987H213.452V411.613H225.899V293.053H400.889V411.679H413.337V293.053H450.284V280.186Z" fill="white"/>
<path d="M305.59 251.629H290.969V266.728C290.969 275.328 292.484 280.186 300.19 280.186H305.59" fill="#231F20"/>
<path d="M305.59 251.629H290.969V266.728C290.969 275.328 292.484 280.186 300.19 280.186H305.59" stroke="#231F20" stroke-linecap="round" stroke-linejoin="round"/>
<path d="M314.481 267.713C315.469 267.647 316.391 267.253 317.115 266.531C317.774 265.809 318.169 264.89 318.169 263.905C318.169 262.92 317.774 262.001 317.115 261.279C316.457 260.557 315.469 260.163 314.481 260.098V257.209C316.259 257.209 317.972 257.931 319.223 259.179C320.474 260.426 321.199 262.133 321.199 263.905C321.199 265.678 320.474 267.385 319.223 268.632C317.972 269.879 316.259 270.601 314.481 270.601" fill="#231F20"/>
<path d="M314.481 267.713C315.469 267.647 316.391 267.253 317.115 266.531C317.774 265.809 318.169 264.89 318.169 263.905C318.169 262.92 317.774 262.001 317.115 261.279C316.457 260.557 315.469 260.163 314.481 260.098V257.209C316.259 257.209 317.972 257.931 319.223 259.179C320.474 260.426 321.199 262.133 321.199 263.905C321.199 265.678 320.474 267.385 319.223 268.632C317.972 269.879 316.259 270.601 314.481 270.601" stroke="#231F20" stroke-linecap="round" stroke-linejoin="round"/>
<path d="M299.992 251.629H314.613V266.728C314.613 275.328 313.098 280.186 305.392 280.186H299.992" fill="#231F20"/>
<path d="M299.992 251.629H314.613V266.728C314.613 275.328 313.098 280.186 305.392 280.186H299.992" stroke="#231F20" stroke-linecap="round" stroke-linejoin="round"/>
<path d="M193.167 173.114C193.167 173.114 190.664 169.438 187.964 161.494C185.264 153.551 186.318 125.191 186.318 125.191C186.318 124.206 185.857 123.221 185.198 122.499C184.342 121.777 183.156 119.086 182.564 116.788L180.72 109.895L178.151 104.643C178.151 104.643 175.517 100.376 176.636 99.6537C177.756 98.9316 180.127 103.658 180.127 103.658C180.127 103.658 182.827 108.516 183.288 108.451C183.749 108.385 182.037 104.512 181.378 102.28C180.72 100.048 178.81 94.5988 180.39 94.4019C181.971 94.205 182.564 97.75 183.354 100.179C184.078 102.608 185.461 106.744 186.054 106.678C186.647 106.678 184.803 100.835 184.276 98.9973C183.749 97.1591 181.707 92.5638 183.156 91.9729C184.605 91.3821 186.252 96.0431 186.779 97.6187C187.306 99.1942 188.886 105.234 189.413 105.168C189.94 105.103 189.215 98.9316 188.886 97.0278C188.557 95.1897 187.701 92.1699 189.018 92.1042C190.335 92.0386 190.599 94.6645 191.586 98.1438L193.892 106.219C193.892 106.219 194.748 110.945 195.604 110.814C196.46 110.683 198.436 106.219 199.292 104.84C200.148 103.461 202.058 102.477 202.453 103.396C202.783 104.315 200.741 107.269 200.478 108.582C200.148 109.895 199.556 112.193 199.029 114.687C198.502 117.182 196.855 119.283 196.131 120.464C195.406 121.646 194.55 122.499 194.748 123.681C194.748 123.681 198.37 152.96 199.885 157.621C201.334 162.282 207.327 167.862 207.327 167.862" fill="white"/>
<path d="M259.488 393.363L257.051 402.554L263.505 403.801L272.726 402.488L272.397 394.348" fill="white"/>
<path d="M249.412 181.386C248.621 180.007 248.687 177.447 248.687 177.447L247.897 177.25C259.29 171.67 257.973 147.511 257.973 147.511L231.037 142.062L229.192 150.4C229.192 150.4 228.995 151.91 228.929 154.207C228.336 154.207 225.175 154.207 225.834 157.884C226.426 161.888 229.192 162.348 229.192 162.348C229.192 162.348 229.324 161.888 229.39 162.479C229.983 167.009 231.366 171.801 234.33 174.886C234.33 176.199 234.264 178.957 233.539 179.613C232.551 180.467 228.995 179.941 228.995 179.941C228.995 179.941 217.865 191.692 241.706 195.828C265.547 199.964 255.273 184.209 255.273 184.209C255.273 184.209 250.136 182.764 249.412 181.386Z" fill="white"/>
<path d="M239.73 159.59C240.125 159.59 240.389 159.262 240.389 158.934C240.389 158.54 240.059 158.277 239.73 158.277C239.335 158.277 239.071 158.606 239.071 158.934C239.071 159.328 239.401 159.59 239.73 159.59Z" fill="#231F20" stroke="#231F20" stroke-linecap="round" stroke-linejoin="round"/>
<path d="M250.202 160.05C250.597 160.05 250.86 159.722 250.86 159.393C250.86 159 250.531 158.737 250.202 158.737C249.807 158.737 249.543 159.065 249.543 159.393C249.477 159.722 249.807 160.05 250.202 160.05Z" fill="#231F20" stroke="#231F20" stroke-linecap="round" stroke-linejoin="round"/>
<path d="M237.688 146.067C237.688 146.067 250.795 150.465 259.093 148.693C267.325 146.92 268.708 134.907 262.913 131.099C257.183 127.292 250.07 131.887 250.07 131.887C250.07 131.887 246.382 123.615 237.623 126.373C228.863 129.13 229.917 135.695 229.917 135.695C229.917 135.695 221.355 136.22 221.355 144.885C221.355 153.551 230.839 156.308 234.198 153.682C237.623 151.056 237.688 146.067 237.688 146.067Z" fill="#231F20" stroke="#231F20" stroke-miterlimit="10"/>
<path d="M272.726 228.455C272.726 228.455 275.755 232 276.612 234.298C277.468 236.596 266.667 258.063 266.469 259.113L270.882 273.359C272.133 271.192 275.69 260.163 275.69 260.163C275.624 259.507 290.442 238.368 289.718 233.051C289.257 229.834 288.137 226.748 286.491 223.991" fill="white"/>
<path d="M255.734 401.569C255.734 401.569 255.536 401.635 255.536 405.639C255.536 409.578 256.393 411.679 256.393 411.679H277.599C277.599 411.679 287.544 411.679 288.335 411.679C289.125 411.679 293.142 411.351 293.933 408.593C294.723 405.836 293.011 405.902 285.108 403.801C277.204 401.7 275.887 400.913 274.175 401.438C270.816 402.422 255.734 401.569 255.734 401.569Z" fill="#231F20" stroke="#231F20" stroke-linejoin="round"/>
<path d="M246.975 403.342L245.855 397.368L231.893 398.024L230.773 403.736" fill="white"/>
<path d="M229.719 411.548H248.687C248.687 411.548 250.795 408.528 249.741 406.099C248.687 403.67 244.67 401.635 239.73 401.635C234.791 401.635 229.719 403.21 228.731 405.705C227.809 408.265 229.719 411.548 229.719 411.548Z" fill="#231F20" stroke="#231F20" stroke-linejoin="round"/>
<path d="M213.715 261.87C213.715 261.87 214.769 270.536 216.942 288.655C219.116 306.708 219.511 308.021 222.672 329.159C225.834 350.232 225.438 394.742 225.899 397.039C226.36 399.337 250.333 398.681 250.268 396.383C250.202 394.282 246.118 301.128 245.394 284.913C245.328 283.337 245.262 282.484 245.262 282.484C245.262 282.484 257.841 322.201 258.764 331.982C259.686 341.698 253.758 391.722 253.758 391.722C253.758 391.722 253.034 394.61 264.691 395.727C276.348 396.843 277.665 395.53 277.665 395.53C277.665 395.53 285.7 339.597 284.317 326.599C282.934 313.601 267.128 259.507 267.128 259.507L213.715 261.87Z" fill="white"/>
<path d="M436.058 166.68L374.743 123.681L372.372 127.029L433.687 170.029L436.058 166.68Z" fill="white"/>
<path d="M373.952 125.322L372.569 124.337L368.223 130.508L369.606 131.493L373.952 125.322Z" fill="#231F20"/>
<path d="M396.213 231.344L440.273 168.847L436.915 166.483L392.854 228.98L396.213 231.344Z" fill="white"/>
<path d="M373.294 134.447L362.229 126.701L354.26 137.992L365.325 145.739L373.294 134.447Z" fill="white"/>
<path d="M366.576 172.589L328.575 146.001L354.392 137.861L365.457 145.607L366.576 172.589Z" fill="white"/>
<path d="M362.098 163.464C365.918 168.059 367.564 172.261 365.918 174.493C363.217 178.366 352.219 175.346 341.484 167.796C330.748 160.247 324.162 150.991 326.929 147.117C328.773 144.491 334.568 145.017 341.484 148.102" fill="white"/>
<path d="M345.303 150.4C344.447 150.925 343.723 151.647 343.13 152.435C342.471 153.354 342.076 154.404 341.879 155.52C341.681 156.636 341.747 157.752 342.076 158.868C342.406 159.919 342.933 160.969 343.723 161.757C344.447 162.61 345.435 163.267 346.423 163.661C347.477 164.12 348.596 164.317 349.716 164.252C350.836 164.186 351.955 163.858 352.943 163.332C353.931 162.807 354.787 162.019 355.446 161.1C356.104 160.181 356.565 159.131 356.763 158.015C356.763 158.015 353.47 155.389 351.363 153.813C349.453 152.566 347.411 151.385 345.303 150.4Z" fill="#68E1FD"/>
<path d="M435.795 177.775L430.065 174.558L433.951 162.676L442.71 169.7L435.795 177.775Z" fill="white"/>
<path d="M378.431 125.453L371.516 120.202L370.396 128.801L378.431 125.453Z" fill="white"/>
<path d="M414.588 237.843H445.213C445.213 237.843 448.308 241.585 448.308 248.609C448.308 255.633 445.213 259.178 445.213 259.178H414.456" fill="#AAA0FD"/>
<path d="M331.736 259.178C331.736 259.178 335.227 255.568 335.227 248.609C335.227 241.585 332.131 237.843 332.131 237.843H414.325C414.325 237.843 417.486 241.585 417.486 248.609C417.486 255.633 414.325 259.178 414.325 259.178H331.736Z" fill="#AAA0FD"/>
<path d="M328.377 239.747H413.007C413.007 239.747 415.444 242.701 415.444 248.544C415.444 254.386 413.007 257.537 413.007 257.537H328.377C328.18 257.537 327.916 257.603 327.785 257.8C327.653 257.931 327.521 258.194 327.521 258.391C327.521 258.588 327.587 258.85 327.785 258.982C327.916 259.113 328.18 259.244 328.377 259.244H414.39C414.39 259.244 417.486 255.634 417.486 248.675C417.486 241.651 414.39 237.909 414.39 237.909H328.377C328.114 237.909 327.916 238.04 327.719 238.237C327.587 238.434 327.455 238.631 327.455 238.893C327.455 239.156 327.521 239.353 327.719 239.55C327.916 239.615 328.114 239.747 328.377 239.747Z" fill="#AAA0FD"/>
<path d="M361.242 259.179H330.617C330.617 259.179 327.521 262.921 327.521 269.945C327.521 276.969 330.617 280.514 330.617 280.514H361.373" fill="white"/>
<path d="M444.027 280.514C444.027 280.514 440.537 276.904 440.537 269.945C440.537 262.921 443.632 259.179 443.632 259.179H361.439C361.439 259.179 358.278 262.921 358.278 269.945C358.278 276.969 361.439 280.514 361.439 280.514H444.027Z" fill="white"/>
<path d="M447.386 261.082H362.822C362.822 261.082 360.385 264.037 360.385 269.814C360.385 275.591 362.822 278.807 362.822 278.807H447.386C447.584 278.807 447.847 278.873 447.979 279.07C448.111 279.201 448.242 279.464 448.242 279.661C448.242 279.858 448.177 280.12 447.979 280.252C447.847 280.383 447.584 280.514 447.386 280.514H361.373C361.373 280.514 358.278 276.904 358.278 269.945C358.278 262.921 361.373 259.179 361.373 259.179H447.386C447.65 259.179 447.847 259.31 447.979 259.441C448.111 259.638 448.242 259.835 448.242 260.032C448.242 260.295 448.177 260.557 447.979 260.689C447.847 260.885 447.65 261.017 447.386 261.082Z" fill="white"/>
<path d="M367.959 266.4V275.394L371.186 272.177L374.15 275.131V266.4" fill="#68E1FD"/>
<path d="M410.834 219.396H437.178C437.178 219.396 439.878 222.613 439.878 228.652C439.878 234.692 437.178 237.777 437.178 237.777H410.768" fill="white"/>
<path d="M339.639 237.777C339.639 237.777 342.669 234.692 342.669 228.652C342.669 222.613 339.969 219.396 339.969 219.396H410.636C410.636 219.396 413.337 222.613 413.337 228.652C413.337 234.692 410.636 237.777 410.636 237.777H339.639Z" fill="white"/>
<path d="M336.676 221.037H409.451C409.451 221.037 411.559 223.597 411.559 228.587C411.559 233.576 409.451 236.267 409.451 236.267H336.676C336.478 236.267 336.347 236.399 336.215 236.53C336.083 236.661 336.017 236.858 336.017 237.055C336.017 237.252 336.083 237.449 336.215 237.58C336.347 237.712 336.478 237.777 336.676 237.843H410.702C410.702 237.843 413.403 234.758 413.403 228.718C413.403 222.678 410.702 219.462 410.702 219.462H336.676C336.478 219.462 336.215 219.527 336.083 219.724C335.951 219.855 335.82 220.118 335.82 220.315C335.82 220.512 335.885 220.775 336.083 220.906C336.281 220.971 336.478 221.037 336.676 221.037Z" fill="white"/>
<path d="M158.393 357.913C158.393 357.913 151.873 357.716 145.353 366.71C138.833 375.704 128.493 380.234 123.092 372.356C117.758 364.478 122.96 357.06 134.223 353.909C145.55 350.692 158.393 357.913 158.393 357.913Z" fill="#67D2E2"/>
<path d="M157.471 348.919C157.471 348.919 165.638 344.455 173.475 355.353C181.378 366.25 194.089 365.397 196.855 360.736C199.621 356.075 195.472 347.016 181.839 343.142C168.14 339.269 157.471 348.919 157.471 348.919Z" fill="#67D2E2"/>
<path d="M156.747 341.961C152.202 340.123 147.197 339.926 142.521 341.37C134.42 343.668 119.799 341.567 119.404 335.199C119.009 328.831 127.11 324.039 138.701 325.746C150.226 327.387 156.747 341.961 156.747 341.961Z" fill="#67D2E2"/>
<path d="M158.195 320.231C158.195 320.231 152.663 308.349 146.999 304.87C141.335 301.39 129.085 298.961 126.253 306.708C124.278 312.157 131.456 318.918 141.994 318.524C152.532 318.196 158.195 320.231 158.195 320.231Z" fill="#67D2E2"/>
<path d="M160.435 312.222C160.435 312.222 165.242 301.85 170.182 298.83C175.121 295.81 185.857 293.709 188.359 300.406C190.137 305.132 183.815 311.106 174.595 310.778C165.374 310.384 160.435 312.222 160.435 312.222Z" fill="#67D2E2"/>
<path d="M157.471 334.28C157.471 334.28 165.308 329.685 174.068 329.619C182.827 329.553 189.084 330.538 190.467 325.155C191.784 319.772 184.671 316.489 174.002 318.131C163.333 319.706 157.471 334.28 157.471 334.28Z" fill="#67D2E2"/>
<path d="M160.369 300.537C160.369 300.537 155.1 297.845 150.49 290.821C145.814 283.797 143.575 269.223 149.568 266.991C155.561 264.693 162.608 270.995 164.32 282.549C166.099 294.038 160.369 300.537 160.369 300.537Z" fill="#67D2E2"/>
<path d="M365.984 128.998C366.906 128.276 367.498 127.16 367.432 125.453C367.432 123.287 363.678 121.318 365.391 118.495C367.037 115.869 374.018 116.197 373.294 121.318" stroke="#231F20" stroke-linecap="round" stroke-linejoin="round"/>
<path d="M431.843 168.453L373.426 127.554" stroke="#231F20" stroke-linecap="round" stroke-linejoin="round"/>
<path d="M377.838 125.65L433.226 164.514" stroke="#231F20" stroke-linecap="round" stroke-linejoin="round"/>
<path d="M371.977 128.014L369.474 131.624" stroke="#231F20" stroke-linecap="round" stroke-linejoin="round"/>
<path d="M368.091 130.508L370.528 127.029" stroke="#231F20" stroke-linecap="round" stroke-linejoin="round"/>
<path d="M399.638 219.199L430.856 174.952" stroke="#231F20" stroke-linecap="round" stroke-linejoin="round"/>
<path d="M434.478 176.922L404.511 219.396" stroke="#231F20" stroke-linecap="round" stroke-linejoin="round"/>
<path d="M373.294 134.316L362.229 126.504L354.26 137.795L365.325 145.542L373.294 134.316Z" stroke="#231F20" stroke-linecap="round" stroke-linejoin="round"/>
<path d="M328.575 145.804L354.392 137.664L365.457 145.41L366.51 172.392" stroke="#231F20" stroke-linecap="round" stroke-linejoin="round"/>
<path d="M328.575 145.804C331.209 144.754 336.017 145.607 341.484 148.036" stroke="#231F20" stroke-linecap="round" stroke-linejoin="round"/>
<path d="M366.51 172.326C366.51 173.048 366.313 173.77 365.918 174.361C363.217 178.234 352.219 175.215 341.484 167.665C330.748 160.116 324.162 150.859 326.929 146.986C327.324 146.461 327.851 146.001 328.509 145.739" stroke="#231F20" stroke-linecap="round" stroke-linejoin="round"/>
<path d="M362.098 163.332C364.996 166.746 366.576 169.963 366.576 172.326" stroke="#231F20" stroke-linecap="round" stroke-linejoin="round"/>
<path d="M341.484 148.036C344.974 149.612 348.267 151.516 351.363 153.682C355.314 156.439 358.936 159.656 362.098 163.267" stroke="#231F20" stroke-linecap="round" stroke-linejoin="round"/>
<path d="M435.795 177.578L430.065 174.361L433.951 162.479L442.71 169.503L435.795 177.578Z" stroke="#231F20" stroke-linecap="round" stroke-linejoin="round"/>
<path d="M370.66 126.701L370.396 128.67L378.431 125.322L371.516 120.07L370.66 126.701Z" stroke="#231F20" stroke-linecap="round" stroke-linejoin="round"/>
<path d="M410.834 219.396H437.178C437.178 219.396 439.878 222.613 439.878 228.652C439.878 234.692 437.178 237.777 437.178 237.777H410.768" stroke="#231F20" stroke-linejoin="round"/>
<path d="M336.676 221.037H409.451C409.451 221.037 411.559 223.597 411.559 228.587C411.559 233.576 409.451 236.267 409.451 236.267H336.676C336.478 236.267 336.347 236.399 336.215 236.53C336.083 236.661 336.017 236.858 336.017 237.055C336.017 237.252 336.083 237.449 336.215 237.58C336.347 237.712 336.478 237.777 336.676 237.843H410.702C410.702 237.843 413.403 234.758 413.403 228.718C413.403 222.678 410.702 219.462 410.702 219.462H336.676C336.478 219.462 336.215 219.527 336.083 219.724C335.951 219.855 335.82 220.118 335.82 220.315C335.82 220.512 335.885 220.775 336.083 220.906C336.281 220.971 336.478 221.037 336.676 221.037Z" stroke="#231F20" stroke-linecap="round" stroke-linejoin="round"/>
<path d="M328.377 239.747H413.007C413.007 239.747 415.444 242.701 415.444 248.544C415.444 254.386 413.007 257.537 413.007 257.537H328.377C328.18 257.537 327.916 257.603 327.785 257.8C327.653 257.931 327.521 258.194 327.521 258.391C327.521 258.588 327.587 258.85 327.785 258.982C327.916 259.113 328.18 259.244 328.377 259.244H414.39C414.39 259.244 417.486 255.634 417.486 248.675C417.486 241.651 414.39 237.909 414.39 237.909H328.377C328.114 237.909 327.916 238.04 327.719 238.237C327.587 238.434 327.455 238.631 327.455 238.893C327.455 239.156 327.521 239.353 327.719 239.55C327.916 239.615 328.114 239.747 328.377 239.747Z" stroke="#231F20" stroke-linecap="round" stroke-linejoin="round"/>
<path d="M340.825 221.037C342.01 223.4 342.537 226.026 342.537 228.718C342.603 231.409 341.879 234.035 340.561 236.399" stroke="#231F20" stroke-miterlimit="10"/>
<path d="M333.185 239.747C334.502 242.504 335.161 245.589 335.161 248.675C335.227 251.826 334.437 254.911 332.856 257.603" stroke="#231F20" stroke-miterlimit="10"/>
<path d="M361.242 259.179H330.617C330.617 259.179 327.521 262.921 327.521 269.945C327.521 276.969 330.617 280.514 330.617 280.514H361.373" stroke="#231F20" stroke-linejoin="round"/>
<path d="M447.386 261.148H362.822C362.822 261.148 360.385 264.102 360.385 269.879C360.385 275.656 362.822 278.873 362.822 278.873H447.386C447.584 278.873 447.847 278.939 447.979 279.136C448.111 279.267 448.242 279.529 448.242 279.726C448.242 279.923 448.177 280.186 447.979 280.317C447.847 280.449 447.584 280.58 447.386 280.58H361.373C361.373 280.58 358.278 276.969 358.278 270.01C358.278 262.986 361.373 259.244 361.373 259.244H447.386C447.65 259.244 447.847 259.375 447.979 259.507C448.111 259.704 448.242 259.901 448.242 260.098C448.242 260.36 448.177 260.623 447.979 260.754C447.847 260.951 447.65 261.082 447.386 261.148Z" stroke="#231F20" stroke-linecap="round" stroke-linejoin="round"/>
<path d="M442.578 261.082C441.261 263.84 440.537 266.925 440.603 270.011C440.537 273.162 441.327 276.181 442.908 278.939" stroke="#231F20" stroke-miterlimit="10"/>
<path d="M229.127 154.142C229.127 154.142 225.307 153.813 225.899 157.818C226.558 161.822 229.258 162.282 229.258 162.282" stroke="#231F20" stroke-linecap="round" stroke-linejoin="round"/>
<path d="M259.159 394.676L257.051 402.554L263.505 403.801L272.726 402.488L272.462 395.858" stroke="#231F20" stroke-linejoin="round"/>
<path d="M231.893 398.353L230.839 403.801" stroke="#231F20" stroke-linejoin="round"/>
<path d="M246.975 403.342L245.921 397.565" stroke="#231F20" stroke-linejoin="round"/>
<path d="M213.452 293.316V411.942H225.899V397.04" stroke="#231F20" stroke-linecap="round" stroke-linejoin="round"/>
<path d="M400.889 293.644V411.876H413.337V293.644" stroke="#231F20" stroke-linecap="round" stroke-linejoin="round"/>
<path d="M271.145 273.03C272.594 269.945 275.821 260.163 275.821 260.163C275.755 259.507 290.574 238.368 289.849 233.051C289.388 229.834 288.269 226.748 286.622 223.991" stroke="#231F20" stroke-miterlimit="10"/>
<path d="M245.789 159.197C245.789 159.197 246.909 164.251 246.25 165.171C245.592 166.09 243.484 165.499 243.484 165.499" stroke="#231F20" stroke-linecap="round" stroke-linejoin="round"/>
<path d="M248.687 170.291C248.687 170.422 245.921 171.604 243.023 171.079C240.191 170.554 238.347 169.175 238.545 169.241" stroke="#231F20" stroke-miterlimit="10" stroke-linecap="round"/>
<path d="M272.726 228.455C272.726 228.455 275.755 232 276.611 234.298C277.336 236.136 270.157 250.973 267.457 256.815" stroke="#231F20" stroke-miterlimit="10"/>
<path d="M245.789 293.316H248.489" stroke="#231F20" stroke-linecap="round" stroke-linejoin="round"/>
<path d="M216.02 280.514H176.768V293.315H217.601" stroke="#231F20" stroke-linecap="round" stroke-linejoin="round"/>
<path d="M276.677 293.315H450.218V280.514H273.187" stroke="#231F20" stroke-linecap="round" stroke-linejoin="round"/>
<path d="M248.555 177.381C248.555 177.381 248.555 180.007 249.28 181.32C249.675 182.108 251.519 182.83 253.034 182.961" stroke="#231F20" stroke-linecap="round" stroke-linejoin="round"/>
<path d="M234.264 174.887C234.264 174.887 234.461 178.76 233.473 179.613C232.881 180.073 231.498 180.138 230.378 180.073" stroke="#231F20" stroke-miterlimit="10"/>
<path d="M229.39 162.479C230.378 170.029 233.605 178.366 242.825 178.366C259.751 178.366 258.039 147.511 258.039 147.511" stroke="#231F20" stroke-linecap="round" stroke-linejoin="round"/>
<path d="M171.697 411.679H150.753C142.916 411.679 142.389 374.391 142.389 374.391H180.127C180.061 374.391 179.534 411.679 171.697 411.679Z" fill="#AAA0FD" stroke="#231F20" stroke-linecap="round" stroke-linejoin="round"/>
<path d="M439.417 411.679H129.942" stroke="#231F20" stroke-linejoin="round"/>
<path d="M193.167 173.114C193.167 173.114 190.664 169.438 187.964 161.494C185.264 153.551 186.318 125.191 186.318 125.191C186.318 124.206 185.857 123.221 185.198 122.499C184.342 121.777 183.156 119.086 182.564 116.788L180.72 109.895L178.151 104.643C178.151 104.643 175.517 100.376 176.636 99.6537C177.756 98.9316 180.127 103.658 180.127 103.658C180.127 103.658 182.827 108.516 183.288 108.451C183.815 108.451 182.037 104.512 181.378 102.28C180.72 100.048 178.81 94.5988 180.39 94.4019C181.971 94.205 182.564 97.75 183.354 100.179C184.078 102.608 185.461 106.744 186.054 106.678C186.647 106.678 184.803 100.835 184.276 98.9973C183.749 97.1591 181.707 92.5638 183.156 91.9729C184.605 91.3821 186.252 96.0431 186.779 97.6187C187.306 99.1942 188.886 105.234 189.413 105.168C189.94 105.103 189.215 98.9316 188.886 97.0278C188.557 95.1897 187.701 92.1699 189.018 92.1042C190.335 92.0386 190.599 94.6645 191.586 98.1438L193.892 106.219C193.892 106.219 194.748 110.945 195.604 110.814C196.46 110.683 198.436 106.219 199.292 104.84C200.148 103.461 202.058 102.477 202.453 103.396C202.783 104.315 200.741 107.269 200.478 108.582C200.148 109.895 199.556 112.193 199.029 114.687C198.502 117.182 196.855 119.283 196.131 120.464C195.406 121.646 194.55 122.499 194.748 123.681C194.748 123.681 198.37 152.96 199.885 157.621C201.334 162.282 206.141 166.615 206.141 166.615" stroke="#231F20" stroke-miterlimit="10"/>
<path d="M340.43 249.791H410.241" stroke="#231F20" stroke-miterlimit="10" stroke-linecap="round"/>
<path d="M364.074 266.531H417.552" stroke="#231F20" stroke-linecap="round" stroke-linejoin="round"/>
<path d="M350.111 227.011H381.197" stroke="#231F20" stroke-miterlimit="10" stroke-linecap="round"/>
<path d="M245.921 397.827C248.489 397.499 250.268 396.974 250.268 396.317C250.202 394.217 246.118 301.062 245.394 284.847C245.328 283.271 245.262 282.418 245.262 282.418C245.262 282.418 257.841 322.135 258.764 331.917C259.686 341.633 253.758 391.656 253.758 391.656C253.758 391.656 253.034 394.545 264.691 395.661C276.348 396.777 277.665 395.464 277.665 395.464C277.665 395.464 285.7 339.532 284.317 326.534C283.066 314.52 269.433 267.45 267.391 260.295" stroke="#231F20" stroke-linejoin="round"/>
<path d="M213.979 263.839C214.374 267.319 215.428 275.525 217.008 288.654C219.182 306.773 219.577 308.021 222.738 329.159C225.899 350.232 225.504 394.742 225.965 397.039C226.295 398.746 239.071 398.812 245.987 397.827" stroke="#231F20" stroke-linejoin="round"/>
<path d="M308.751 248.544C306.248 246.443 306.248 245.13 306.314 244.014C306.38 241.913 307.632 241.125 307.697 238.434C307.697 237.383 307.5 236.399 307.039 235.48" stroke="#231F20" stroke-linecap="round" stroke-linejoin="round"/>
<path d="M299.267 248.544C298.543 247.953 297.95 247.231 297.555 246.443C297.16 245.589 296.962 244.736 296.962 243.817C297.028 241.716 298.148 240.534 298.148 237.843C298.148 236.793 297.884 235.808 297.489 234.889" stroke="#231F20" stroke-linecap="round" stroke-linejoin="round"/>
<path d="M303.68 246.049C302.89 245.524 302.297 244.736 301.902 243.883C301.507 243.029 301.375 242.11 301.441 241.125C301.507 239.025 302.56 238.04 302.56 235.283C302.56 234.232 302.363 233.248 301.902 232.329" stroke="#231F20" stroke-linecap="round" stroke-linejoin="round"/>
<path d="M157.866 357.716C157.866 357.716 134.947 358.242 129.942 363.428" stroke="#231F20" stroke-miterlimit="10" stroke-linecap="round"/>
<path d="M184.671 350.035C177.492 344.718 159.117 347.213 157.273 348.788" stroke="#231F20" stroke-miterlimit="10" stroke-linecap="round"/>
<path d="M156.483 341.304C156.483 341.304 143.048 332.114 132.247 332.639" stroke="#231F20" stroke-miterlimit="10" stroke-linecap="round"/>
<path d="M177.953 323.054C171.367 323.185 157.866 331.588 157.734 333.755" stroke="#231F20" stroke-miterlimit="10" stroke-linecap="round"/>
<path d="M158.459 320.231C158.459 320.231 145.419 310.515 134.552 310.647" stroke="#231F20" stroke-miterlimit="10" stroke-linecap="round"/>
<path d="M160.105 301.456C160.105 301.456 161.423 285.241 155.627 276.181" stroke="#231F20" stroke-miterlimit="10" stroke-linecap="round"/>
<path d="M179.929 302.375C173.343 302.506 159.842 310.909 159.71 313.076" stroke="#231F20" stroke-miterlimit="10" stroke-linecap="round"/>
<path d="M161.818 374.391C159.381 365.791 157.734 356.994 157.01 348.066C155.627 332.77 160.171 320.297 160.171 300.471" stroke="#231F20" stroke-linecap="round" stroke-linejoin="round"/>
<path d="M267.391 254.321C267.852 256.75 268.577 260.426 267.655 260.754C266.14 261.279 259.883 260.492 245.394 260.885C230.971 261.345 209.961 265.743 209.961 263.84C209.961 263.314 210.159 261.017 210.488 257.537" fill="#3272D8"/>
<path d="M209.171 166.943C208.381 165.696 207.656 164.383 206.932 163.201C206.932 163.201 206.668 162.807 206.405 163.07C206.076 163.332 203.771 165.433 197.514 168.256L189.611 171.867C189.018 172.129 189.018 172.261 189.018 172.523C189.018 172.786 189.084 173.048 189.216 173.245C189.545 173.836 189.808 174.493 190.203 175.149" fill="#3272D8"/>
<path d="M267.194 253.205C267.391 254.255 267.589 255.24 267.786 256.159L267.194 253.205Z" fill="#3272D8"/>
<path d="M278.192 203.509C272.923 195.763 269.235 191.102 264.625 188.607V188.541C263.637 187.688 252.968 181.714 252.77 181.976C252.573 182.239 252.639 182.239 252.375 182.961C251.717 184.537 248.16 187.491 243.55 187.688C238.94 187.885 232.551 182.567 231.432 180.27C231.102 179.613 231.037 179.547 230.839 179.416C230.576 179.351 221.487 175.937 218.391 175.543H218.326C212.135 172.851 209.698 167.403 207.129 163.267C207.129 163.267 206.866 162.873 206.603 163.135C206.273 163.398 203.968 165.499 197.711 168.322L189.808 171.932C189.216 172.195 189.215 172.326 189.215 172.589C189.215 172.851 189.281 173.114 189.413 173.311C191.586 177.906 194.55 182.108 199.819 189.395C205.285 196.944 210.686 201.802 213.584 206.463C213.386 210.993 213.254 215.26 213.254 218.674C213.254 232.985 210.291 262.067 210.291 263.905C210.291 265.743 231.234 261.345 245.723 260.951C260.212 260.492 266.469 261.345 267.984 260.82C269.499 260.295 267.589 255.502 267.194 250.841C266.798 246.18 261.859 236.99 264.362 219.658C264.428 219.396 264.428 219.133 264.493 218.805C266.667 221.365 269.367 224.779 270.552 227.405C270.552 227.405 271.672 229.571 272.199 229.571C272.726 229.571 276.019 227.602 282.671 225.567C288.598 223.729 288.664 223.532 288.664 223.203C288.401 222.81 283.593 211.452 278.192 203.509Z" fill="#3272D8"/>
</g>
<defs>
<clipPath id="clip0_533_3119">
<rect width="566" height="507" fill="white"/>
</clipPath>
</defs>
</svg>
