<svg width="28" height="30" viewBox="0 0 28 30" fill="none" xmlns="http://www.w3.org/2000/svg">
<path fill-rule="evenodd" clip-rule="evenodd" d="M13.8386 0.833344H20.9777C24.5472 0.833344 27.4584 3.66668 27.4584 7.12334V22.8767C27.4584 26.3475 24.5472 29.1667 20.9484 29.1667H13.824C10.2545 29.1667 7.32869 26.3475 7.32869 22.8908V16.0908H16.3987L14.0581 18.3575C13.6192 18.7825 13.6192 19.4767 14.0581 19.9017C14.2775 20.1142 14.5701 20.2133 14.8627 20.2133C15.1406 20.2133 15.4332 20.1142 15.6527 19.9017L19.9244 15.7792C20.1438 15.5808 20.2608 15.2975 20.2608 15C20.2608 14.7167 20.1438 14.4333 19.9244 14.235L15.6527 10.1125C15.2138 9.68751 14.497 9.68751 14.0581 10.1125C13.6192 10.5375 13.6192 11.2317 14.0581 11.6567L16.3987 13.9092H7.32869V7.13751C7.32869 3.66668 10.2545 0.833344 13.8386 0.833344ZM0.541687 14.9999C0.541687 14.4049 1.04493 13.909 1.64882 13.909H7.32826V16.0907H1.64882C1.04493 16.0907 0.541687 15.609 0.541687 14.9999Z" fill="white"/>
</svg>
