<svg width="16" height="14" viewBox="0 0 16 14" fill="none" xmlns="http://www.w3.org/2000/svg">
<path d="M6.32046 8.77513C5.88921 8.34463 5.62671 7.75963 5.62671 7.10338C5.62671 5.78863 6.68571 4.72888 7.99971 4.72888C8.64996 4.72888 9.24846 4.99213 9.67221 5.42263" stroke="#89909B" stroke-width="1.5" stroke-linecap="round" stroke-linejoin="round"/>
<path d="M10.3286 7.52429C10.1546 8.49179 9.39259 9.25529 8.42584 9.43079" stroke="#89909B" stroke-width="1.5" stroke-linecap="round" stroke-linejoin="round"/>
<path d="M3.99095 11.1042C2.8007 10.1697 1.79269 8.80473 1.06219 7.10298C1.80019 5.39373 2.81495 4.02123 4.0127 3.07923C5.20295 2.13723 6.5762 1.62573 7.9997 1.62573C9.43145 1.62573 10.8039 2.14473 12.0017 3.09348" stroke="#89909B" stroke-width="1.5" stroke-linecap="round" stroke-linejoin="round"/>
<path d="M13.5857 4.74316C14.1017 5.42866 14.5555 6.21991 14.9372 7.10266C13.462 10.5204 10.855 12.5792 7.99971 12.5792C7.35246 12.5792 6.71421 12.4742 6.10071 12.2694" stroke="#89909B" stroke-width="1.5" stroke-linecap="round" stroke-linejoin="round"/>
<path d="M13.9152 1.18726L2.08472 13.0178" stroke="#89909B" stroke-width="1.5" stroke-linecap="round" stroke-linejoin="round"/>
</svg>
