<svg width="17" height="17" viewBox="0 0 17 17" fill="none" xmlns="http://www.w3.org/2000/svg">
<path d="M7.09998 0.100098C3.24227 0.100098 0.0999756 3.24239 0.0999756 7.1001C0.0999756 10.9578 3.24227 14.1001 7.09998 14.1001C8.77753 14.1001 10.3181 13.5044 11.5256 12.5155L15.7051 16.695C15.7696 16.7622 15.8468 16.8158 15.9323 16.8528C16.0178 16.8897 16.1098 16.9093 16.2029 16.9102C16.2961 16.9112 16.3884 16.8935 16.4747 16.8583C16.5609 16.8231 16.6392 16.771 16.7051 16.7052C16.7709 16.6393 16.823 16.561 16.8582 16.4748C16.8934 16.3886 16.911 16.2962 16.9101 16.203C16.9091 16.1099 16.8896 16.0179 16.8527 15.9324C16.8157 15.8469 16.7621 15.7697 16.6949 15.7052L12.5154 11.5257C13.5043 10.3183 14.1 8.77765 14.1 7.1001C14.1 3.24239 10.9577 0.100098 7.09998 0.100098ZM7.09998 1.5001C10.2011 1.5001 12.7 3.99901 12.7 7.1001C12.7 10.2012 10.2011 12.7001 7.09998 12.7001C3.99889 12.7001 1.49998 10.2012 1.49998 7.1001C1.49998 3.99901 3.99889 1.5001 7.09998 1.5001Z" fill="#D0D0D0"/>
</svg>
